<?xml version="1.0" encoding="UTF-8"?>
<svg id="Capa_2" data-name="Capa 2" xmlns="http://www.w3.org/2000/svg" xmlns:xlink="http://www.w3.org/1999/xlink" viewBox="0 0 100.73 59.18">
  <defs>
    <style>
      .cls-1 {
        fill: #1d1d1b;
      }

      .cls-2 {
        fill: url(#Bronze-9);
      }

      .cls-3 {
        fill: url(#Bronze-14);
      }

      .cls-4 {
        fill: url(#Bronze-5);
      }

      .cls-5 {
        fill: url(#Bronze-13);
      }

      .cls-6 {
        fill: url(#Bronze-7);
      }

      .cls-7 {
        fill: url(#Bronze-4);
      }

      .cls-8 {
        fill: url(#Bronze-6);
      }

      .cls-9 {
        fill: url(#Bronze);
      }

      .cls-10 {
        fill: url(#Bronze-3);
      }

      .cls-11 {
        fill: url(#Bronze-8);
      }

      .cls-12 {
        fill: url(#Bronze-11);
      }

      .cls-13 {
        fill: url(#Bronze-10);
      }

      .cls-14 {
        fill: url(#Bronze-12);
      }

      .cls-15 {
        fill: url(#Bronze-2);
      }
    </style>
    <linearGradient id="Bronze" x1="-63.26" y1="13.35" x2="151.95" y2="13.35" gradientUnits="userSpaceOnUse">
      <stop offset="0" stop-color="#451e19"/>
      <stop offset=".08" stop-color="#75502a"/>
      <stop offset=".38" stop-color="#ad8d4e"/>
      <stop offset=".56" stop-color="#eadabc"/>
      <stop offset=".78" stop-color="#a78760"/>
      <stop offset=".8" stop-color="#9e7c54"/>
      <stop offset=".96" stop-color="#89512c"/>
    </linearGradient>
    <linearGradient id="Bronze-2" data-name="Bronze" x1="-63.26" y1="13.36" x2="151.95" y2="13.36" xlink:href="#Bronze"/>
    <linearGradient id="Bronze-3" data-name="Bronze" x1="-63.26" y1="13.46" x2="151.95" y2="13.46" xlink:href="#Bronze"/>
    <linearGradient id="Bronze-4" data-name="Bronze" x1="-.85" y1="45.69" x2="102.53" y2="45.69" xlink:href="#Bronze"/>
    <linearGradient id="Bronze-5" data-name="Bronze" x1="-.85" y1="40.35" x2="102.53" y2="40.35" xlink:href="#Bronze"/>
    <linearGradient id="Bronze-6" data-name="Bronze" x1="-.85" y1="45.9" x2="102.53" y2="45.9" xlink:href="#Bronze"/>
    <linearGradient id="Bronze-7" data-name="Bronze" x1="-.85" y1="45.79" x2="102.53" y2="45.79" xlink:href="#Bronze"/>
    <linearGradient id="Bronze-8" data-name="Bronze" x1="-.85" y1="45.73" x2="102.53" y2="45.73" xlink:href="#Bronze"/>
    <linearGradient id="Bronze-9" data-name="Bronze" x1="-.85" y1="45.73" x2="102.53" y2="45.73" xlink:href="#Bronze"/>
    <linearGradient id="Bronze-10" data-name="Bronze" x1="-.85" y1="45.73" x2="102.53" y2="45.73" xlink:href="#Bronze"/>
    <linearGradient id="Bronze-11" data-name="Bronze" x1="-.85" y1="52.29" x2="102.53" y2="52.29" xlink:href="#Bronze"/>
    <linearGradient id="Bronze-12" data-name="Bronze" x1="-.85" y1="45.73" x2="102.53" y2="45.73" xlink:href="#Bronze"/>
    <linearGradient id="Bronze-13" data-name="Bronze" x1="-.85" y1="45.73" x2="102.53" y2="45.73" xlink:href="#Bronze"/>
    <linearGradient id="Bronze-14" data-name="Bronze" x1="-.85" y1="45.73" x2="102.53" y2="45.73" xlink:href="#Bronze"/>
  </defs>
  <g id="Capa_1-2" data-name="Capa 1">
    <g>
      <path class="cls-1" d="M31.03,34.98c-.08-.17-.13-.29-.19-.39-.16-.25-.37-.44-.69-.47-.13-.01-.26-.06-.4-.09v-.73c.08-.03.16-.08.24-.08.2-.01.4,0,.6,0h5.46c.06.34.1.68.19,1.01.15.53.33,1.06.51,1.58.4,1.1.81,2.19,1.22,3.29.23.62.44,1.24.67,1.86.37,1.01.74,2.03,1.11,3.04.03.08.06.17.1.29.08-.06.18-.1.2-.17.3-1.05.7-2.07,1.04-3.11.27-.86.55-1.71.84-2.56.39-1.13.8-2.26,1.18-3.39.18-.53.29-1.08.29-1.64,0-.06.01-.12.02-.19h6.5c.07.24.02.49.04.78-.22.07-.47.11-.67.23-.19.11-.34.3-.47.42-.15.32-.16.6-.16.89,0,6.83,0,13.66,0,20.49v.52c.24.59.6.98,1.28.98v.79h-7.51v-.74c.24-.07.47-.13.67-.19.3-.25.57-.5.63-.89.03-.18.05-.36.05-.54,0-3.91,0-7.83,0-11.74v-.4c-.64,1.45-1.09,2.94-1.62,4.41-.53,1.48-1.02,2.97-1.53,4.47h-1.65c-.12-.31-.25-.63-.36-.95-.41-1.16-.79-2.33-1.21-3.48-.51-1.36-1-2.73-1.47-4.1-.05-.14-.13-.26-.25-.38,0,.1-.02.2-.02.31,0,4.01,0,8.01,0,12.02,0,.15,0,.31.04.45.14.52.45.9,1.24.97v.78h-7.15v-.73c.09-.03.17-.06.25-.07.59-.08,1.03-.61,1.01-1.16,0-.15,0-.31,0-.46,0-6.75,0-13.51,0-20.26v-.67Z"/>
      <path class="cls-1" d="M51.51,34.01v-.79c.14,0,.28,0,.41-.02.61-.03,1.22-.02,1.82-.11.41-.06.82-.05,1.23-.07.72-.03,1.43-.08,2.15-.08,1,0,2,.08,2.99.24.64.11,1.27.26,1.87.49,1.33.51,2.4,1.36,3.03,2.67.21.43.35.89.43,1.37.1.61.21,1.23.17,1.85-.06.86-.18,1.71-.55,2.49-.45.95-1.08,1.75-2.01,2.29-.07.04-.14.1-.24.18.12.08.2.14.29.18.79.32,1.34.93,1.87,1.56.44.52.75,1.14,1.01,1.76.24.56.39,1.16.48,1.77.07.46.08.91.09,1.36.01.56-.09,1.11-.17,1.67-.07.48-.21.94-.35,1.39-.19.6-.52,1.12-.89,1.62-.5.69-1.16,1.19-1.9,1.6-.85.47-1.76.74-2.71.93-1.03.2-2.07.28-3.12.27-.77-.01-1.54.03-2.3-.02-.67-.05-1.34-.03-2.01-.1-.38-.04-.76-.06-1.14-.08-.14,0-.29-.06-.43-.1v-.71c.07-.03.16-.08.26-.1.64-.1.95-.37,1.02-1.11,0-.06,0-.12,0-.18,0-6.94,0-13.87,0-20.81,0-.21-.03-.42-.09-.62-.12-.37-.36-.62-.77-.68-.13-.02-.26-.07-.42-.11ZM57.69,54.76c.47,0,.9,0,1.33,0,.09,0,.19,0,.27-.03.77-.24,1.37-.69,1.74-1.43.27-.53.4-1.1.42-1.69.02-.68.04-1.37-.07-2.05-.11-.65-.32-1.25-.7-1.78-.36-.5-.87-.83-1.47-.92-.49-.08-1-.02-1.52-.02v7.92ZM57.7,36.88v5.94c.37.29.74.12,1.08.05.6-.13,1.07-.49,1.37-1.04.27-.49.36-1.02.38-1.56.02-.55.03-1.1-.09-1.64-.09-.4-.24-.77-.51-1.09-.43-.52-1.01-.69-1.65-.72-.19-.01-.38.04-.58.07Z"/>
      <path class="cls-1" d="M75.36,57.6v.7c-.38.08-5.41.12-7.51.04-.05-.23-.02-.47-.02-.73.1-.03.18-.07.26-.09.64-.15.93-.48,1.03-1.16.02-.12,0-.25,0-.37,0-6.83,0-13.66,0-20.49,0-.2.01-.4-.03-.6-.07-.33-.3-.55-.57-.76-.22-.05-.45-.1-.68-.15v-.71c.09-.03.17-.07.25-.08.72-.04,1.44-.03,2.15-.11.92-.11,1.83-.05,2.75-.09.29-.01.57-.07.86-.07.81.02,1.62.02,2.42.1.61.06,1.21.21,1.81.36.7.18,1.35.49,1.96.89,1.15.75,1.9,1.81,2.35,3.09.2.57.3,1.16.39,1.75.12.79.1,1.59.05,2.38-.07,1.07-.33,2.1-.8,3.07-.43.89-1.05,1.63-1.85,2.22-.1.07-.18.16-.29.26.04.25.07.5.12.75.17.84.35,1.67.54,2.5.15.64.3,1.28.48,1.92.4,1.41.77,2.83,1.26,4.21.17.49.44.86.94,1.03.16.06.34.08.53.12v.71c-.37.08-4.37.11-6.13.04-.84-3.26-1.59-6.54-2-9.92h-1.54c0,.1,0,.2,0,.3,0,2.44,0,4.88,0,7.32,0,.11,0,.21,0,.32.02.63.43,1.08,1.06,1.16.07,0,.14.05.22.07ZM74.09,44.88c.36.07.68.07,1.01.04.95-.07,1.66-.52,2.13-1.34.36-.62.52-1.31.55-2.02.02-.38,0-.77.01-1.15.02-.57-.09-1.11-.28-1.64-.22-.61-.57-1.14-1.11-1.52-.7-.49-1.49-.53-2.31-.43v8.05Z"/>
      <path class="cls-1" d="M28.07,45.48c0,.57.01,1.14,0,1.7-.02.69-.04,1.37-.1,2.05-.05.6-.19,1.19-.25,1.79-.14,1.29-.47,2.53-.93,3.74-.32.84-.77,1.6-1.33,2.31-.47.6-1.06,1.04-1.71,1.4-.43.24-.9.43-1.39.51-.58.1-1.16.22-1.76.19-1.35-.06-2.63-.38-3.72-1.21-.57-.44-1.04-.99-1.43-1.6-.48-.77-.85-1.59-1.11-2.46-.25-.82-.46-1.65-.57-2.5-.07-.52-.17-1.04-.26-1.55,0-.02,0-.03,0-.05-.03-.58-.05-1.16-.1-1.73-.14-1.42-.11-2.84-.07-4.27.02-.58.01-1.18.15-1.76.02-.09,0-.18,0-.28,0-.61.15-1.19.24-1.79.09-.57.23-1.11.38-1.67.14-.53.32-1.03.53-1.53.24-.57.52-1.12.88-1.63.72-1.03,1.62-1.83,2.83-2.27.47-.17.95-.27,1.44-.35.41-.07.82-.08,1.23-.07.8.02,1.59.18,2.32.51.51.23.99.52,1.41.9.71.63,1.29,1.37,1.71,2.22.49.99.85,2.04,1.08,3.14.13.6.2,1.21.33,1.81.08.37.07.75.11,1.13.12,1.1.08,2.2.09,3.3ZM18.39,45.57c0,1.3-.04,2.6.09,3.9.05.54.07,1.09.1,1.64,0,.04.02.09.03.13.08.44.17.88.24,1.33.12.79.36,1.52.83,2.17.43.6,1.34.78,1.93.19.32-.32.5-.72.66-1.13.32-.82.42-1.69.55-2.55.09-.64.15-1.29.18-1.94.04-.9.05-1.8.08-2.7.04-1.14.03-2.29-.05-3.44-.06-.95-.06-1.91-.19-2.86-.1-.72-.19-1.43-.4-2.12-.17-.57-.41-1.11-.88-1.51-.65-.55-1.43-.36-1.85.16-.46.56-.65,1.25-.83,1.93-.21.8-.28,1.63-.37,2.45-.07.63-.09,1.28-.1,1.92-.02.81,0,1.63,0,2.44Z"/>
      <path class="cls-1" d="M100.73,57.57v.77h-7.06v-.73c.18-.06.38-.09.53-.19.16-.1.27-.27.36-.37.03-.76-.05-1.43-.17-2.11-.02-.13,0-.27,0-.44-.13,0-.24-.03-.33,0-.83.35-1.71.28-2.57.24-.4-.02-.79-.17-1.22-.27-.19.38-.17.8-.23,1.21-.06.42-.08.84-.11,1.15.11.6.53.66.91.76v.71c-.39.08-4.54.11-6.51.04-.05-.25-.02-.5-.02-.78.1-.01.21,0,.31-.05.36-.15.61-.41.7-.79.09-.41.14-.83.2-1.25.07-.42.14-.83.21-1.24.05-.28.1-.56.15-.84.16-.86.23-1.73.45-2.57.06-.25.06-.51.11-.76.09-.52.19-1.03.27-1.55.1-.65.19-1.31.29-1.97.06-.37.12-.74.19-1.11.05-.29.12-.59.17-.88.12-.71.25-1.42.37-2.13.07-.45.12-.9.2-1.34.08-.46.17-.91.25-1.37.07-.43.14-.86.21-1.29.09-.5.12-1.01.26-1.51.08-.27.08-.57.11-.85.03-.24.03-.49.11-.71.1-.29.07-.57.08-.85-.14-.25-.35-.39-.63-.47v-.78h8.37c.18.24.05.51.09.77-.16.06-.3.11-.45.17-.17.15-.2.35-.2.57-.01.57.15,1.11.22,1.66.04.3.1.59.15.89.09.5.19,1,.27,1.51.08.49.13.99.21,1.48.07.46.17.91.25,1.37.04.25.07.51.11.76.07.46.15.92.22,1.38.04.27.1.53.14.8.1.67.18,1.34.29,2.01.07.44.22.88.25,1.32.03.47.16.92.22,1.39.06.49.17.97.26,1.46.05.28.07.57.11.85.06.42.13.83.2,1.25.05.28.12.56.16.84.1.67.19,1.34.29,2.01.05.34.1.68.2,1.02.12.42.33.77,1.07.83ZM92.24,38.29s-.05,0-.07,0c-.04.39-.04.79-.12,1.17-.05.21-.05.42-.07.63-.02.22-.06.45-.09.67-.04.36-.04.73-.11,1.08-.13.62-.13,1.26-.25,1.88-.08.4-.07.81-.11,1.22-.03.3-.03.61-.11.9-.1.35-.08.72-.15,1.07-.08.4-.07.81-.11,1.22-.03.28-.07.57-.11.85-.06.46-.12.92-.18,1.38.11.09.18.19.27.21.83.23,1.66.3,2.49-.02.11-.04.21-.12.33-.19-.04-.23-.09-.45-.11-.68-.07-.6-.13-1.2-.2-1.8-.03-.27-.05-.54-.1-.81-.08-.52-.2-1.03-.25-1.55-.05-.48-.11-.96-.19-1.43-.12-.71-.19-1.43-.28-2.15-.09-.7-.18-1.4-.28-2.11-.07-.52-.13-1.04-.2-1.57Z"/>
      <path class="cls-1" d="M.8,58.6c-.03-.07-.09-.17-.11-.29-.04-.22-.07-.45-.1-.67-.07-.6-.12-1.2-.2-1.8-.09-.7-.18-1.4-.28-2.11-.04-.28-.08-.56-.13-.87.33-.08.62-.15.93-.22.04.13.09.26.13.38.12.4.34.75.59,1.06.33.39.77.63,1.26.76.61.15,1.23.25,1.85.18,1.17-.13,2.12-.7,2.38-2.1.04-.21.08-.42.09-.62.02-.88-.25-1.68-.69-2.44-.42-.73-.91-1.4-1.47-2.01-.51-.55-1.01-1.11-1.49-1.67-.73-.85-1.44-1.72-2.05-2.67-.53-.82-.95-1.68-1.18-2.62-.21-.81-.28-1.65-.2-2.49.09-.88.27-1.75.69-2.55.49-.93,1.17-1.65,2.07-2.19.69-.42,1.45-.65,2.23-.81.64-.13,1.31-.15,1.96-.1.45.04.89.14,1.34.21.3.05.59.11.89.14.48.04.92-.16,1.41-.23.06.33.14.7.18,1.06.07.58.14,1.16.27,1.74.06.25.02.51.09.76.1.41.14.83.2,1.25.01.11,0,.21,0,.35-.21.25-.58.16-.83.32-.18-.26-.33-.53-.52-.75-.45-.53-1.08-.76-1.74-.89-.4-.08-.81-.13-1.22-.11-.37.02-.73.11-1.03.3-.42.25-.73.64-.91,1.11-.3.77-.22,1.54.09,2.29.22.54.54,1.01.93,1.45.39.44.75.92,1.13,1.37.35.42.71.84,1.06,1.26,1.02,1.22,2.05,2.44,2.76,3.88.39.78.63,1.61.78,2.48.13.73.11,1.47.06,2.19-.06.88-.28,1.75-.67,2.55-.49,1.02-1.21,1.84-2.19,2.43-.59.35-1.21.62-1.86.78-.51.12-1.03.24-1.57.22-.59-.01-1.19.04-1.78-.09-.34-.07-.67-.15-1.01-.21-.37-.07-.73-.07-1.09-.07-.33,0-.66.04-1.03.06Z"/>
      <g>
        <g>
          <path class="cls-9" d="M29.59,13.22c0-.88-.01-1.49,0-2.11.02-.58.04-1.16.1-1.73.06-.54.19-1.06.25-1.6.1-.92.36-1.79.63-2.66.3-.96.74-1.85,1.33-2.65.82-1.12,1.92-1.87,3.26-2.25.29-.08.61-.05.89-.13.36-.1.73-.08,1.09-.08,1.35.03,2.59.42,3.66,1.25.4.32.74.73,1.07,1.13.79.93,1.21,2.04,1.58,3.17.19.6.33,1.21.42,1.84.07.49.18.97.26,1.46.05.31.08.63.09.95.04.87.08,1.74.1,2.61.01.55.01,1.11,0,1.66-.02.72-.02,1.44-.11,2.15-.07.62-.07,1.24-.17,1.85-.08.47-.2.94-.26,1.42-.07.57-.22,1.12-.38,1.66-.25.84-.56,1.65-1,2.41-.85,1.46-2,2.52-3.71,2.91-.35.08-.7.18-1.07.18-.27,0-.54.08-.81.07-.98-.04-1.95-.2-2.84-.65-.55-.28-1.03-.67-1.47-1.12-.55-.57-.98-1.2-1.31-1.9-.45-.95-.8-1.94-.98-2.98-.05-.31-.13-.62-.19-.92-.06-.29-.12-.59-.16-.88-.05-.36-.04-.73-.11-1.08-.1-.45-.03-.92-.1-1.36-.14-.95-.03-1.89-.07-2.58ZM36.69,3.88c-.59.22-.95.65-1.17,1.21-.23.57-.39,1.16-.51,1.77-.17.85-.26,1.7-.33,2.55-.07.86-.04,1.74-.1,2.61-.08,1.18.05,2.35.07,3.53.01.56.01,1.12.07,1.69.06.65.09,1.3.21,1.94.07.4.1.81.2,1.2.12.52.27,1.04.53,1.52.25.47.6.79,1.13.9.1.02.22.05.31.03.46-.14.83-.35,1.09-.81.49-.88.63-1.84.8-2.8.09-.53.14-1.08.18-1.62.05-.7.09-1.4.1-2.1.01-1.64.01-3.28,0-4.93,0-.67-.06-1.34-.1-2.01,0-.02,0-.03,0-.05-.14-.56-.13-1.13-.25-1.7-.16-.72-.31-1.43-.68-2.08-.34-.59-.82-.93-1.56-.86Z"/>
          <path class="cls-15" d="M17,26.18c-.26-1.98-.51-3.87-.76-5.78.31-.08.61-.15.93-.23.13.31.25.61.38.9.33.72.92,1.1,1.65,1.31.6.17,1.23.26,1.85.18,1.18-.16,1.86-.59,2.27-1.78.15-.45.3-.92.12-1.41-.03-1.01-.5-1.85-1.05-2.65-.35-.51-.76-.99-1.16-1.46-.7-.81-1.43-1.58-2.11-2.41-.77-.93-1.49-1.91-2-3.01-.29-.61-.48-1.25-.61-1.92-.15-.79-.1-1.59-.06-2.37.03-.55.21-1.08.41-1.6.26-.69.65-1.3,1.14-1.84.37-.41.82-.72,1.3-.99.76-.43,1.58-.64,2.44-.75.44-.06.88-.1,1.32-.07.39.02.78.1,1.16.15.43.06.86.16,1.29.2.5.05.98-.1,1.5-.26.25,1.73.51,3.44.76,5.2-.21.25-.59.13-.85.36-.07-.11-.13-.19-.18-.28-.21-.38-.46-.72-.85-.93-.45-.24-.91-.45-1.44-.5-.3-.03-.6-.06-.9-.08-1.04-.06-1.96.79-2.15,1.71-.2.93-.03,1.77.46,2.55.26.41.58.78.88,1.16.37.46.74.92,1.12,1.38.37.45.75.88,1.12,1.32.98,1.18,1.95,2.36,2.57,3.78.37.83.64,1.68.7,2.6.03.39.08.79.06,1.18-.06,1.2-.26,2.37-.84,3.43-.54.99-1.29,1.79-2.3,2.33-.76.41-1.57.64-2.43.79-.69.12-1.37.08-2.06.06-.37,0-.74-.11-1.1-.21-.69-.19-1.39-.16-2.09-.14-.16,0-.31.06-.48.1Z"/>
          <path class="cls-10" d="M46.02,25.89v-.8c.69,0,1.08-.4,1.29-1.12v-.77c0-6.69,0-13.39,0-20.08,0-.29.02-.58-.11-.85-.16-.31-.36-.56-.74-.61-.15-.02-.29-.07-.43-.11v-.74c.39-.08,4.71-.11,7.43-.05.08.24.02.5.04.79-.12.04-.25.09-.38.12-.31.06-.51.24-.66.5-.17.3-.26.6-.26.95,0,6.19,0,12.37,0,18.56v.35h.39c1.32,0,2.64,0,3.96,0,.7,0,1.26-.26,1.64-.87.13-.2.26-.4.41-.63.29.1.57.19.85.28-.36,1.84-.72,3.64-1.06,5.4-.44-.08-.84-.15-1.23-.22-.87-.16-1.74-.08-2.61-.08-2.67-.01-5.35,0-8.02,0h-.5Z"/>
        </g>
        <g>
          <path class="cls-7" d="M61.7,55.36c.24-.29.45-.62.63-.97.41-.82.64-1.71.66-2.65.02-.81.04-1.61-.1-2.48-.09-.54-.23-1.04-.42-1.5.01.01.02.03.03.04.27.32.48.78.65,1.18.15.35.26.76.33,1.24.05.34.05.68.06,1.03,0,.37-.05.69-.1,1.02l-.05.33c-.04.29-.14.63-.26,1-.09.26-.26.57-.56.98-.2.28-.49.53-.87.78ZM61.86,41.86c.12-.44.19-.92.21-1.43.03-.69.04-1.44-.15-2.24-.18-.8-.5-1.46-.97-2.03-.04-.05-.08-.09-.11-.13.67.33,1.12.77,1.41,1.37.11.23.19.48.23.75.1.59.17,1.01.14,1.32-.04.6-.12,1.22-.34,1.69-.13.27-.27.5-.42.7Z"/>
          <path class="cls-4" d="M78.48,44.75c.5-.87.78-1.88.83-3,.01-.26.01-.52.01-.78v-.42c.02-.82-.11-1.63-.41-2.47-.31-.85-.76-1.56-1.36-2.13.17.09.35.19.53.31.68.44,1.14,1.06,1.45,1.94.14.39.22.86.29,1.35.09.62.07,1.3.03,1.89-.05.8-.25,1.55-.58,2.23-.2.42-.46.78-.8,1.09Z"/>
          <path class="cls-8" d="M23.65,54.68c.38-.99.52-1.97.64-2.83l.03-.21c.1-.72.17-1.44.2-2.17.02-.51.04-1.03.05-1.54l.04-1.17c.05-1.23.03-2.47-.05-3.67-.02-.31-.03-.61-.05-.92-.03-.7-.06-1.4-.16-2.1-.11-.8-.22-1.63-.47-2.47-.03-.09-.06-.18-.09-.28.36.76.64,1.58.82,2.45.06.26.1.52.14.78.06.35.12.7.19,1.04.03.12.02.24.03.35.01.18.02.37.04.55.08.73.08,1.49.08,2.31v1.28c0,.36,0,.73,0,1.09-.02.64-.04,1.28-.09,1.91-.02.27-.07.53-.11.79-.05.32-.1.64-.14.96-.11,1.02-.37,2.06-.8,3.18-.09.24-.2.47-.32.7,0-.02.01-.03.02-.05ZM16.34,54.69c-.22-.43-.41-.89-.55-1.37-.26-.86-.41-1.52-.49-2.13-.05-.4-.12-.8-.19-1.19l-.06-.34-.02-.43c-.02-.43-.04-.87-.08-1.3-.13-1.33-.09-2.74-.06-3.98v-.21c.01-.41.02-.8.09-1.08.09-.35.08-.66.07-.81,0-.28.07-.58.12-.88l.09-.55c.07-.45.19-.89.3-1.33.13-.49.26-.89.45-1.33.11-.25.21-.47.32-.68-.17.45-.28.86-.37,1.2-.23.89-.33,1.79-.41,2.57l-.02.21c-.07.7-.1,1.41-.12,2.11-.01.58,0,1.17,0,1.75v1.71c0,1.01,0,2.06.1,3.15.03.33.05.66.07.98l.03.58c0,.14.05.36.08.5l.05.29c.05.29.11.57.15.86.09.62.24,1.19.45,1.72Z"/>
          <path class="cls-6" d="M7.29,56.02c.69-.66,1.15-1.55,1.35-2.61.07-.38.12-.68.13-.98.03-1.24-.3-2.42-.99-3.63-.5-.87-1.1-1.69-1.77-2.41-.49-.53-.97-1.06-1.43-1.61-.65-.76-1.32-1.58-1.88-2.43-.44-.67-.73-1.31-.89-1.94-.15-.59-.2-1.16-.14-1.7.08-.76.22-1.29.44-1.73.3-.56.69-.98,1.24-1.31.06-.04.12-.07.18-.1-.5.46-.89,1.04-1.15,1.7-.5,1.27-.46,2.61.11,3.98.31.74.75,1.44,1.33,2.08.22.25.43.51.64.77l.43.53,1.21,1.44c.91,1.09,1.77,2.13,2.32,3.26.26.53.45,1.14.58,1.87.09.53.07,1.13.03,1.64-.04.61-.2,1.2-.45,1.73-.3.63-.72,1.11-1.28,1.46Z"/>
          <path class="cls-11" d="M32.65,36.67c.36,6.04.36,12.08,0,18.12-.36-6.04-.36-12.08,0-18.12h0Z"/>
          <path class="cls-2" d="M45.51,36.67c.36,6.04.36,12.08,0,18.12-.36-6.04-.36-12.08,0-18.12h0Z"/>
          <path class="cls-13" d="M54.54,36.67c.36,6.04.36,12.08,0,18.12-.36-6.04-.36-12.08,0-18.12h0Z"/>
          <path class="cls-12" d="M76.86,48.62c.88,2.39,1.52,4.83,1.94,7.34-.88-2.38-1.52-4.83-1.94-7.34,0,0,.42,2.51,0,0Z"/>
          <path class="cls-14" d="M70.8,36.67c.36,6.04.36,12.08,0,18.12-.36-6.04-.36-12.08,0-18.12h0Z"/>
          <path class="cls-5" d="M90.1,36.67c-.62,6.09-1.58,12.14-2.91,18.12.61-6.09,1.59-12.14,2.91-18.12h0Z"/>
          <path class="cls-3" d="M93.37,36.67c1.32,5.98,2.3,12.02,2.91,18.12-1.33-5.98-2.29-12.02-2.91-18.12h0Z"/>
        </g>
      </g>
      <path class="cls-1" d="M70.79,2.86c-.03.05-.05.1-.08.15-.12-.15.04-.11.09-.14l-.02-.02Z"/>
      <path class="cls-1" d="M46.24,36.67c.36,6.04.36,12.08,0,18.12-.36-6.04-.36-12.08,0-18.12h0Z"/>
      <path class="cls-1" d="M74.25,8.35c-.19.03-.34.06-.49.09-.06-.11-.11-.2-.16-.3-.17-.31-.43-.49-.79-.51-.35-.02-.71-.03-1.06-.03-.45,0-.91,0-1.36,0-.08,0-.16,0-.27.01.77,2.25,1.53,4.48,2.3,6.74.04-.08.06-.13.08-.18.21-.58.49-1.11.95-1.53.46-.42,1.01-.57,1.62-.49.33.05.58.26.78.52.2.26.28.57.35.89.11.5.02.98-.11,1.46,0,.02-.02.05-.03.07-.01.02-.03.04-.04.07h-.32s-.03-.02-.03-.03c-.06-.16-.16-.3-.33-.34-.22-.04-.44-.04-.64.08-.27.16-.47.38-.65.63-.26.35-.55.89-.71,1.4.1.29.21.6.32.91.24.65.48,1.31.72,1.96.15.42.31.83.46,1.25.03.08.07.15.11.22.15.27.37.46.7.47.05,0,.09.03.15.04v.36c-.18.04-3.08.06-3.49.02-.16-.42-.33-.84-.49-1.26-.23.21-.43.42-.66.61-.5.42-1.09.66-1.74.76-.48.08-.97.08-1.45-.02-.73-.15-1.34-.53-1.8-1.12-.46-.59-.73-1.26-.88-1.98-.07-.35-.1-.71-.16-1.07-.06-.37-.05-.74-.04-1.11.03-.99.22-1.94.62-2.84.32-.72.75-1.37,1.27-1.96.36-.42.76-.79,1.2-1.14.02-.02.03-.04.06-.07-.64-1.86-1.29-3.72-1.94-5.62.12,0,.2,0,.29,0,2.04,0,4.09,0,6.13,0,.27,0,.54-.03.82-.13.14.52.24,1.05.36,1.58.12.53.23,1.05.36,1.61ZM69.24,13.66c-.21.18-.39.36-.54.57-.45.64-.64,1.36-.68,2.13-.02.44-.02.87,0,1.31.02.4.08.8.22,1.18.09.23.2.43.37.6.33.36,1,.39,1.33.21.14-.08.29-.16.41-.27.26-.21.48-.44.64-.73-.59-1.67-1.17-3.32-1.75-4.99Z"/>
      <g>
        <path class="cls-1" d="M50.67,4.49c.35,5.94.35,11.89,0,17.83-.35-5.94-.35-11.89,0-17.83h0Z"/>
        <path class="cls-1" d="M41.46,22.05c.38-.97.51-1.93.63-2.78l.03-.21c.1-.71.17-1.42.2-2.13.02-.51.04-1.01.05-1.52l.03-1.15c.05-1.21.03-2.43-.05-3.61-.02-.3-.03-.6-.05-.9-.03-.69-.06-1.38-.16-2.07-.11-.79-.22-1.6-.46-2.43-.03-.09-.06-.18-.09-.28.35.75.63,1.56.81,2.41.06.26.1.51.14.77.06.34.12.69.19,1.03.02.12.02.23.03.35.01.18.02.36.04.54.08.71.08,1.47.07,2.27v1.26c0,.36,0,.72,0,1.07-.02.63-.03,1.26-.09,1.88-.02.26-.07.52-.11.78-.05.31-.1.63-.14.94-.11,1-.37,2.03-.78,3.13-.09.24-.19.46-.32.69,0-.02.01-.03.02-.05ZM34.26,22.06c-.22-.42-.4-.88-.55-1.35-.25-.84-.4-1.49-.48-2.1-.05-.4-.12-.79-.19-1.18l-.06-.34-.02-.42c-.02-.43-.04-.85-.08-1.28-.13-1.31-.09-2.7-.06-3.92v-.21c.01-.41.02-.79.09-1.07.09-.35.08-.65.07-.8,0-.27.07-.57.12-.87l.09-.54c.07-.44.18-.87.3-1.31.12-.48.26-.87.44-1.31.1-.25.21-.47.31-.66-.17.44-.28.85-.36,1.18-.23.88-.32,1.76-.4,2.53l-.02.21c-.07.69-.1,1.38-.11,2.07-.01.57,0,1.15,0,1.72v1.68c0,1,0,2.03.1,3.1.03.32.05.65.06.97l.03.57c0,.14.05.36.08.49l.05.28c.05.28.11.56.15.84.09.61.24,1.17.44,1.7Z"/>
        <path class="cls-1" d="M25.37,23.47c.68-.65,1.13-1.52,1.33-2.57.07-.37.12-.67.12-.97.03-1.22-.29-2.38-.98-3.57-.49-.86-1.08-1.66-1.74-2.37-.48-.52-.95-1.05-1.41-1.58-.64-.75-1.3-1.55-1.85-2.39-.43-.66-.72-1.29-.87-1.91-.15-.58-.19-1.14-.14-1.67.08-.74.21-1.27.44-1.7.29-.55.68-.96,1.22-1.29.06-.04.12-.07.18-.1-.49.45-.88,1.02-1.14,1.67-.49,1.25-.46,2.57.1,3.91.3.73.74,1.42,1.31,2.05.22.24.42.5.63.76l.42.52,1.19,1.42c.89,1.07,1.74,2.09,2.29,3.2.26.53.45,1.13.57,1.84.09.52.07,1.11.03,1.62-.04.6-.19,1.18-.45,1.7-.3.62-.71,1.09-1.26,1.43Z"/>
      </g>
      <path class="cls-1" d="M62.43,55.36c.24-.29.45-.62.63-.97.41-.82.64-1.71.66-2.65.02-.81.04-1.61-.1-2.48-.09-.54-.23-1.04-.42-1.5.01.01.02.03.03.04.27.32.48.78.65,1.18.15.35.26.76.33,1.24.05.34.05.68.06,1.03,0,.37-.05.69-.1,1.02l-.05.33c-.04.29-.14.63-.26,1-.09.26-.26.57-.56.98-.2.28-.49.53-.87.78ZM62.59,41.86c.12-.44.19-.92.21-1.43.03-.69.04-1.44-.15-2.24-.18-.8-.5-1.46-.97-2.03-.04-.05-.08-.09-.11-.13.67.33,1.12.77,1.41,1.37.11.23.19.48.23.75.1.59.17,1.01.14,1.32-.04.6-.12,1.22-.34,1.69-.13.27-.27.5-.42.7Z"/>
      <path class="cls-1" d="M79.21,44.75c.5-.87.78-1.88.83-3,.01-.26.01-.52.01-.78v-.42c.02-.82-.11-1.63-.41-2.47-.31-.85-.76-1.56-1.36-2.13.17.09.35.19.53.31.68.44,1.14,1.06,1.45,1.94.14.39.22.86.29,1.35.09.62.07,1.3.03,1.89-.05.8-.25,1.55-.58,2.23-.2.42-.46.78-.8,1.09Z"/>
      <path class="cls-1" d="M24.38,54.68c.38-.99.52-1.97.64-2.83l.03-.21c.1-.72.17-1.44.2-2.17.02-.51.04-1.03.05-1.54l.04-1.17c.05-1.23.03-2.47-.05-3.67-.02-.31-.03-.61-.05-.92-.03-.7-.06-1.4-.16-2.1-.11-.8-.22-1.63-.47-2.47-.03-.09-.06-.18-.09-.28.36.76.64,1.58.82,2.45.06.26.1.52.14.78.06.35.12.7.19,1.04.03.12.02.24.03.35.01.18.02.37.04.55.08.73.08,1.49.08,2.31v1.28c0,.36,0,.73,0,1.09-.02.64-.04,1.28-.09,1.91-.02.27-.07.53-.11.79-.05.32-.1.64-.14.96-.11,1.02-.37,2.06-.8,3.18-.09.24-.2.47-.32.7,0-.02.01-.03.02-.05ZM17.07,54.69c-.22-.43-.41-.89-.55-1.37-.26-.86-.41-1.52-.49-2.13-.05-.4-.12-.8-.19-1.19l-.06-.34-.02-.43c-.02-.43-.04-.87-.08-1.3-.13-1.33-.09-2.74-.06-3.98v-.21c.01-.41.02-.8.09-1.08.09-.35.08-.66.07-.81,0-.28.07-.58.12-.88l.09-.55c.07-.45.19-.89.3-1.33.13-.49.26-.89.45-1.33.11-.25.21-.47.32-.68-.17.45-.28.86-.37,1.2-.23.89-.33,1.79-.41,2.57l-.02.21c-.07.7-.1,1.41-.12,2.11-.01.58,0,1.17,0,1.75v1.71c0,1.01,0,2.06.1,3.15.03.33.05.66.07.98l.03.58c0,.14.05.36.08.5l.05.29c.05.29.11.57.15.86.09.62.24,1.19.45,1.72Z"/>
      <path class="cls-1" d="M8.02,56.02c.69-.66,1.15-1.55,1.35-2.61.07-.38.12-.68.13-.98.03-1.24-.3-2.42-.99-3.63-.5-.87-1.1-1.69-1.77-2.41-.49-.53-.97-1.06-1.43-1.61-.65-.76-1.32-1.58-1.88-2.43-.44-.67-.73-1.31-.89-1.94-.15-.59-.2-1.16-.14-1.7.08-.76.22-1.29.44-1.73.3-.56.69-.98,1.24-1.31.06-.04.12-.07.18-.1-.5.46-.89,1.04-1.15,1.7-.5,1.27-.46,2.61.11,3.98.31.74.75,1.44,1.33,2.08.22.25.43.51.64.77l.43.53,1.21,1.44c.91,1.09,1.77,2.13,2.32,3.26.26.53.45,1.14.58,1.87.09.53.07,1.13.03,1.64-.04.61-.2,1.2-.45,1.73-.3.63-.72,1.11-1.28,1.46Z"/>
      <path class="cls-1" d="M33.38,36.67c.36,6.04.36,12.08,0,18.12-.36-6.04-.36-12.08,0-18.12h0Z"/>
      <path class="cls-1" d="M55.27,36.67c.36,6.04.36,12.08,0,18.12-.36-6.04-.36-12.08,0-18.12h0Z"/>
      <path class="cls-1" d="M77.59,48.62c.88,2.39,1.52,4.83,1.94,7.34-.88-2.38-1.52-4.83-1.94-7.34,0,0,.42,2.51,0,0Z"/>
      <path class="cls-1" d="M71.54,36.67c.36,6.04.36,12.08,0,18.12-.36-6.04-.36-12.08,0-18.12h0Z"/>
      <path class="cls-1" d="M90.83,36.67c-.62,6.09-1.58,12.14-2.91,18.12.61-6.09,1.59-12.14,2.91-18.12h0Z"/>
      <path class="cls-1" d="M94.1,36.67c1.32,5.98,2.3,12.02,2.91,18.12-1.33-5.98-2.29-12.02-2.91-18.12h0Z"/>
    </g>
  </g>
</svg>