<?xml version="1.0" encoding="UTF-8"?>
<svg id="Capa_2" data-name="Capa 2" xmlns="http://www.w3.org/2000/svg" xmlns:xlink="http://www.w3.org/1999/xlink" viewBox="0 0 29.91 58.76">
  <defs>
    <style>
      .cls-1 {
        fill: url(#Degradado_sin_nombre_14-2);
      }

      .cls-2 {
        fill: #1d1d1b;
      }

      .cls-3 {
        fill: url(#Degradado_sin_nombre_14);
      }
    </style>
    <linearGradient id="Degradado_sin_nombre_14" data-name="Degradado sin nombre 14" x1="1.61" y1="2777.8" x2="228.21" y2="2777.8" gradientTransform="translate(0 2807.83) scale(1 -1)" gradientUnits="userSpaceOnUse">
      <stop offset="0" stop-color="#451e19"/>
      <stop offset=".08" stop-color="#75502a"/>
      <stop offset=".38" stop-color="#ad8d4e"/>
      <stop offset=".56" stop-color="#eadabc"/>
      <stop offset=".78" stop-color="#a78760"/>
      <stop offset=".8" stop-color="#9e7c54"/>
      <stop offset=".96" stop-color="#89512c"/>
    </linearGradient>
    <linearGradient id="Degradado_sin_nombre_14-2" data-name="Degradado sin nombre 14" x1="-174.26" y1="2779.13" x2="297.46" y2="2779.13" xlink:href="#Degradado_sin_nombre_14"/>
  </defs>
  <g id="Capa_1-2" data-name="Capa 1">
    <g>
      <path class="cls-2" d="M5.23,58.08c-.07-.15-.2-.37-.24-.64-.09-.48-.15-.99-.22-1.47-.15-1.32-.26-2.63-.44-3.95-.2-1.53-.39-3.07-.61-4.62-.09-.61-.18-1.23-.28-1.91.72-.18,1.36-.33,2.04-.48.09.28.2.57.28.83.26.88.75,1.64,1.29,2.32.72.85,1.69,1.38,2.76,1.67,1.34.33,2.7.55,4.06.39,2.56-.28,4.65-1.53,5.22-4.6.09-.46.18-.92.2-1.36.04-1.93-.55-3.68-1.51-5.35-.92-1.6-1.99-3.07-3.22-4.41-1.12-1.21-2.21-2.43-3.27-3.66-1.6-1.86-3.16-3.77-4.49-5.85-1.16-1.8-2.08-3.68-2.59-5.74-.46-1.78-.61-3.62-.44-5.46.2-1.93.59-3.84,1.51-5.59,1.07-2.04,2.56-3.62,4.54-4.8,1.51-.92,3.18-1.42,4.89-1.78,1.4-.28,2.87-.33,4.3-.22.99.09,1.95.31,2.94.46.66.11,1.29.24,1.95.31,1.05.09,2.02-.35,3.09-.5.13.72.31,1.53.39,2.32.15,1.27.31,2.54.59,3.81.13.55.04,1.12.2,1.67.22.9.31,1.82.44,2.74.02.24,0,.46,0,.77-.46.55-1.27.35-1.82.7-.39-.57-.72-1.16-1.14-1.64-.99-1.16-2.37-1.67-3.81-1.95-.88-.18-1.78-.28-2.67-.24-.81.04-1.6.24-2.26.66-.92.55-1.6,1.4-1.99,2.43-.66,1.69-.48,3.38.2,5.02.48,1.18,1.18,2.21,2.04,3.18.85.96,1.64,2.02,2.48,3,.77.92,1.56,1.84,2.32,2.76,2.24,2.67,4.49,5.35,6.05,8.5.85,1.71,1.38,3.53,1.71,5.44.28,1.6.24,3.22.13,4.8-.13,1.93-.61,3.84-1.47,5.59-1.07,2.24-2.65,4.03-4.8,5.33-1.29.77-2.65,1.36-4.08,1.71-1.12.26-2.26.53-3.44.48-1.29-.02-2.61.09-3.9-.2-.75-.15-1.47-.33-2.21-.46-.81-.15-1.6-.15-2.39-.15-.72,0-1.45.09-2.26.13h-.04Z"/>
      <path class="cls-3" d="M19.46,52.42c1.51-1.45,2.52-3.4,2.96-5.72.15-.83.26-1.49.28-2.15.07-2.72-.66-5.3-2.17-7.96-1.1-1.91-2.41-3.7-3.88-5.28-1.07-1.16-2.13-2.32-3.13-3.53-1.42-1.67-2.89-3.46-4.12-5.33-.96-1.47-1.6-2.87-1.95-4.25-.33-1.29-.44-2.54-.31-3.73.18-1.67.48-2.83.96-3.79.66-1.23,1.51-2.15,2.72-2.87.13-.09.26-.15.39-.22-1.1,1.01-1.95,2.28-2.52,3.73-1.1,2.78-1.01,5.72.24,8.72.68,1.62,1.64,3.16,2.92,4.56.48.55.94,1.12,1.4,1.69l.94,1.16,2.65,3.16c1.99,2.39,3.88,4.67,5.09,7.15.57,1.16.99,2.5,1.27,4.1.2,1.16.15,2.48.07,3.59-.09,1.34-.44,2.63-.99,3.79-.66,1.38-1.58,2.43-2.81,3.2l-.02-.02Z"/>
      <path class="cls-2" d="M21.06,52.42c1.51-1.45,2.52-3.4,2.96-5.72.15-.83.26-1.49.28-2.15.07-2.72-.66-5.3-2.17-7.96-1.1-1.91-2.41-3.7-3.88-5.28-1.07-1.16-2.13-2.32-3.13-3.53-1.42-1.67-2.89-3.46-4.12-5.33-.96-1.47-1.6-2.87-1.95-4.25-.33-1.29-.44-2.54-.31-3.73.18-1.67.48-2.83.96-3.79.66-1.23,1.51-2.15,2.72-2.87.13-.09.26-.15.39-.22-1.1,1.01-1.95,2.28-2.52,3.73-1.1,2.78-1.01,5.72.24,8.72.68,1.62,1.64,3.16,2.92,4.56.48.55.94,1.12,1.4,1.69l.94,1.16,2.65,3.16c1.99,2.39,3.88,4.67,5.09,7.15.57,1.16.99,2.5,1.27,4.1.2,1.16.15,2.48.07,3.59-.09,1.34-.44,2.63-.99,3.79-.66,1.38-1.58,2.43-2.81,3.2l-.02-.02Z"/>
    </g>
    <g>
      <path class="cls-1" d="M1.67,56.75c-.57-4.34-1.12-8.48-1.67-12.67.68-.18,1.34-.33,2.04-.5.28.68.55,1.34.83,1.97.72,1.58,2.02,2.41,3.62,2.87,1.32.37,2.7.57,4.06.39,2.59-.35,4.08-1.29,4.98-3.9.33-.99.66-2.02.26-3.09-.07-2.21-1.1-4.06-2.3-5.81-.77-1.12-1.67-2.17-2.54-3.2-1.53-1.78-3.13-3.46-4.62-5.28-1.69-2.04-3.27-4.19-4.38-6.6-.64-1.34-1.05-2.74-1.34-4.21-.33-1.73-.22-3.49-.13-5.19.07-1.21.46-2.37.9-3.51.57-1.51,1.42-2.85,2.5-4.03.81-.9,1.8-1.58,2.85-2.17,1.67-.94,3.46-1.4,5.35-1.64.96-.13,1.93-.22,2.89-.15.85.04,1.71.22,2.54.33.94.13,1.89.35,2.83.44,1.1.11,2.15-.22,3.29-.57.55,3.79,1.12,7.54,1.67,11.4-.46.55-1.29.28-1.86.79-.15-.24-.28-.42-.39-.61-.46-.83-1.01-1.58-1.86-2.04-.99-.53-1.99-.99-3.16-1.1-.66-.07-1.32-.13-1.97-.18-2.28-.13-4.3,1.73-4.71,3.75-.44,2.04-.07,3.88,1.01,5.59.57.9,1.27,1.71,1.93,2.54.81,1.01,1.62,2.02,2.45,3.02.81.99,1.64,1.93,2.45,2.89,2.15,2.59,4.27,5.17,5.63,8.29.81,1.82,1.4,3.68,1.53,5.7.07.85.18,1.73.13,2.59-.13,2.63-.57,5.19-1.84,7.52-1.18,2.17-2.83,3.92-5.04,5.11-1.67.9-3.44,1.4-5.33,1.73-1.51.26-3,.18-4.52.13-.81,0-1.62-.24-2.41-.46-1.51-.42-3.05-.35-4.58-.31-.35,0-.68.13-1.05.22l-.02-.04Z"/>
      <path class="cls-2" d="M20.01,50.81c1.49-1.42,2.48-3.33,2.92-5.63.15-.81.26-1.47.26-2.13.07-2.67-.64-5.22-2.15-7.83-1.07-1.89-2.37-3.64-3.81-5.19-1.05-1.14-2.08-2.3-3.09-3.46-1.4-1.64-2.85-3.4-4.06-5.24-.94-1.45-1.58-2.83-1.91-4.19-.33-1.27-.42-2.5-.31-3.66.18-1.62.46-2.78.96-3.73.64-1.21,1.49-2.1,2.67-2.83.13-.09.26-.15.39-.22-1.07.99-1.93,2.24-2.5,3.66-1.07,2.74-1.01,5.63.22,8.57.66,1.6,1.62,3.11,2.87,4.49.48.53.92,1.1,1.38,1.67l.92,1.14,2.61,3.11c1.95,2.35,3.81,4.58,5.02,7.01.57,1.16.99,2.48,1.25,4.03.2,1.14.15,2.43.07,3.55-.09,1.32-.42,2.59-.99,3.73-.66,1.36-1.56,2.39-2.76,3.13h.02Z"/>
    </g>
  </g>
</svg>