<svg xmlns="http://www.w3.org/2000/svg" viewBox="0 0 2038.84 346.2">
  <path d="M0,346.08v-102.72l.49-.56.2-72.64.07-127.6-.24-27.6c-.13-.09-.55-.59-.53-.56V0c.05.02.65.58.7.79l.68,2.66.21.81.2.73.2.73.22.75c3,10.38,9.47,19.09,18.06,25.59,6.5,4.92,13.73,8.3,21.3,11.32l.75.3,22.74,7.43.77.17,13.78,4.53c18.88,22.72,45.9,28.06,73.98,30.99l27.38,2.85,25.47,1.55,24.47,2.36c11.8,1.14,23.13,1.56,34.94,1.33,25.36,14,54.36,10.2,78.27-4.7l14.57-9.08c31.72-19.77,93.53-46.71,130.46-55.53,16.29-3.89,37.87-7.18,53.61-1.07,8.2,3.18,14.33,9.37,16.79,17.88,1.49,5.16,2.47,10.74,1.53,16.14-1.76,10.17-12.1,18.99-19.01,26.12-3.59,3.7-6.56,7.76-8.91,12.26-1.25,2.38-.9,4.12.31,6.47,3.7,7.2,9.85,12.76,17.27,15.85,5.63,2.34,10.67,2.06,16.38.6l67.23-17.28,79.78-24.77,62.37-21.08c12.78-4.32,26.27-5.1,39.47-4.08,18.1,1.4,34.04,9.95,45.38,23.87,12.76,15.67,19.77,36.05,24.14,55.65,3.08,13.81,5.35,27.32,6.56,41.43l3.74,43.78c18.05,48.57,87.04,57.07,128.84,36.92,20.5-3.87,47.44-17.68,64.02-30.05l29.09-21.69,27.24-20.33c9.19-6.85,18.77-12.36,28.82-17.77,14.34-15.92,36.97-22.88,56.1-11.66,5.65,3.32,10.12,7.8,12.93,13.62,3.84,7.96,2.54,16.84-3.34,23.42-3.09,3.46-6.8,6.08-10.99,8.26-14.93,7.75-26.06,5.87-40.45,12.87-3.03,1.47-5.8,3.51-7.54,6.32-4.62,7.48,6.33,15.12,12.07,18.17,12.16,6.47,25.67,9.5,39.41,10.07,7.29.3,13.34-1.47,20.13-3.1,14.47-3.48,28.21-8.18,40.55-16.65,17.29-11.88,31.44-29.18,34.33-50.55,2.14-15.85-3.65-30.99-15.65-41.43-15.2-13.22-36.46-17.88-56.29-18.97-1-.06-2.16-.77-2.9-1.4-4.73-4.04-8.83-8.33-11.85-13.69-9.85-17.46,4.97-31.77,20-38.94,21.22-10.13,49.41-13.59,71.88-5.52,5.62,2.02,10.07,5.32,14.56,9.04,3.82,3.17,7.55,6.12,10.54,10.21,3.44,4.71,6.44,9.51,9.12,14.76l10.37,20.33c3.16,6.19,6.88,11.75,11.52,16.82,7.76,8.5,18.72,11.9,29.98,9.34,43.46,14.06,77.32,8.54,117.88-10.1l29.63-13.61c32.07-14.74,61.92-22.06,97.21-15.11,11.07,2.18,21.4,5.07,31.7,9.52,53.85,23.26,67.84,77.49,76.1,130.5,16.42,53.5,76.8,77.38,128.18,60.39,14.09-4.66,25.79-12.51,36.73-22.25,16.17-14.4,36.89-21.89,58.45-22.21,14.73-.22,28.66,2.77,42.13,8.23,1.33.54,2.56.9,2.56,2.37v77.7s0,1.03,0,1.03l.02.98.02,1.04c.01.79-.14,1.95-.69,1.95h-2.4s-1295.62-.01-1295.62-.01L0,346.08ZM512.81,51.66c1.86-1.12,3.51-2.7,5-4.16l6.72-6.62c-2.39-.2-4.78.41-6.8,1.63l-6.12,3.69c-2.68,1.62-6.1,2.08-8.74.51,1.52-9.34,12.04-9.29,18.51-13.92-10.7-2.58-24.82,1.85-33.45,7.3-6.19,3.9-12.85,11.19-8.02,18.68,1.51,2.34,3.77,5.1,6.43,6.19,3.92,1.59,8.34-.44,10.82-3.44,3.73-4.5,5.94-9.58,10.36-11.74,1.13,2.23,3.12,3.18,5.28,1.88ZM537.71,62.23c9.03-1.75,14.68-19.08,9.89-22.68-2.26-1.7-6.5.89-8.5,2.64,4.63,11.05-10.76,9.84-1.39,20.03ZM460.49,50.84l5.22-3.9c-1.76-3.64-10.28,4.75-11.42,6.84,2.56-.18,4.29-1.51,6.21-2.94ZM54.04,91.35c-.7-7.56-1.69-13.99-3.32-20.55-2.13-7.69-7.25-13.5-15.08-15.3l-7.34-1.68c-.4-.09-1.4.16-1.63.46-1.33,1.7,4.32,8.6,5.74,10.26l13.45,15.82c3.06,3.6,5.56,7.36,8.18,10.99ZM409.51,107.4c11.45-3.19,19.15-36.15,31.57-27.14l9-7.91c1.87-1.64,3.75-3.27,5.26-5.2,1.32-1.69.76-4.03-.82-5.24l-3.29-2.52c.75-1.63,1.43-3.16,1.17-4.63-1.69-2.53-12.83,6.45-15.13,7.86-4.93-1.88-9.61-1.62-14.2.59l-9.54,4.59c-.58,2.94-1.38,5.84-2.94,8.31l-5.17,8.2c-1.79,2.84-2.98,6.06-3.08,9.4,2.98-3.05,17.81-19.98,21.24-16.49.33.34.77,1.47.71,2.04-1.02,9.12-9.42,20.59-14.8,28.13ZM500.78,76.1c6.47-2.36,16.14-16.38,14.79-18.41-1.48-2.24-5.04,1.14-6.39,2.7l-5.35,6.17c-2.09,2.41-5.3,10.36-3.05,9.55ZM546.62,62.58c-1.9-.53-8.1,6.94-9.82,8.78,3.47,2.31,11.76-8.24,9.82-8.78ZM1348.23,129.69l4.79-.35c.52-.04,1.73.39,1.95.82,1.81,3.41-6.4,11.14-5.98,14.42,1.43-.64,2.47-1.19,3.44-2.1,6.36-5.86,12.17-12.08,17.46-19.24-2.42-3.87-4.32-7.58-6.06-11.74-2-4.76-6.57-16.86-13.21-12.03l-2.2,1.6c-1.01-4,2.28-4.94,3.55-9.68-4.04-.8-13.2,7.04-17.63,1.97-.79-.9-1.83-3.07-1.06-4.34,3.07-5.08,10.78-4.95,10.29-10.57-11.53-12.08-32.67-23.92-45.78-7.13,3.57,4.74,9.47,2.22,9.29,7.4l-.11,3.26c1.56-.34,2.87-.62,3.85-.46.79.13,1.42,1.8,1.52,2.68l.7,6.55c1.97-.51,2.91-1.91,4.11-3.44,12.41,2.17,7.96,13.99,17.04,13.56l5.18-.25c-2.11,4.91-7.49,9.24-7.73,13.48-.12,2.1,1.98,3.23,3.65,4.3-2.22,4.9-9.61,13.24-4.68,17.86,2.63-7.99,10.37-17.52,17.64-21.88.48-.29,1.98-.4,2.41-.06,2.08,1.67-2.93,10.95-4.03,13.12-.19.37-.22,1.35-.12,1.7s1.22.58,1.72.54ZM343.84,116.05c-3.18,1.03-5.77-1.16-6.83-3.58,8.94-9.67,19.01-5.5,30.4-11.41.18,2.36-1.07,4.68-2.77,6.34l-5.59,5.45c-1.87,1.83-3.29,3.99-4,6.72,1.54,1.81,9.52-6.76,10.54-7.88l13.39-14.63c15.69-.42,27.58-21.1,35.66-33.37-32.35,13.75-62.84,29.84-92.18,48.54-10.41,6.64-20.16,13.51-30.03,21.04,8.59,9.02,23.37-12.24,30.17-1.31,1.74-2.08,10.88-15.21,13.47-12.58s-2.35,14.85-3.37,18.35c5.95-6.92,11.85-13.82,17.4-21.25,1.56-2.09,2.72-4.28,3.5-6.69-5.23-1.32-4.65,4.6-9.77,6.26ZM76.81,77.16c1.11-4.69-1.13-8.63-5.28-10.43-3.84-1.66-7.92-2.09-12.23-2.09-.5,8.69-.08,22.74,10.69,25.17,3.06-3.76,5.67-7.82,6.82-12.65ZM721.54,130l6.69-6.52c.68-.66,2.58-1.82,3.33-1.25,1.28.96,1.3,2.93,1.58,4.77,5.96-6.11,18.42-13.07,26.75-15.34.3-.08,1.38.24,1.29.4s-.33.83-.47.97c-7.72,7.05-8.52,5.1-13.35,8.13-4.34,2.72-12.7,9.93-14.42,14.46-.06.16.82.33,1.02.32l7.34-5.02c8.09.94,14.84-5.65,20.74-11.04,3.62-3.32,12.23-11.69,16.69-6.19l-11.32,6.67c-3.22,1.9-4.82,5.59-3.71,9.16,9.37-7.87,36.54-28.52,44.21-9.6-1.82,2.22-6.74,8.13-5.07,10.47,1.18,1.65,7.51-1.27,8.58-2.77,2.97-4.17,5.42-8.16,8.95-11.83,1.79-1.86,6.24-5.79,8.53-4.33,2.03,1.3-.36,7.16-1.17,8.45l-6.45,10.21c3.85-1.38,13.58-10.15,15.47-3.7-4.22,2.93-8.32,6.33-10.35,11.23-.44,1.06-.18,2.76.87,3.22,1.16.51,3.63.62,4.38-.17,1.43-1.5,6.8-7.77,8.7-5.57,2.61,3.02-2.28,13.23-5.12,16.28,5.68,3.2,9.69-7.39,11.53-11.23,1.1-2.31,1.26-4.31,1.03-6.84-1.01-10.95-5.75-20.58-14.3-27.49-3.48-2.81-10.26-7.64-6.52-12.24l3.88-4.76-6.67,1.72c-.38.1-1.6-.62-1.45-.95,1.79-4.05,11.24-9.47,15.42-11.76,1.35-1.06,1.71-3.87,1.52-5.59-.46-4.06-9.07-.21-11.17.88-8.33,4.35-15.96,9.52-23.03,15.7-.59.51-1.41.81-1.91.63-2.39-.84,3.17-7.12,4.16-8.32,2.82-3.41,9.1-10.63,9.08-14.88-4.87-1.58-9.79-.33-13.73,2.23-2.74,1.78-2.19,4.27-3,6.8-1.52,4.76-11.55,4.53-15.65,4.01-4.44-.56-6.72,2.62-10.02,3.65-4.75,1.49-9.41,2.02-13.35,5.76-3.37,3.2-6.62,6.66-9.76,10.24s-5.99,6.56-10.23,8.68c.86-2.39,4.94-8.36,2.64-10.28-3.06-2.55-9.69,5.14-11.41,8.08-6.4-3.82-9.14,3.24-12.7,3.17-5.32-.1-1.3-9.49-2.96-11.8-3.86-.96-13.36,16.55-15.49,19.84l-20.02-1.9c-3.93-.37-7.82-1.95-11.17-3.39-2.6,2.8-5.17,5.79-9.06,6.24-1.5.17-3.47-.36-4.15-1.33-3.04-4.3,3.52-9.6,7.17-11.55-3.72-.96-7.2-.28-10.57.92-4.34,1.55-8.56,2.75-13.1,3.68-3.39.69-11.96,2.74-12.66,6.31-.15.77.46,2.42,1.04,3.04l4.42,4.81c.42.46.78,1.79.6,2.32-.82,2.49-6.53,2.82-8.98,3.71,5.23,8.84,13.9-7.62,23.82-10.24.65-.17,2.35.45,2.65,1.02s-.26,1.94-.86,2.37l-7.85,5.7c-4.81,3.49-14.36,10.15-10.42,16.99,3.41-4.43,14.22-17.43,19.66-17.03,2.83,2.48-4.81,13.47-6.05,16.48,1.8-.6,3.27-1.82,4.32-3.25l6.29-8.58c1.15-1.57,3.49-2.53,5.17-1.79,1.17.52,3.38,2.27,2.84,3.86-1.45,4.24-6.21,5.99-6.19,10.63,2.84-1.04,5.24-2.8,7.25-5.05l6.17-6.93c1.79-2.01,5.04-4.38,7.76-4.66,6.77,1.49,12.91,1.7,19.78.65-6.09,4.35-11.53,7.83-17.07,12.26-1.54,1.23-6.79,8.44-4.88,8.05,2.83-.59,8.1-3.96,10.52-5.79l29.4-22.18c3.93,1.19,2.76,4.56,4.67,7.93ZM517.68,68.48c.09-.85-1.66-2.06-2.5-2.02s-2.31,1.32-2.58,2.19c1.04,1.65,4.25,1.54,5.08-.17ZM1280.82,70.1c2.2-.79,4.65-1.06,5.37-3.71-5.76.88-10.93,2.99-15.53,6.59,3.57,4.55,6.7-1.63,10.17-2.88ZM1247.99,91.93c4.47-3.83,15.45-12.81,15.55-19.16-6.3,3.64-17.92,10.08-15.55,19.16ZM854.45,92.05c1.01-.75,1.87-2.49,1.63-4.32-.44-3.37-3.36-7.59-7.09-8.36-7.48-1.54-15.69,5.84-14.18,7.55,1.63,1.85,8.2-1.94,10.25-2.7,1.33,3.43,5.33,10.86,9.39,7.83ZM727.42,92.24c3.73.09,6.57-2.78,6.89-6.3-3.09,1.35-7.53,2.6-8.59,5.52-.12.32,1.15.77,1.7.78ZM165.94,167.81c10.21,2.49,28.99,8.1,38.12,6.01-1.62-6.48-11.9-8.99-17.23-9.34l-15.69-1.03c-4.55-.3-9.25-.33-13.61-1.75-7.28-2.38-14.38-4.1-22.2-4.16l-22.43-.19,3.14-5.35c1.2-2.04.24-4.61-1.95-5.46l-7.24-2.81c-2.29-.89-5.12-2.96-5.78-5.49l4.17-11.8c2.53-7.17,7.14-12.96,13.4-17.17l-3.03-2.61,4.47-1.73c3.15-1.22,4.39-6.27,2.36-9.03-1.46-1.98-6.14-1.65-6.85.59-.61,1.94-.67,3.99-1.38,5.82-1.06,2.72-4.52,4.75-7.14,3.15-1.99-1.22-3.88-2.61-6.07-3.32-5.93-1.93-8.74,5.32-9.59,9.89-3.05,16.5.15,42.71,3.39,59.56l24.82,6.86c8.61,2.38,16.9,4.4,25.78,5.31,9.92.79,19.42-.26,28.55-4.07.36-.15,1.13-.95,1.02-1.3-.52-1.69-9.66-2.76-11.83-3.04l-23.83-3.08c-4.67-.6-9.04-1.78-13.41-3.32-3.13-1.1-5.72-4.34-4.96-7.58s14.3-1.01,16.99-.36l28,6.82ZM861.09,99.33c1.17-1.13-.39-4.41-1.96-3.93-4.19,1.28-7.39,5.92-5.92,10.19,2.85-2.1,5.51-3.98,7.88-6.26ZM266.84,112.08c5.09-13.24-59.23-9.96-64.86-9.7,6.79,3.22,13.6,4.35,20.73,4.42l22.06.24c7.79.09,14.99,1.67,22.07,5.04ZM514.93,111c1.38-2.07,3.26-3.06,5.73-3.24.05-1.67.04-4.14-1.59-5.29-3.29-2.34-12.43,13.2-13.19,16.52,2.65-.07,4.83-1.62,6.22-3.73l2.83-4.26ZM1321.17,123.14c4.74-6.87-13.79-9.64-14.51-18.87-2.81.23-13.6.97-14.43,3.61-.59,1.89,5.84,4.78,7.47,5.46l13.42,5.59c2.82,1.17,5.42,2.71,8.05,4.21ZM134.24,134.12c-.86-.41-1.82-1.64-1.95-2.39-.59-3.27,8.74-7.2,11.21-7.4,8.54-.69,17.18-1.91,24.67-6.02.42-.23,1.1-1.16,1.27-1.55,1-2.16-13.82-.7-15.27-.58.13-1.91.25-4.02-.74-5.63-.85-1.39-3.07-1.67-4.62-1.56l-8.21.58c-2.69.19-5.32-1.14-7.18-3.01-2.23,3.5-4.71,6.72-7.69,9.58l-8.85,8.46c-1.94,1.85-3.73,4-5.11,6.25-1.46,2.37-.42,4.89,1.99,6.06,3.18,1.54,6.61,2.02,10.22,2.62,25.09,4.2,49.45,8.73,75.55,7.63-3.86-3.08-21.38-4.9-27.62-5.69-10.47-1.32-28.77-3.17-37.68-7.35ZM538.45,129.16c-.6-9.35-13.23-12.55-17.53-20.63-1.31,5.44-3.2,10.84-5.29,16.4,2.6-.95,4.47-1.89,7.09-1.66.78,2.75-1.74,6.97.08,8.65,2.66,2.45,12.46-1.42,15.65-2.76ZM1596.65,111.65c-.9-.6-1.81-1.06-2.34-.94-.45.1-.94.85-1.36,1.62l3.69-.68ZM1562.35,140.51l7.38-9.6c2.53-3.29,5.25-6.86,9.04-8.68,4.27-2.05,8.8-3.12,12.02-7.15-5.74-1.79-29.5,8.07-31.28,13.42-.97,2.91-1.1,13.06.99,12.87.4-.04,1.56-.49,1.85-.87ZM618.55,128.87l-8.32-.8c-.81-.08-1.87-1.82-1.84-2.6.03-.69.98-1.65,1.82-1.9l7.06-2.15c1.66-.51,3.08-1.92,3.13-3.8-6.79.94-13.32,2.31-19.81,4.58-1.9.66-8.5,3.42-7.81,5.61,1.17,3.73,19.1,2.71,22.9,2.54.78-.04,2.37-1.03,2.87-1.48ZM1721.56,170.52l-4.9,10.42c7.7-4.27,7.17-11.96,15.13-17.07.48-.31,1.91-.45,2.4-.19s.57,1.78.37,2.35c-3.25,9.41-9.6,11.06-6.2,15.05,2.52-2.66,8.42-17.23,12.33-9.7l-3.84,5.16c-.98,1.31-1.44,2.96-1.57,4.64,5.9-1.95,8.26-7.84,6.29-13.67-5.52-16.31-29.74-35.99-44.45-45.26-1.66,1.2-2.74,3.03-2.88,4.77s.9,3.84,2.22,5.09l6.66,6.29c3.63,3.43,4.06,8.4,1.3,12.5-.25.4-.64,1.3-.27,1.28.27-.01,1.56.09,1.71-.14l2.38-3.5c2,1.25,3.25,2.63,4.76,4.86l6.67-2.44c3.71,9.26-16.75,21.57-11.46,27.56,2.96-1.39,11.57-18.01,13.91-16.6,2.05,1.24.51,6.32-.55,8.58ZM1543.75,140.5l3.54-3.84c.86-.93,1.25-2.23.99-3.69-2.06.86-4.1,1.58-5.72,2.86-1.46,1.17.32,4,1.19,4.66ZM1702.11,139.85c.22-.13-.82.51-1.19.73-.15.09.66.67.71.52l.47-1.25ZM1699.52,145.53l.45-3.39c-.69.2-1.62,1.07-1.48,1.57.13.46.52,1.1,1.03,1.82ZM1560.55,147.07c-1.06-1-3.16-2.04-4.63-1.85-4.75.59-6.42,8.11-5.42,12.08,5.81-.79,6.5-6.08,10.05-10.23ZM1228.03,177.24c2.05-1.58,3.56-2.99,5.12-4.93.47-.58-.25-2.4-1.01-2.54-6.38-1.23-10.38-.67-15.14-2.39-2.12-.77-3.27-3.56-1.94-4.99,35.75,9.25-8.39-19.77-29.54,9.03-1.27,1.73-2.11,4.51-2.32,6.71,1.3,3.18,12.25-9.76,13.27-10.96.35-.41,1.7-.62,1.96-.23,1.5,2.25-.7,7.14,3.59,10.51.61.48,2.42.51,3.16.17,7.39-3.3,14.93-3.31,22.86-.38ZM1168.67,181.5c-1.8-.35-3.01.48-4.17,1.7l-6.4,6.69c-.34.36-.31,1.61.05,1.92,2.19,1.86,9.79-7.78,10.52-10.31ZM1216.84,190.48c2.13-2.47,2.76-5.13,1.77-7.87-.28-.76-2.34-.75-3.1-.22-1.94,1.33-.69,6.83,1.34,8.1ZM1725.97,182.65l-.43,1c-.08.19.72.12.81-.06l.44-.9c.06-.12-.76-.16-.81-.03ZM1203.77,193.82c-1.38-3.23-3.91-5.33-6.48-6.8.15,2.52.02,5.12.82,7.25.69,1.83,5.15,1.3,5.66-.45ZM1190.8,195.82l-.17-8.14c-1.5,1.83-3.9,9.66-1.11,9.5.43-.02,1.28-.86,1.27-1.36ZM1215.37,191.19c-2.23-1.83-9.77-1.87-9.51.54.22,2.07,9.87,2.13,9.51-.54ZM1163.31,216.64c6.45-4.51,10.2-10.67,12.68-17.34.03-1.34-.21-2.83-1.49-3.14-4.39,3.79-11.77,14.7-11.19,20.48ZM1744.36,227.48l-9.56,12.09c4.76,4.09,10.97,2.91,14.47-2.2,5.19-7.57,5.88-17.57,2.64-26.25-.84-2.26-2.57-3.35-4.79-3.67-1.91-.28-3.99,1.19-4.96,3.17l-3.99,8.11c-1.07,2.17-2.72,3.7-4.63,5.45l9.76.17c.5,0,1.9.49,1.92.99s-.4,1.56-.86,2.14ZM1159.09,214.42c-1.27-.56-2.8-.81-3.79-.54-.83.22-1.98,2.15-1.33,2.78,1.72,1.67,4.57.27,5.11-2.24ZM1758.02,261.54c5.13-2.28,7.04-7.88,4.82-13.02l-5.38-12.46c-11.12,1.42-24.41,17.61-22.26,28.44,4.86-1.98,8.15-5.07,11.61-8.39,2.35-2.25,7.77-8.22,10.24-7.18s1.03,9.92.97,12.62ZM1764.39,268.11c1.75-.87,4.4-.89,4.54-3.29.13-2.14-1.2-4.57-2.56-6.37-2.62,1.04-10.9,11.37-8.76,12.15.33.12,1.5.14,1.86-.04l4.92-2.45Z" fill="#0E0B09" />
</svg>
