<?xml version="1.0" encoding="UTF-8"?>
<svg id="Capa_2" data-name="Capa 2" xmlns="http://www.w3.org/2000/svg" viewBox="0 0 398.8 478.73">
  <defs>
    <style>
      .cls-1 {
        stroke: #000;
        stroke-miterlimit: 10;
        stroke-width: .25px;
      }

      .cls-1, .cls-2 {
        fill: #1d170c;
      }
    </style>
  </defs>
  <g id="Capa_1-2" data-name="Capa 1">
    <g>
      <path class="cls-2" d="M358.83,58.53s.04,0,.07-.01c0-.02.02-.04.02-.06l-.09.07Z"/>
      <path class="cls-2" d="M335.4,313s-.04-.02-.05-.03c0,.03,0,.06,0,.08l.06-.06Z"/>
      <path class="cls-2" d="M333.34,312.03s0-.02.01-.02c-.02,0-.04-.02-.06-.03l.04.05Z"/>
      <path class="cls-2" d="M318.03,311.97s-.05-.05-.08-.07c0,.05,0,.1,0,.15l.08-.07Z"/>
      <path class="cls-2" d="M337.38,306.86s0,.05,0,.07c.02,0,.04,0,.06,0l-.06-.07Z"/>
      <path class="cls-2" d="M347.65,281.33s-.01,0-.02-.01c0,.01,0,.03,0,.04l.03-.03Z"/>
      <path class="cls-2" d="M125.8,172s0,0,0,0c.03-.03.05-.05.08-.08l-.09.08Z"/>
      <path class="cls-2" d="M168.82,108.53s-.03,0-.05,0c-.02.03-.03.06-.05.08l.1-.08Z"/>
      <path class="cls-2" d="M133.42,226.94s-.01.02-.02.02c.04-.02.04-.02.02-.02Z"/>
      <path class="cls-1" d="M396.78,26.11c-1.24-.47-2.33-.87-3.32-1.24-1.96,1.21-3.81,2.35-5.7,3.51-.2,1.12-.41,2.27-.63,3.5-.59.36-1.13.69-1.68,1.03-.12-.61-.24-1.22-.34-1.72-1.5-.35-1.98.73-2.75,1.31-.93.7-1.88,1.37-2.83,2.05-1.08,2.36-2.64,4.52-3.38,7.38.86.1,1.46.17,2.05.24-.93,1.98-2.7,3.2-4.26,4.59-.41.37-1.15.36-1.76.51-.09.6-.47.9-1.04,1.03-.62,1.41-1.6,2.46-3.04,3.04-.04.16-.06.35-.16.43-1.31,1.03-2.68,1.99-3.94,3.07-1.15.99-2.13,2.18-3.3,3.15-.45.37-1.19.38-1.82.53-.4,1.45-1.93,1.67-2.82,2.57-.93.94-1.7,2.04-2.57,3.04-.21.24-.6.3-.85.51-1.04.84-2.21,1.59-3.05,2.6-1.87,2.23-4.39,3.6-6.65,5.32-.33.25-.93.17-1.41.22.16-1.11,1.04-1.81,1.85-2.23,2.48-1.28,4.19-3.4,6.2-5.19,1.13-1.01,2.33-1.95,3.47-2.94.24-.21.42-.51.68-.84.06-1.1.12-2.28.18-3.3.93-1.41,1.71-2.73,2.63-3.93.88-1.17,1.79-2.28,2.04-4.15-2.3.62-3.64,2.21-5.3,3.22-1,.61-1.81,1.52-2.46,2.08-.09,1.46-.16,2.46-.18,2.8-1.28,2.32-2.24,4.09-3.23,5.84-.58,1.02-1.13,2.07-1.84,3-.43.57-1.14.68-1.78-.13.07-.39.07-.91.27-1.32.97-1.97,1.86-3.98,3.36-5.64.21-.23-.02-.87-.06-1.49-1.21.71-2.23,1.31-3.1,1.82-.82,1.5-1.55,2.82-2.25,4.09-2.4.23-4.3,1.23-5.78,2.97-.87,1.03-1.67,2.12-2.4,3.25-1.19,1.83-2.14,3.84-3.5,5.53-1.42,1.77-1.76,3.98-2.86,5.84-.45.75-1.2,1.21-2.11.29.31-3.06,2.82-5.14,4.06-8.18-2.56.32-3.86,1.77-4.8,2.86-1.89,5.06-4.06,9.42-6.66,13.56-.35.56-1.07.79-1.62.11.77-2.64,1.71-5.15,3.56-7.22.18-.2-.12-.82-.22-1.36-1.06.58-1.95,1.06-2.84,1.54-.56.9-1.01,1.83-1.64,2.6-1.81,2.24-3.08,4.76-4.19,7.4-.7,1.68-1.23,3.53-3.04,4.66-.36-.28-.71-.55-1.14-.88,1.01-1.68,2.04-3.21,2.86-4.85.32-.63.56-1.59-.62-2.2-.56.56-1.18,1.13-1.74,1.75-2.76,3.02-6.03,5.47-9.26,7.89-3.25,2.44-6.08,5.34-9.36,7.71-.2.15-.26.49-.36.78-.28-.15-.68-.25-.75-.47-.46-1.43-.83-2.88-1.19-4.17.35-1.3.65-2.42.95-3.56-1.04-.8-1.95-1.5-2.71-2.08-.9-3.83-1.75-7.44-1.44-11.19.03-.34.09-.76-.07-1.01-1.44-2.17-.73-4.61-.91-6.94-.09-1.18.26-2.58-.25-3.52-.99-1.81-.83-3.65-.72-5.47.2-3.26-.9-6.24-1.47-9.82-1.03,2.07-.98,3.97-.41,5.37.89,2.18.63,4.33.78,6.5.08,1.19-.3,2.56.17,3.54,1.26,2.62.61,5.33.9,7.99.38,3.51,1.26,6.97,1.09,10.54-.01.31.26.62.35.94.52,1.93.76,4.01,1.61,5.78,1.03,2.13.77,4.3,1,6.46.02.17.07.33.08.37.36.67.66,1.24.95,1.79-1.14.99-2.05,1.97-3.8,1.84-.08-.77-.23-1.58-.23-2.39-.03-2.21.02-4.43-.01-6.64,0-.25-.34-.5-.52-.74-1.21.49-2.42.97-3.55,1.42-.33,2.73.22,5.33-.97,7.62.32.86.6,1.61.94,2.52-1.24.41-2.12.42-3.13-.09-3.51-1.75-7.1-3.22-11.47-2.33-1.1.51-2.48,1.14-4,1.84-1.39,0-2.92.07-4.45-.02-1.65-.1-3.1-1.55-4.89-.75-1.81.87-3.63,1.74-5.43,2.6-3.01-1.82-6.22-2.76-9.82-3.16-1.56-2.12-3.33-4.2-4.7-6.52-.71-1.21-1.51-2.27-2.55-3.1-1.97-1.57-4.05-3.01-5.86-4.34-1.25-.09-2.03.04-1.88,1.51.44.26,1.01.57,1.55.93,2.98,1.96,5.61,4.2,7.65,7.26,1.55,2.33,2.78,5.13,5.93,6.6,1.91.27,4.46-.21,6.17,2.07-.05.78-.09,1.62-.17,2.46-.01.12-.24.23-.66.59h-5.39c-1.12.79-1.89,1.34-2.68,1.9-.47-.56-.79-.94-1.12-1.33.6-.34,1.15-.65,1.97-1.1-1.27-.84-2.36-1.57-3.46-2.3-2.27-1.82-.75-5.42-3.42-7.29-.32,1.03-.58,1.89-.83,2.7-.69-.28-1.3-.53-1.67-.68-1.61.77-2.96,1.42-4.36,2.1-1.18-1.72.46-2.56.71-3.37,1.38-1.21,2.52-2.2,3.67-3.2-.93-1.17-1.7-2.3-3.26-2.67-.75.6-1.52,1.22-2.33,1.87-1.45.16-2.95.69-4.3-.3-.37-2.06,1.78-2.1,2.3-3-.99-1.29-1.92-2.51-2.77-3.63-2.27,1.06-2.27,1.04-4.58.57-.08-.31-.16-.63-.26-.99,1.04-1.94,3.53-1.85,4.92-3.46.16-2.36.94-4.52,2.64-6.36.79-.84,1.3-1.94,1.92-2.94.59-.94,1.22-1.87,1.31-3.09-2.03.01-3.21,1.5-4.84,1.84-.82-.02-1.77.16-1.73-1.36,1.18-.69,2.46-1.44,3.81-2.23.38-2.24,2.63-2.21,4.06-2.98.02-1.05.37-1.98-.78-2.37-2.82.69-5.08,2.49-7.14,3.88-1.24.03-2.1.34-2.97-.4,1.19-2.03,3.83-1.95,4.98-3.25,1.03-1.43,1.89-2.48,2.57-3.63.3-.51.3-1.19.4-1.81,2.4,1.36,4.08,3.37,5.39,5.76,1.38,2.51,2.84,4.98,4.32,7.43.22.37.72.58,1.1.87.68-.84.59-1.67.16-2.44-2.63-4.71-4.85-9.69-9.08-13.32-1.02-.88-1.86-1.97-2.79-2.96,2.13-1.77,4.02-3.78,6.29-5.15,3.5-2.1,6.16-5.14,9.29-7.63,2.78-2.21,5.33-4.73,8.24-6.74,1.85-1.27,3.22-3.02,5.02-4.26,1.97-1.36,3.41-3.15,5.01-4.87,2.44-2.61,4.87-5.21,6.86-8.17,2.22-3.3,5.44-6.09,5.68-10.57-.89-4.07-4.85-4.57-7.59-6.22-2.61-.31-4.93-.28-7.29-.88-2.38-.6-5.13-.42-7.57.1-1.68.36-3.32.6-4.99.62-4.23.07-8.33,1.47-12.6,1.17-.32-.02-.65.16-.97.23-4.92,1.05-9.78,2.37-14.82,2.78-.81.07-1.59.57-2.4.67-1.85.24-3.49,1.16-5.35,1.48-1.73.3-3.59.74-5.1,2.01-1.16.97-10.2,3.77-11.87,3.95-.33.04-.67-.09-1.14-.16-1.76-2.35-3.28-4.89-3.72-7.96-.16-.04-.35-.07-.38-.16-.85-2.37-1.7-4.73-3.44-6.63-1.33-3.68-4.23-6.05-6.64-8.2-4.32-1.28-7.75.36-11.17,1.61-.05-.06-.47.1-.65.23-.51.38-1.1.59-1.68.85-.66.3-1.32.61-2,.89-.25.1-.84.43-.87.51-.81.85-1.89,1.51-3.36,1.55-.02-.03-.83.26-1.14.55-.3.28-.58.59-.88.88-.32.3-.67.6-1.05.82-.63.56-1.3,1.17-2.03,1.83-.64.03-2.09.19-2.18.24-.17.1-3.85,2.72-3.93,2.76-.35.16-.7.31-1.05.46l-4.39,3.67c-.15.33-.34.63-.64.83-.25.16-.54.23-.83.29-.43.09-.85.21-1.27.35-.45.14-.9.28-1.31.52-.4.23-.75.52-1.1.82-.34.29-.67.59-1.03.85-.18.13-.35.25-.53.37,0,.03.01.05.02.08-4.56,4.31-10.1,7.12-15.68,9.64-.05.53-.07.85-.1,1.18.27.18.53.43.83.52.31.09.67.02.75.02,3.14-1.7,6.09-3.31,9.07-4.87.39-.2.91-.15,1.39-.18-.12.28-.2.62-.41.79-2.49,2-5.02,3.96-7.52,5.95-.09.07-.03.33-.04.66.68,1.29,2.45.54,3.38,1.5,1.39-.72,2.79-1.25,4.43-.25-1.06.58-2.06,1.12-3.59,1.96-.57.4-.52,2.26-2.59,2.43-.7-.48-1.6-1.23-2.62-1.75-.87-.44-1.87-.62-2.74-.9-.31-1.16-.56-2.1-.81-3.05-.64-.09-1.12-.16-1.85-.26-.91.79-1.9,1.67-2.99,2.62.72,1.65,1.38,3.18,2.06,4.73-1.4,4.49-1.03,9.08-1.01,13.64,0,2.02,0,4.04,0,6.2-.92.28-1.7.51-2.48.75-1.69,2.34-3.62,4.38-6.07,6.01-4.24,2.84-7.8,6.51-11.43,10.07-3.27,3.2-6.43,6.49-10.14,9.24-2.84,2.11-5.27,4.74-7.96,7.07-2.51,2.18-4.57,4.89-6.73,7.46-1.62,1.93-3.08,4.01-4.47,5.84-1.99,3.15-3.87,6.14-5.91,9.36.7,2.68,1.47,5.58,2.19,8.3,2.91,4.41,7.17,5.73,11.9,5.87,2.34.07,4.75.43,7-.77.55-.29,1.33-.18,2-.21,2.18-.1,4.39.22,6.48-.87.68-.36,1.68-.22,2.52-.16,2.77.19,5.27-.8,7.87-1.53,4.56-1.28,8.66-3.68,13.13-5.12.22-.07,16.35-6.47,16.67-6.56,1.46,3.35,3.27,5.97,5.91,8.66,1.18,1.2,2.59,2.23,3.19,3.92.11.3.37.59.64.79,2.33,1.68,4.34,3.69,6.03,6.01,2.73,1.18,4.08,3.92,6.35,5.62.4.3.73.72,1,1.14.73,1.11,1.41,2.25,2.21,3.55-.61.45-1.12.82-1.69,1.25-.62,1.21-.25,2.61-.42,3.93-.17,1.33.09,2.66-.48,4-.49,1.14-.57,2.45-.88,3.89-.56-.53-.92-.87-1.36-1.28-.61-3.11.13-6.36-.42-9.95-.79.66-1.26,1.04-1.56,1.29-.98,3.67.87,6.87.72,10.41.74.77,1.54,1.61,2.38,2.48.52-.41.91-.71,1.15-.91.95-1.15.15-2.65,1.36-4.23.06,2.11-.02,3.64.19,5.12.21,1.47.72,2.89,1.13,4.43-.43.54-.84,1.05-1.34,1.67h-6.34c-.31-.24-.83-.65-1.54-1.2.05-2.62-.57-5.23-1.01-7.87-.42-2.48-.2-5.07-.26-7.72-.47-.38-.93-.75-1.75-1.41-.25,2.45.02,4.49-.2,6.49-.23,2.13,1.2,3.93.99,5.95-.21,2.1.83,3.9,1.29,5.98-.78.53-1.39,1.16-2.12,1.4-2.05.68-3.98,1.86-6.26,1.7-1.46,1.49-3.04,2.83-3.06,5.27-.02,2.28-1.83,3.94-2.64,6.29-1.06.71-2.37,1.49-3.56,2.42-1.2.94-2.27,2.03-3.43,3.1l.09-1.31c-.28.3-.54.61-.82.92-1.81,1.98-3.56,4-5.37,5.98-3.09,3.38-6.38,6.58-9.7,9.73-1.69,1.61-3.39,3.21-5.08,4.82-1.47,1.41-2.97,2.79-4.24,4.4-3.37,4.27-5.36,9.34-7.23,14.43l-2,9.46c-2.89,3.75-4.71,8.27-6.38,12.86-.68,1.88-1.2,3.83-1.69,5.77-.16.64-.16,1.38,0,2.02.99,4.08,1.26,8.31,2.32,12.34.59,2.21.63,4.34.64,6.51,0,2,.25,3.98-.65,5.99-.58,1.29-.21,3-.39,4.51-.04.36-.62.65-.95.97-.01,1.7-.03,3.4-.03,5.1,0,1.36-.37,2.6-.81,3.92-1.64,4.92-2.54,10.06-4.18,15-1.16,3.48-1.65,7.2-3.89,10.27-1.5,5.22-4.92,9.59-6.55,14.75-.2.62-.7,1.13-1.03,1.71-.6,1.02-1.26,2.01-1.74,3.08-.54,1.22-.71,2.65-1.41,3.74-.69,1.07-1.86,1.84-2.7,2.62-.06.37-.16.57-.1.7,1.86,4.1,2.22,8.43,1.99,12.86-.07,1.35.03,2.72.15,4.07.04.48.39.93.69,1.58-.71,1.01-1.39,2.18-2.27,3.19-1.22,1.41-2.58,2.7-3.88,4.05-1.76,1.83-3.45,3.67-4.92,5.78-1.44,2.06-3.39,3.77-4.32,6.2-2.93,2.72-4.33,6.47-6.18,9.83-2.08,3.78-3.27,8.06-4.72,12.17-.55,1.57-.9,3.25-1.07,4.9-.47,4.52-1.6,8.99-1.14,13.59.19,1.84.24,3.66.68,5.51.55,2.27.35,4.71.43,7.08.05,1.34,0,2.68,0,4.09-2.03-.91-5.12-3.11-5.97-4.19-2.63-3.35-3.53-4.08-7.33-5.92-2.9-3.37-7.43-5.19-9.62-9.38-.53.57-1.07,1.14-1.6,1.7v2.04c.16.06.42.08.46.19.81,1.91.74,3.84,0,5.76-.04.11-.3.13-.46.19v4.09c.32.34.78.62.93,1.02.33.87-.43,2,.65,2.74.81-1.26.31-2.65.41-3.97.11-1.52-.02-3.06.06-4.59.07-1.33-.34-2.71.37-4.22,1.8,1.29,3.52,2.54,5.03,3.63,2.28,6.43,4.1,12.71,7.43,18.75.22-.82.55-1.34.44-1.74-.41-1.45-.94-2.86-1.46-4.27-1.11-2.98-2.24-5.95-3.34-8.94-.02-.07.22-.23.49-.51,1.85.84,3.22,2.24,4.22,4.05.57,1.03,1.27,2.05,1.56,3.17.82,3.12,2.54,5.84,3.69,8.81.9,2.33,2.38,4.43,3.53,6.67.28.55.33,1.22.46,1.84-3.27-1.06-5.19-3.43-6.37-6.84-1.37-.19-2.83-.39-4.05-.56-4.04-3.02-7.91-5.91-11.88-8.87-.72.32-1.46.65-2.19.98v1.02c1.79.92,3.62,1.79,5.37,2.78,1.17.66,2.27,1.46,3.33,2.28,2.13,1.65,4.22,3.37,6.33,5.06.78.62,1.64,1.16,2.38,1.82,2.62,2.36,5.21,4.75,7.97,7.28-.15.46-.36,1.08-.66,2.01l7.35.41c-.39-.47-.78-.94-1.19-1.4-1.35-1.5-1.87-3.6-3.62-4.81-.37-.25-.52-.84-.72-1.29-1.14-2.6-1.84-5.43-3.8-7.62-.66-3.19-2.71-5.76-3.85-8.74-.07-.18.16-.48.33-.94,2.43,1.4,3.94,3.71,6.08,5.5,1.54,7.15,4.73,13.53,8.87,19.43l1.91.11c-3.48-4.93-5.76-10.52-8.42-15.85.3-.33.5-.56.85-.95,2.37,1.32,3.85,3.65,5.72,5.11,1.37,4.1,2.67,7.97,3.95,11.81l1.81.1c-.13-.51-.23-1.04-.29-1.6-.12-1.27-1.11-2.44-1.6-3.69-.23-.58-.19-1.26-.29-2.08,2.56,1.56,6.23,4.78,6.99,6.47.19.41.44.8.67,1.2l25.23,9.18s-12.77-44.32,49.72-77.92c1.95-1.05,3.02-3.37,4.88-4.45,2.92-1.69,5.83-3.39,8.78-5.04,1.16-.65,2.66-.76,3.73-1.5,1.97-1.37,4.27-.87,6.38-1.43,5.01-1.33,10.02-2.99,15.35-2.61.67.05,1.45.14,2.02-.13,2.26-1.08,4.67-.68,7.02-.83,1.02-.07,2.17.22,3.04-.16,2.46-1.08,5.01-.65,7.52-.81,1.19-.08,2.49.18,3.55-.23,2.97-1.15,6.02-.69,9.05-.78,2.55-.08,5.11-.06,7.66-.12.84-.02,1.8.07,2.49-.29,1.46-.76,2.98-.71,4.48-.67,2.07.06,4-.46,5.95-1.04,2.4-.73,4.83-1.39,7.26-2.02,1.66-.43,8.67-3.4,10.12-4.36.42-.27.86-.51,1.29-.76h3.62c2.34-.87,4.27-1.48,6.11-2.3,1.69-.75,3.3-1.71,4.91-2.62,1.02-.58,1.98-1.27,3-1.86,2.04-1.18,4.16-2.23,6.13-3.52,2.67-1.76,5.33-3.57,7.81-5.59,2.09-1.71,3.7-3.96,6.21-5.2.58-.29,1.06-.87,1.45-1.42,3.08-4.22,6.06-8.52,8.31-13.25,1.73-3.65,3.32-7.37,4.97-11.07.21-.46.45-.92.56-1.4,1.15-5.07,2.12-10.18,4.05-15.04.12-.3.06-.68.13-1.01.45-2.31.69-4.68,1.41-6.9,1.39-4.24,1.99-8.53,1.55-12.97-.55-.79-1.11-1.58-1.62-2.3.99-1.52,2.3-1.62,3.87-1.42,1.23.6,2.59,1.27,3.76,1.85,1.37.14,2.67-.01,3.7.44,1.31.57,2.6.7,3.95.77,1.15.06,2.31.08,3.75.12-.39,2.47-.42,4.84-1.19,6.95-.85,2.34-1.03,4.56-.73,6.57.98,1.48,2.02,1.83,3.34,1.46.86-.55,1.66-1.2,1.63-2.37-.01-.41-.24-.82-.48-1.59-.79,1.1-1.38,1.9-2.05,2.83-.48-.88-.94-1.72-1.37-2.51.94-3.67,2.42-7.13,1.94-10.78,1.07-1.26,1.67-2.86,3.66-2.53.47.94.92,1.84,1.39,2.79,0,1.85.05,3.73-.01,5.6-.07,2.05.06,4.04,1.01,5.91-.53,3.43,1.22,6.59,1.2,9.97,0,.3.52.61.87.91-.07-2.29.43-4.64-.85-6.82-.3-.52-.09-1.34-.12-2.01-.13-2.52.1-5.02-.81-7.52-.49-1.36-.08-3.03-.13-4.56-.05-1.68.17-3.41-.77-5.01,1.07-2.14,3.1-2.79,5.28-3.59.22.74.47,1.21.47,1.67.02,3.74-.07,7.49.01,11.23.05,2.18-.39,4.46.58,6.53.88,1.87-.06,4.06,1.33,5.88.51.66.23,1.92.38,3.73,1.1-2.12,1.06-3.7.52-4.89-.67-1.5-.59-2.95-.72-4.45-.21-2.5.33-5.08-.88-7.5-.28-.55-.11-1.34-.11-2.02,0-3.22,0-6.44,0-9.77.87-.82,1.73-1.62,2.5-2.35.49.11.81.18,1.13.25.12.12.33.25.33.37.02,6.97.01,13.94.01,20.91.49.59.91,1.09,1.36,1.62.31-.31.66-.5.67-.71.04-1.02.24-2.13-.08-3.04-1.61-4.65-.57-9.42-.68-14.12-.05-1.95.78-3.92,1.31-6.33.37-.39,1.06-1.12,1.76-1.86.35.33.71.5.74.71.31,2.15-.05,4.36.97,6.46.5,1.05.1,2.35-.72,3.37-.03,1.44,1.6,2.76.47,4.27-.84,1.11.95,2.06-.02,3.28-.55.7-.57,1.9-.63,2.89-.06,1.18.09,2.37.16,3.67,2.02,2.4,1.68,5.61,2.49,8.48.1.36-.35.89-.56,1.34.66.32,1.33.64,1.99.96.05-.78.11-1.56.17-2.43.56-.72,1.23-1.43,1.73-2.25.21-.35.12-.9.14-1.37-.93-.03-1.46,1.6-2.85.45-.09-1.45-.04-3.15-.35-4.79-.33-1.8-.99-3.55-1.4-4.94.18-1.47.44-2.61.45-3.76.07-4.93.06-9.86.09-14.8,0-.82-.22-1.7.56-2.51,3.35-1.09,6.81-2.22,10.31-3.35.54.48.91.82,1.24,1.12.07,1.22,0,2.26.21,3.23.31,1.4.45,2.96,1.98,3.74.87-3.05-1.59-5.83-.96-8.49.97-1.54,2.02-1.89,3.36-1.62,1.35,1.78.94,4.61,3.37,5.96.2-.57.36-1.03.55-1.55-.73-1.5-1.47-2.99-2.14-4.36.3-1.31,1.05-1.9,2.15-2.07,2.47-.39,4.32-1.78,5.97-3.57,2.07-2.23,4.12-4.42,5.95-6.89,1.71-2.3,3.28-4.67,4.91-7.02,2.02-2.9,3.91-5.9,6.14-8.68,1.61-2.02,3.18-3.89,5.42-5.16.28-.16.48-.47.75-.76.45-1.01.93-2.08,1.44-3.21,0-2.21-.27-4.46.08-6.62.36-2.25,1.71-4.3,1.78-6.67-2.14-.25-3.13,1.2-4.3,2.3-1.32,1.24-2.51,2.71-4.56,2.76-.57-1.02.17-1.76.83-2.05,2.13-.93,3.45-2.64,4.63-4.28.79-.54,1.86-.07,2.34-1.31-.2-.45-.47-1.04-.7-1.56.17-.47.33-.9.48-1.31-.5-.41-.87-.71-1.23-1-.36.2-.66.36-.96.53-.44-.22-.88-.44-1.61-.8-2.11.91-4.56,1.65-6.67,2.94-3.3,2.01-6.87,3.55-10.02,5.84-.64.46-1.47,1.38-2.74.78.31-.46.47-1,.83-1.21,4.05-2.42,7.97-5.04,11.76-7.86,1.21-.9,2.62-1.53,4.2-1.65.19-.01.35-.5.52-.76q-1.09-1.78-3-3.11c-4.62,2.56-8.88,5.85-14.25,7.87.27-.73.3-1.31.6-1.53,2.74-1.95,5.56-3.78,8.27-5.77,1.33-.98,2.7-2.01,3.44-3.49-.49-1.56-1.57-2.31-2.78-3.07-.52.45-.98,1.18-1.55,1.28-2.14.36-3.62,1.67-5.11,3.06-.33.31-.92.45-1.4.47-.39.02-.78-.26-1.2-.41.38-.78.68-1.38.93-1.89,2.31-1.44,4.54-2.83,6.83-4.26-.96-1.42-1.13-3.14-3.23-3.73-.65.28-1.58.62-2.46,1.06-2.26,1.13-4.59,2.07-6.98,2.87-.38.13-.89-.17-1.68-.34.49-.74.71-1.46,1.2-1.76,2.13-1.35,4.34-2.58,6.5-3.88.25-.15.35-.53.52-.8-.02-1.2-.77-1.79-1.66-2.11-1.95-.45-3.62.35-4.87,1.32-2.2,1.7-4.91,2.16-7.22,3.53-.63.37-1.58.19-2.4.24.34-.53.6-1.16,1.07-1.54.91-.73,1.92-1.34,2.94-1.91,2.59-1.46,5.2-2.87,7.81-4.31q-1.28-2.48-3.99-4.54c-3.05,2.84-6.82,4.52-10.88,5.68-.95.27-1.78.95-2.71,1.33-.41.17-.92.12-1.39.15.36-.51.65-1.11,1.12-1.48,1.45-1.13,2.98-2.15,4.78-3.42.28-.06.94-.2,1.73-.38.9-.82,1.89-1.73,2.01-1.84,1.73-1.36,3.57-.45,3.43-2.73-2.43-2-5.03-4.12-7.75-6.36-.69-.04-1.5-.09-2.32-.13-.81-2.34-3.48-2.39-4.92-3.95-3.71-.82-6.73-2.99-9.91-4.89-1.69-1.01-3.39-2.28-5.64-2.37-2.59,1.4-5.09,3.13-8.02,3.94-.23.06-.56-.23-.9-.39.41-.74.81-1.47,1.15-2.11,3-1.1,4.39-2.05,5.65-3.77-1.57-2-3.13-3.98-4.7-5.95-.7-.87-1.62-1.19-2.69-.97-1.96.99-2.72,3.52-5.3,4.08-.53-1.13-1.01-2.15-1.46-3.1,1.69-1.72,3.69-1.99,5.77-2.16-.48-1.42-.89-2.63-1.27-3.75-2.44-.36-4.25.16-5.66,1.95-.84,1.06-1.95,1.8-3.4,1.78-.19-.29-.49-.55-.52-.84-.05-.48.07-.97.13-1.52,1.97-1.04,3.89-2.06,5.9-3.12-.04-.73-.08-1.37-.12-2.06-1.63.13-3.03,1.17-4.48.21-.86-1.15-.25-2.2.31-3.44-1.47-.98-1.64-3.16-3.11-3.88-3.57,2.69-7.18,4.83-10.64,7.64,0-.72-.19-1.35.03-1.61,1.11-1.28,2.32-2.47,3.51-3.69.71-.73,1.47-1.42,2.14-2.19.76-.86,1.99-1.38,2.1-2.92-.9-1.22-1.88-2.55-2.83-3.83h-2.46c-2.25,1.55-3.66,3.79-5.67,4.97-1.57-.43-1.14-1.36-1.09-2.31,1.53-1.67,3.13-3.42,4.73-5.16.4-2.88,1.78-5.09,4.23-6.65.7-.44,1.56-.96,1.85-1.65.63-1.5,1.91-2.36,2.91-3.5.79-.89,1.85-1.65,2.33-2.68.91-1.95,2.47-3.25,3.99-4.55,4.33-3.72,8.78-7.3,13.23-10.98.73-.16,1.54-.34,2.3-.51.72-1.13,1.36-2.11,2.15-3.35,3-.9,5.34-3.08,7.56-5.45.58-.62,1.16-1.33,1.89-1.69,2.03-1.02,3.43-2.73,5.06-4.21,1.62-1.47,3.58-2.6,5.06-4.19,1.89-2.02,4.25-3.35,6.35-5.04.52-.42,1.24-.58,1.73-1.02,3.31-2.9,6.62-5.8,9.85-8.78,1.63-1.51,3.31-2.9,5.38-3.76.3-.12.54-.38.74-.53.55-1.13,1.06-2.19,1.62-3.35,2.61-2.52,5.04-5.34,8.21-7.42,1.68-1.1,2.97-2.78,4.41-4.23,1.41-1.41,3.19-2.41,4.34-4.14.53-.79,1.53-1.29,2.38-1.83,3.12-2.01,5.5-4.86,8.33-7.2.87-.72,1.38-1.88,2-2.88.26-.41.38-.9.56-1.35-.66-1.25-1.29-2.44-1.88-3.55ZM60.6,129.58c1.01-.73,1.78-.54,2.63-.21-.86.96-1.63.53-2.63.21ZM25.45,461.71c-.71.61-.64-.03-.75-.4.25.13.5.27.75.4ZM279.23,104.06c1.05,1.21,1.48,1.7,1.97,2.27-.25.98-.48,1.94-.83,3.32.31,1.14,1.22,2.66.61,4.54-.31.09-.75.21-1.16.32-.24-.35-.57-.62-.58-.89-.04-2.84-.02-5.68-.02-9.56ZM271.32,113.8c2.35.82,4.7,1.69,6.95,2.75,1.63.77,3.1,1.86,4.66,2.82-1.95.94-3.85.29-5.25-.79-2.08-1.6-4.4-2.31-6.81-3-.27-.08-.47-.41-.7-.63-.11-.88.46-1.39,1.15-1.15ZM262.08,113.83q.99,1.59.98,2.81c-1.24-.24-2.03-.9-2.15-2.35.38-.15.78-.3,1.17-.45ZM252.83,113.98c2.55.64,5.15,1.45,7.16,3.49,1.03,1.04,2.51,1.62,3.61,2.3,1.61.09,2.96.16,4.48.24.98.64,2.09,1.37,3.67,2.41,1.57,1.68,1.08,4.59,2.31,7.13-.68.1-1.12.16-1.75.25-.12-.75-.22-1.39-.34-2.13-1.51-1.15-3.1-2.35-4.74-3.6-.93-.11-1.93-.23-3.43-.42-.8-1.06-1.82-2.42-2.69-3.56-1.47-.2-2.46-.33-3.43-.46-1.16-.59-2.27-1.49-3.51-1.72-1.49-.28-2.06-1.72-3.43-2.1-1.33.48-2.66,1.23-4.2.93,1.39-2.55,3.77-3.39,6.31-2.75ZM246.37,116.79c-.72,1.44-1.75,2.29-3.92,1.69,1.42-.89,2.49-1.67,3.92-1.69ZM234.44,121.46c.29-.18.57-.49.85-.5,3.73-.03,7.46-.02,11.37-.02,2.76,1.98,5.6,4.05,8.48,6.06,2.22,1.54,4.59,2.81,7.24,3.44,1.77,1.35,3.14,2.84,3.82,5.15.49,1.67,2.3,2.88,2.56,5.13-.39.46-.92,1.06-1.34,1.55-1.77-.05-1.54-1.27-1.72-2.21-.22-.24-.42-.52-.68-.71-.8-.61-1.75-1.08-2.42-1.81-.78-.85-1.25-1.98-2-2.86-.62-.73-1.78-.77-2.2-1.95-.19-.51-1.4-.65-2.52-1.12-.13-.48-.33-1.25-.54-2.03-.52-.9-1.56-.42-2.26-.85-.39-.54-.78-1.07-1.25-1.72h-2.58c-.96-.88-1.95-1.79-2.87-2.63-2.43-.79-4.79-1.56-7.21-2.36-1.48.59-3.02,1.41-4.75.36v-.92ZM260.59,154.26h-1.35c-.98-1.18-.42-2.46-.48-3.66,1.19.86,1.75,2.04,1.83,3.66ZM210.91,125.11c.99-.18,2.03-.04,2.95-.04,2.92,1.42,3.36,4.64,5.35,6.99.57-.55,1.16-.91,1.44-1.43.95-1.77,1.8-3.6,2.75-5.53h3.21c.97.88,2.09,1.9,3.25,2.96h9.21c.81.34,1.65.57,2.35,1.01.84.53,1.97,1.11,2.26,1.92,1.32,3.72,4.36,6.32,6.02,9.7,2.26,1.58,4.46,3.13,6.36,4.46.98,2.02,1.77,3.66,2.57,5.3-.97,0-1.95.01-2.92,0-.15,0-.31-.1-.55-.17-.29-.87-.6-1.79-.87-2.61-1.67-.53-2.1,1.09-3.27,1.49-.58-1.14-1.18-2.29-1.74-3.39-1.31-1.41-2.58-2.77-3.7-3.97-.11-.77-.19-1.28-.27-1.84-.79-.53-1.62-1.08-2.55-1.7-.77-2.85-1.67-5.73-3.85-8.02-.91.64-1.72,1.21-2.59,1.83-.48-.18-.94-.35-1.57-.58-.62.16-1.41.35-2.37.6-1.27-.57-2.65-1.19-4.26-1.92-1.75-.33-3.75-.16-5.5-.03-1.73,1.93.2,3.01.47,4.44.67.42,1.38.87,2.28,1.43.45.88.98,1.93,1.6,3.16v4.22c.4.79.71,1.39,1.08,2.12.22,2.5-.39,5.17.49,7.78q-1.4-.55-3.51-4.85c0-1.55-.01-3.42,0-5.29.02-2.54-1.03-4.58-2.9-6.24-.51-.45-.96-.99-1.53-1.35-2.82-1.83-5.67-3.63-8.53-5.44-.82.29-1.6.56-2.44.85-1.43-.72-3.2-1-3.94-2.77-.06-1.04.6-1.63,1.38-1.93,1.25-.49,2.54-.9,3.85-1.14ZM243.27,154.83c-.42.54-.93,1.17-1.4,1.84-.38.54-.7,1.11-1.07,1.72-2.14.23-4.08,2.29-6.76.75.84-1.36,1.6-2.61,2.58-4.2,1.51-.63,3.33-1.38,5.14-2.13q1.02.87,1.51,2.02ZM215.45,68.56c-.53-.52-.86-1,.01-1.76.43.64.85,1.25,1.26,1.85-.44-.03-.87-.07-1.27-.1ZM217.78,69.68c-.56-.06-.9-.33-.92-.92.53.09.85.38.92.92ZM186.67,24.88c3.01-.53,5.8-1.7,8.64-2.72,3.01-1.08,5.92-2.45,8.97-3.34,2.07-.6,4.17-1.22,6.44-1.24,2.85-.02,5.59-1.27,8.49-1.14,1.84-1.22,4.12-.29,5.93-1.06,1.99-.85,3.97-.69,5.98-.91,1.49-.16,2.94-.66,4.43-.88,1.33-.2,2.7.07,3.98-.63.55-.3,1.31-.31,1.97-.32,2.9-.04,5.79-.11,8.69-.02,2.21.07,4.3.62,6.12,2.02.64.49,1.51.67,2.24,1.05.73.38,1.41.83,1.9,1.12.51,1.49.53,2.67-.13,3.75-1.04,1.69-1.45,3.84-3.46,4.85-1.22,2.24-2.91,4.14-4.39,6.19-2.61,3.61-5.88,6.44-9.2,9.37-4.71,4.15-9.9,7.66-14.52,11.93-2.67,2.47-5.21,5.16-8.47,7.03-1.72.99-3.02,2.72-4.58,4.19-1.29.49-2.99.7-4.05,1.63-3.22,2.83-7.32,4.2-10.68,6.79-3.34,2.58-6.9,4.85-10.83,6.47-3.06,2.76-6.84,4.29-10.42,6.19-1.47.78-2.71,1.99-4.09,2.95-.81.56-1.67,1.06-2.71,1,.1-.29.16-.65.36-.8,2.29-1.71,4.63-3.37,6.93-5.06,1.49-1.1,2.95-2.25,4.44-3.36,2.45-1.83,5.16-3.14,8.23-4.22,3.88-3.5,7.76-7.33,11.99-10.71,3.33-2.66,6.29-5.67,9.41-8.53,2.09-1.92,4.63-3.36,7.04-5.06.47-.79.98-1.66,1.47-2.47.69-.34,1.28-.69,1.9-.93,4.3-1.62,7.25-4.92,10.17-8.24.24-.27.1-.88.15-1.59-2.79,2.07-5.33,3.97-7.88,5.85-.1.07-.31-.01-.54-.03,0-.26-.11-.64.02-.77,1.32-1.32,2.61-2.69,4.08-3.84.67-.53,1.23-1,1.73-1.72.66-.96,1.54-1.86,2.53-2.47,1.49-.92,2.56-2.06,3.5-3.55.98-1.56,2.43-2.82,3.61-4.14.32-1.27.59-2.42-.28-3.51-1.41-.07-2.48.81-3.61,1.47-.57.34-1.06.86-1.51,1.37-3.36,3.87-7.61,6.73-11.23,10.05h-2c-.64-.84-.39-1.53.18-1.89,4-2.52,7.23-6.05,11.26-8.55,1.69-1.05,2.99-2.75,4.1-3.8.97-2.67-.71-3.56-2.15-4.91-2.96,0-6.16-.54-9.31.9-2.39-.94-4.83-1.56-7.31-.22-3.98-.09-7.4,2.17-11.25,2.66-1.98.25-3.9,1.18-5.87,1.3-3.61.22-6.8,1.86-10.43,2.67-.88.79-1.88,1.69-2.99,2.69-.74.03-1.6-.04-2.41.14-.78.18-1.5.62-2.16.91-1.22-.51-1.11-1.7-1.72-2.69,1.13-.42,2.19-1,3.32-1.2ZM182.94,101.83c.5-.46.98-.91,1.43-1.32.5.36.85.51,1.02.76.28.4.66.89.62,1.31-.19,2.2,1.83,4.06.84,6.63-.97,1.17-2,2.77-4.24,2.29-.15-2.17,1.77-3.14,2.46-5-.75-1.64-1.37-3-2.13-4.67ZM170.88,201.58c.84-1.66,1.84-3.1,3.99-3,.03,4.2-.25,6.29-1.33,8.79-.24.55-.61,1.16-1.43.99-1.04-2.2.2-4.2.84-6.48-.85-.12-1.47-.21-2.07-.3ZM174.63,141.17c-2.24-1.8-4.42-3.89-6.36-6.23-.21-2.77-2.4-4.45-3.89-6.36-2.32-2.97-4.09-6.16-5.74-9.69v-4.19c.47-.95,1.07-2.14,1.7-3.4,1.66-.85,3.3-1.69,5.11-2.62,1-.05,2.16-.1,3.32-.15.16-.27.3-.65.49-.67.98-.13,1.98-.15,3.04-.21,1.5,1.46,2.94,2.86,4.44,4.31-2.17,1.38-3.93,2.87-4.44,5.1.17,1.12.76,2.35.38,3-.87,1.45-.74,2.9-.81,4.41-.04.82-.29,1.63-.5,2.43-.17.64-.53,1.24-.59,1.88-.08.83.05,1.69.08,2.4,1.3,3.14,4.32,3.02,6.73,4.04.69-.28,1.31-.53,2-.81.38.71.77,1.45,1.25,2.35-1.69,1.8-3.3,3.73-6.21,4.41ZM170.76,201.65c-.07.55-.4.82-.92.91.04-.57.37-.85.92-.91ZM165.76,204.69c.95-1.43,2.35-1.94,3.97-2.02-.8,2.65-1.6,5.3-2.38,7.92h-1.22c-1.32-2.01.7-2.98,1.44-4.58-.58-.42-1.19-.87-1.8-1.32ZM165.63,204.72c-.69,1.76-2.32,2.63-3.51,3.84-.9.06-1.68.11-2.47.16.21-.39.36-.85.67-1.09,1.29-.96,2.61-1.88,3.98-2.72.35-.21.86-.15,1.32-.18ZM155.27,99.89c-.81.35-1.78.33-2.69.44,2.16-2.22,4.91-3.5,7.65-4.78.65-.31,1.51-.19,2.29-.22-2.02,2.14-4.61,3.42-7.25,4.56ZM162.76,95.17l.35-.63c.11.1.22.19.32.29-.22.11-.45.23-.67.34ZM169.44,91.19c-1.14,1.12-1.49,1.46-1.85,1.82q-1.02-1.21,1.85-1.82ZM170.85,89.47c.79-.1,1.36-.18,1.92-.25-.34.8-.85,1.09-1.92.25ZM177.5,130.71c-.38-.53-.75-1.05-1.13-1.58-.47-.04-.95-.09-1.43-.13.7-3.18.79-3.31,2.72-4.68.6,1.11.37,2.31.29,3.46-.07.98.31,2.04-.45,2.93ZM174.82,129.09c-.12.23-.25.47-.37.7-.55-.67.02-.62.37-.7ZM198.74,34.16c-.14-1.19-.22-1.83-.26-2.17,2.44-2.23,4.65-4.26,6.7-6.14,1.32-.02,1.69.75,2.22,1.53-2.55,2.53-5.53,4.38-8.67,6.77ZM214.34,28.85c-1.7,2.73-2.93,4.08-4.72,4.96-.39.19-.95.03-2.23.03,2.19-2.51,3.94-4.46,6.95-4.99ZM223.17,28.33c2.71-2.26,4.51-5.41,7.67-7.54.43-.02,1.08-.05,1.75-.09,0,.42.08.72-.01.94-.54,1.23-1.23,2.27-2.38,3.14-1.44,1.08-2.39,2.85-3.88,3.82-1.59,1.03-2.83,2.38-4.26,3.54-1.56,1.27-3.19,2.46-4.87,3.56-.47.31-1.24.15-2.52.26,3.26-2.94,5.81-5.38,8.51-7.64ZM215.93,25.48c1.45-1.84,3.01-3.61,5.47-4.46.32.23.7.51,1.03.74.08.25.21.46.16.54-1.52,2.06-3.39,3.76-5.43,5.42-1.77-.45-1.23-1.41-1.22-2.24ZM126.36,23.05c.32-.16.82.02,1.31.05-.69,1.24-1.59,1.76-2.83,1.63.13-.89.83-1.33,1.51-1.68ZM124.18,24.82c.19-.02.38-.04.59-.04-.18.48-.41.9-.67,1.27l.08-1.23ZM123.69,24.91l-.42,2.01c-.66.51-1.47.8-2.46.85.64-1.37,1.48-2.49,2.89-2.86ZM120.09,40.06c.14-.04.29-.08.43-.12l-.43,2.04c-.26,0-.52-.01-.78-.01-.17-.36-.37-.77-.63-1.3.53-.23.95-.49,1.41-.6ZM135.91,84.18c-.96-.04-1.93.66-2.91.7-2.26.07-4.25,1.03-6.28,1.79-2.1.79-4.44-.12-6.47,1.09-.1.06-.21.09-.32.13l-9.81,1.22c-.31,0-.64-.04-1-.04-.73-.58-1.53-1.21-2.38-1.88-.92-.13-1.91-.26-2.85-.39-.5-1.69-.97-3.26-1.49-5.01v-5.92c.64-1.24,1.25-2.43,1.92-3.73.87-.11,1.68-.21,2.61-.33.95,1.26,1.85,2.45,2.73,3.6.36.15.66.39.97.39.77,0,1.54.05,2.3.04l-.1.47c.07-.01.13-.03.2-.04.98-.17,1.92-.38,2.87-.69,1.62-.52,3.3-.74,4.94-1.16v-.16c2.52-1.1,5.04-2.26,7.64-3.18,1.88-.66,3.96-.48,5.93-1.15,1.24-.42,2.58-.69,3.84-1.18,4.38-1.69,8.77-3.36,13.16-5.02.63-.24,1.34-.28,1.92-.6,2.5-1.36,4.93-2.84,7.65-3.76,2.63-.89,4.45-3.05,6.68-4.56,4.81-3.24,8.87-7.35,12.75-11.63,1.02-1.12,2.01-2.22,2.28-3.79-.78-.63-1.6-.56-2.36-.06-2.12,1.38-4.21,2.8-6.3,4.23-.69.48-1.32,1.04-2.01,1.6-.7-.12-1.33-.22-1.86-.31-.39-1.24.26-1.84.95-2.3,3.1-2.05,6.16-4.16,8.95-7.28-.93-.8-1.82-1.56-2.85-2.45-2.71.99-4.89,2.83-7.19,4.5-2.18,1.58-4.46,3.03-6.74,4.47-.33.21-.91.03-1.77.03,2.5-2.77,4.79-5.32,7.5-7.27,2.27-1.63,4.14-3.42,5.54-5.79.34-.57.87-1.03,1.43-1.67-.5-1.03-.99-2.07-1.48-3.08-2.42.78-4.2,2.38-6.1,3.76-1.78,1.29-3.57,2.59-5.13,4.12-2,1.96-4.47,2.94-7.05,4.11-.27-.47-.48-.83-.69-1.2,1.18-1.07,2.47-1.71,3.22-3.21.61-1.22,2.22-1.95,3.53-3.02.15-.65.34-1.46.56-2.4,2-2.55,5.68-3.61,6.49-6.94,1.43-.36,2.38-.6,3.23-.81.61-1.47-.64-1.9-1.14-2.69-.44-.69-.84-1.41-1.22-2.04-.88-.21-1.38.21-1.85.73-.8.89-1.8,1.65-2.37,2.66-1.2,2.12-3.01,3.66-4.62,5.4-1.14,1.23-2.26,2.45-3.25,3.86-1.84,2.62-4.14,4.93-7.13,6.38-.9.44-1.71,1.07-2.59,1.57-.88.51-1.77,1.35-2.68,1.38-2.83.09-5,1.93-7.65,2.51-2.61.58-5.11,1.63-7.79,1.98-.49.06-.94.35-1.42.5-1.44.45-2.87,1.07-4.35,1.26-.5.07-1,.09-1.51.1l.19-2.82c2.34-.69,4.66-1.43,7.01-2.02,3.43-.86,6.68-2.19,10.08-3.09,1.03-.27,1.85-.7,2.7-1.29,2.34-1.66,4.75-3.22,7.12-4.85,5.33-3.67,10.13-7.96,14.42-12.79,1.41-1.58,2.84-3.47,2.09-6.17-.89-.97-1.92-2.09-2.9-3.16-4.98.2-9.33,1.63-12.49,5.16-2.98,1.03-5.94,1.41-8.23,3.2-2.27,1.78-5.16,2.62-7.06,4.91-1.12,1.35-2.72,1.98-4.33,2.49-.38.12-.89-.18-1.57-.34,1.86-2.31,3.88-4.01,6.31-5.35,6.33-3.51,12.56-7.2,18.9-10.7,2.05-1.13,4.42-1.55,6.72-1.87,1.66-.23,3.38-.04,4.83-.04,2.18,1.6,3.73,3.33,4.83,5.52.75,1.49,1.89,2.78,3.03,4.41.77,2.42,1.3,5.3,2.56,7.82,1.87,3.74,4.24,7.24,6.3,10.66,1.52.35,1.46-.86,1.97-1.42,2.4,3.01,2,3.15,8.39,4.17.7,1.08.79,2.48.29,3.41-1.13,2.11-.61,4.33-1.01,6.76-3.37,4.08-6.8,7.81-9.8,11.91-.89,1.22-2.05,2.3-3.26,3.23-3.73,2.88-7.42,5.83-11.38,8.42-3.25,2.12-6.85,3.69-9.72,6.4-.7.66-1.79.92-2.7,1.37-1.97.96-3.86,2.26-5.94,2.8-2.09.54-3.36,2.21-5.27,2.91-3,1.1-5.81,2.7-9.18,2.54ZM132.29,25.49c.14-.36.17-.71.37-.9.6-.59,1.18-1.31,1.93-1.62,4.65-1.95,8.76-5.02,13.64-6.48.62-.19,1.15-.67,1.74-.98,1.62-.85,3.24-1.68,5.18-2.67.13-.37.39-1.14.72-2.12.55-.09,1.18-.19,2-.32.47,1.3.91,2.5,1.35,3.7-.23.27-.4.63-.68.77-1.19.6-2.39,1.2-3.63,1.69-2.51.99-5.01,1.97-7.17,3.97-1.47.26-3.16.24-4.67,1.17-1.42.88-3.01,1.49-4.49,2.29-1.46.79-2.86,1.69-4.72,2.79-.57-.46-1.08-.87-1.57-1.28ZM150.4,100.73c.79-.11,1.37-.19,1.93-.27-.34.83-.87,1.07-1.93.27ZM151.33,208.79c-.25.31-.48.76-.79.82-.7.16-1.44.11-2.17.14.16-.64.62-.89,1.25-.91.57-.02,1.14-.04,1.7-.06ZM144.29,148.07c.66,1.05.93,1.36,1.06,1.71.64,1.7,1.25,3.41,1.83,5-1.19,1.87-.78,3.77-.85,5.6-.06,1.66.05,3.34-.36,5.59-2.42-5.97-1.55-11.55-1.69-17.9ZM148.29,209.82c-.08.9-.17,1.81-.26,2.85-1.05-.68-2.05-1.1-1.39-2.63.47-.06,1.06-.14,1.65-.22ZM122.2,236.57c.04-.15.18-.29.31-.4,3.29-2.91,6.58-5.83,9.91-8.7.4-.35.93-.53,1-.53,2.47-2.79,4.36-4.94,6.41-7.25.25-1.07.55-2.37.86-3.67.31-1.28.64-2.56.99-3.99.62-.06,1.25-.11,2.03-.18.23,1.49-1.5,1.86-1.42,3.35.3,1.17,1.47,1.86,2.7,2.62,1.11.07,2.29.14,3.55.22,2.13,1.87,4.29,3.77,6.8,5.96.54,1.06,1.3,2.56,2.01,3.97-.31,1.1-.61,2.06-.85,3.03-.24.96.33,2.04-.67,3.22-.16-1.54-.16-2.84-.46-4.07-.31-1.3-.9-2.52-1.54-4.25-.88-.63-2.22-1.38-3.3-2.41-.95-.91-1.62-2.12-2.55-3.37-1.13-.07-2.29-.13-3.38-.2-2.77.92-4.9,2.5-6.47,4.92v1.43c.96,1.2,1.81-.63,2.68-.06,2.58.73,4.68,2.14,6.18,4.28,1.17,1.67,2.67,2.96,4.33,4.31-1.18,3.01-1.38,6.35-4.51,8.52h-2.92c-.17-.37-.37-.79-.66-1.4.86-.6,1.68-1.17,2.82-1.96.45-1.72,1.62-3.66,1.06-6.11-1.52-2.12-3.4-4.06-5.53-5.57-2.16-.56-3.75.34-5.44,1.59v6.55c-.82.95-1.59,1.83-2.35,2.71-2.06.11-3.73,1.62-5.83,1.29,1.52-1.88,4.08-2.05,5.86-3.56.68-1.57-.21-2.52-1.62-3.54-.6.12-1.47.12-2.17.47-1.66.82-3.22,1.83-4.84,2.73-.99.55-2.01,1.04-3.36,1.74.17-.82.25-1.27.37-1.7ZM142.75,254.55c-1.04.08-1.5-.23-1.44-1.31,1.12-1.62,2.89-2.27,4.89-2.51-.7,1.79-2.52,2.51-3.45,3.83ZM149.27,265.06c-.1.28-.15.63-.35.76-1.08.73-2.19,1.42-3.33,2.06-.2.11-.59-.09-.89-.15,1.64-1.87,1.84-1.99,4.57-2.66ZM137.2,245.46c.12-.21.23-.43.35-.64.51.67-.03.58-.35.64ZM137,245.6c-.82,1.71-2.23,2.86-3.75,4.05-.62-.07-1.27-.14-2.04-.22.36-.81.62-1.41.9-2.04,1.4-1.17,2.94-2.05,4.89-1.79ZM127.84,240.47c-.67,1.84-2.37,2.69-3.56,3.94q-1.41-.5-1.35-2.13c1.38-1.29,2.95-2.08,4.91-1.81ZM118.83,239.88c.41-.38.87-.81,1.53-1.42.61,1.68-.61,2.53-1.53,4.56v-3.14ZM37.16,455.97c-1.8-1.98-3.74-4.12-5.68-6.26-.09.08-.17.17-.26.25-.44-.91-.88-1.83-1.44-2.99,0-.94.05-2.12-.01-3.31-.09-1.84.05-3.67-.7-5.5-.49-1.19-.22-2.67-.31-4.03-.16-2.51.13-5-.78-7.52-.53-1.46-.12-3.36.18-5,.55-2.96,1.8-5.79,1.64-8.88.97-2.15.88-4.58,1.96-6.75,1.26-2.55,1.99-5.35,3.25-7.91,1.18-2.4,2.71-4.63,4.13-6.91.14-.22.52-.29.81-.41.1,1.17-.05,2.25-.59,3.36-.66,1.34-1.32,2.81-1.42,4.27-.22,3.19-1.46,6.25-1.11,9.5.11,1.01.02,2.04.02,3.14-.6,1.3-1.23,2.67-1.86,4.03-.22,2.18-.32,4.31-.94,6.49-.71,2.53-1.74,5.14-1.3,7.91-1.73,2.51-.54,5.62-1.76,8.32-.57,1.25-.1,2.97-.1,4.6.6.09,1.03.16,1.4.21,1.05-1.42,0-3.14.98-4.49.83,1.98,1.65,3.94,2.61,6.23v7.42c.62,2.06,2.65,2.61,3.05,4.36-.49-.04-.99-.09-1.78-.16ZM38.25,412.26c.82.21,1.12.29,1.68.43,0,.58.09,1.24-.02,1.86-.27,1.64-.68,3.27-.94,4.91-.24,1.48.17,3.06-.75,4.44-.17.26-.2.64-.25.96-.25,1.65.14,3.31-.59,4.98-.57,1.32-.5,2.92-.75,4.66-1.72-.91-1.94-2.66-2.73-3.73,0-.59-.08-.95.01-1.26,1.75-5.56,2.91-11.27,4.34-17.26ZM38.98,456.16c.63.02.96.36.99.99-.64-.02-.96-.37-.99-.99ZM40,457.18c.64.02.94.37.98.98-.65,0-.95-.35-.98-.98ZM38.12,441.23v-4.26c2.22.91,1.75,2.79,2.4,4.08.48.95.31,2.23.46,3.67-2.04-.61-2.04-2.34-2.86-3.49ZM41.05,458.25c.24.15.47.29.71.44-.74.56-.63-.07-.71-.44ZM42.46,432.51c-1.99-.18-1.55-2.58-3.26-2.93.24-.71.46-1.13.53-1.58.2-1.33.32-2.68.55-4.01.04-.21.46-.35.73-.52.6,1.54,1.34,3.05,1.76,4.65.38,1.43.57,2.97-.3,4.4ZM42.45,413.61c1.3,1.32,1.78,3.03,2.58,4.69-.04.89-.09,1.87-.15,3.05-1.33.7-2.59,1.37-3.86,2.04-.21-3.32-.03-6.59,1.42-9.78ZM44.51,440.54c-.63-1.46-.58-2.91-.15-4.88,2.11,2.54,2.09,3.01.15,4.88ZM47.37,426.46c-1.53-.53-1.42-1.54-.86-2.71q.88,1.42.86,2.71ZM52.87,420.27c-.62-.12-.92-.19-1.26-.25-.74-1.24-.37-2.39.15-3.6q1.56.71,1.11,3.85ZM59.09,417.56c-1.01-1.99-1.74-3.42-2.45-4.84.37-.78.72-1.52,1.15-2.43.5.47.94.87,1.31,1.22.45,1.92.5,3.67,0,6.05ZM65.28,407.64c-1.58.24-1.67.22-1.69-.76,0-.46.15-.93.29-1.74.67.15.95.21,1.4.31v2.19ZM72.16,411.04c-.55-1.49-.82-2.59.04-3.73.7,1.1.5,2.21-.04,3.73ZM79.58,401.27c-1.13,1.67-.39,3.64-1.05,5.29-.39.11-.68.2-1.14.34-1.05-2.41-2.32-4.91-1.46-7.55.58-1.79.4-4.07,2.39-5.32.47,1.64.98,3.2,1.32,4.79.17.8.33,1.88-.06,2.45ZM84.41,400.67c-.4-.34-.77-.66-1.12-.96-.52-1.5-.51-2.95-.22-4.51.34.15.68.19.76.35,1.09,2.37,1.08,2.37.57,5.12ZM90.72,400.94c-.94-1.45-.57-2.79-.65-4.08.48.05.96.09,1.6.15-.32,1.3-.61,2.5-.96,3.93ZM93.49,402.2c-.66-3.91-.21-6.98,1.13-10.18.48,1.29.9,2.42,1.35,3.64-.72,1.9-1.47,3.89-2.47,6.55ZM98.7,390.6c-1.75-.21-2.5-1.57-3.54-2.92,1.2-3.35,2.09-6.91,4.3-10.08h2.37c.17.4.45.73.39.99-.83,4.09-2,8.08-3.53,12.02ZM96.6,373.82q1.39.93,1.07,2.28c-.78-.56-1.8-1.01-1.07-2.28ZM100.27,367.79c.89-.95,1.59-1.68,2.38-2.53.43.34,1,.56,1.1.91.72,2.62,1.15,5.27.11,7.91-.03.08-.3.08-.59.15-2.04-1.47-1.88-4.03-3-6.44ZM103.78,395.52c-2.05.06-2.04.05-3.64-1.76,1.17-3.1,1.44-6.25,2.73-9.11.5.18,1,.22,1.05.4q1.66,5.54-.14,10.47ZM107.07,383.1q-3.36-1.41-3.28-3.38h3.18c.74,1.23.7,2.3.1,3.38ZM114.02,378.19c.31-1.2.62-2.37.93-3.54.15.01.3.02.45.03.08,1.09.15,2.17.26,3.69-.88-.1-1.19-.13-1.64-.18ZM122.71,375.01c-.1.75-.45,1.22-1.54,1.2-.61-2.07-1.76-4.08-1.33-6.46.35-.02.55-.09.62-.02,1.48,1.45,2.54,3.07,2.25,5.28ZM150.02,357.7c-.13-.12-.25-.25-.38-.37.24-.11.49-.23.73-.34-.12.24-.23.48-.35.71ZM163.24,358.67c-.82-.54-1.64-1.08-2.4-1.58-.93-.04-1.78-.08-2.7-.13-.72-.63-1.49-1.29-2.2-1.9-1.15-.25-2.09,0-2.87.79-.75.75-1.58,1.29-2.7,1.13-.16-.91.46-1.93-.5-2.84-1.18.94-2.36,1.88-3.55,2.82-.32,1.09-.65,2.18-1.03,3.47.86.38,1.73.76,2.79,1.23.04.54.1,1.18.14,1.71-1,1.31-2.31.54-3.4.82-.96.25-1.88.64-2.98,1.03-.98-.34-2.08-.72-2.43-.85-1.76-.38-2.5.75-3.65.19-.85-.41-1.97-.41-2.96-.4-1.83.02-3.69-.41-5.33,0-1.26,1.52-.19,3.21-1.02,4.7-1.15-1.56-2.27-3.08-3.39-4.6-1.39-.11-1.91,1.28-3.28,1.84-1.03.09-2.36.21-3.83.34-.65,1.59-1.28,3.12-1.91,4.64-.36-.07-.67-.14-1.04-.21-.65-1.25-.5-2.64-.41-3.96.07-1.09.57-2.15,1.02-3.69-1.47.68-2.48,1.16-3.5,1.63-2.76-1.25-2.85-1.1-4.65-3.69.35-1.74,2.3-2.37,2.91-3.97.07-.84-.3-1.23-1.5-1.13-1.85,2.47-3.86,5.14-5.76,7.68-1.68.9-3.07.18-4.54-.36-.35.32-.72.67-1.26,1.17.27,2,1.37,4.05.59,6.48-.38-.2-.94-.31-1.03-.58-.76-2.18-2.16-4.23-1.64-6.65,1.84-2.8,4.57-4.51,7.2-6.45-.37-.58-.6-.94-.95-1.48-1.24.78-2.38,1.45-3.47,2.2-.96.65-1.86,1.39-2.74,2.06-2.07-.71-2.73-3.43-5.65-3-2.48,1.83-5.3,3.89-7.22,6.99h-4c-.29.45-.62.71-.62.99-.05,1.52-.02,3.04-.02,4.6-.53.5-1.01.94-1.55,1.45-.71-1.31-1.35-2.49-2.05-3.77-.63-.06-1.28-.11-1.84-.16-1.5,1.42-.11,3.38-1.07,4.76-1.15-.49-2.21-.95-3.5-1.5-.55,2.52-.23,4.88-.22,7.33.41.46.85.96,1.35,1.53h3.2c1.25-1.04,2.66-2.21,4.39-3.66.43-1.08,1.04-2.62,1.57-3.94,1.33-.48,1.9.18,2.33.91.67,1.13.39,2.75,1.46,3.29,1.17.67,1.95.53,2.59.23.99-1.22.34-2.43.52-3.33-.47-2.2-2.27-3.7-2.01-6,.4-.21.8-.42,1.38-.72.67,2,1.3,3.87,1.93,5.74.87.75,1.87.61,2.88.41,1.01-.21.79-2,2.29-1.68.98,1.46,1.69,3.4,3.09,4.37,1.38.96,1.88,2.74,3.54,3.28-1.5,6.36-3.68,12.5-5.95,18.62-.49-.06-.99-.12-1.74-.21-.11-1.32-.22-2.64-.31-3.67,1.79-4.12,3.45-7.93,5.34-12.28-.9.37-1.34.45-1.64.7-1.51,1.23-2.22,2.92-2.76,4.74-.42,1.44-.92,2.85-1.38,4.24-.39.04-.71.07-1.11.1-.45-.86-.92-1.74-1.47-2.77.66-1.45,1.35-2.95,2.02-4.42-.45-.26-.73-.41-1.16-.66-.74.53-1.54,1.11-2.34,1.68-.44-.15-.89-.3-1.3-.44-.31.27-.56.49-1,.87.8,2.79,1,5.75.4,9.13-1.11-1.06-1.94-1.85-2.65-2.52-.23-1.63,1.92-2.83.21-4.48-2.55,2.4-2.89,6.05-5.01,8.72-1,.02-1.53-.42-1.29-1.19.24-.79.64-1.56.76-2.37.12-.8-.42-1.19-1.47-1.14-1.52,3.44-1.97,7.26-2.99,11-.32.3-.68.64-1,.94-1.77.2-2.26-1.34-3.14-1.86.3-3.81,2.06-6.95,2.53-10.42.02-.12-.19-.27-.3-.41-.78-.14-1.2.41-1.51.96-.94,1.63-1.11,3.5-1.58,5.28-.74,2.74-1.51,5.47-2.06,8.66-.61-.67-1.19-1.05-1.37-1.56-.45-1.32-.43-2.65.4-3.89.5-.74.54-1.57-.02-2.51h-1.42c-.22.8-.44,1.59-.73,2.66-.74.58-1.65,1.3-2.76,2.18v7.44c-1.08-1.02-1.77-1.68-2.45-2.32.22-1.16.42-2.25.64-3.42-.59-.24-1.03-.42-1.42-.57-.22.16-.42.23-.46.36-.69,1.88-1.36,3.77-2.24,6.22-.08,1.72.2,4.09-.42,6.56-.55-.44-.95-.75-1.44-1.14-1.02-4.37.47-8.53,1.43-12.7-1.5-.96-1.71.53-2.57.96-.11,1.79-.22,3.47-.34,5.25-.44.79-.91,1.65-1.36,2.46-.51-.11-.82-.17-1.16-.24-.99-1.32.24-3-.86-4.6-.41-.04-1.03-.11-1.64-.17-.79,1.02-1.5,1.92-2.24,2.87-.33-.31-.7-.5-.7-.7-.04-1.87-.14-3.75.01-5.61.24-3.07,1.26-5.91,3.17-8.36.36-.46.92-.77,1.47-1.22.44,1.82.43,1.84,1.47,2.92,1.44-.84,2.58-1.99,3.4-3.78,2.96-.26,4.58-2.26,5.68-5.69v-4.43c-.9.15-1.65.27-2.39.39-.29-.46-.56-.89-.84-1.34-.27.03-.65-.04-.83.12-1.91,1.66-3.78,3.28-4.37,6.02-.26,1.21-1.5,2.2-2.46,3.54h-3.26c1.34-2.91,3.27-5.4,5.2-7.93,4.34-5.7,9.72-10.4,14.63-15.55,3.14-3.29,6.51-6.44,10.64-8.35,4.08-1.89,8.06-4.09,12.61-4.98,4.76-.94,9.42-2.33,14.13-3.52.65-.16,1.3-.35,1.96-.46,1.82-.3,3.7.19,5.5-.68,1.67-.81,3.74-.01,5.41-1.16.37-.25.99-.19,1.49-.19,4.93,0,9.86,0,14.8,0,2.21,0,4.17,1.28,6.47,1.03,2.02-.21,4.1-.2,6.11.02,1.65.18,3.29.69,4.85,1.27,3.47,1.29,7.07,2.02,10.68,2.79,3.05.65,6.35.92,8.7,3.01.53,1.05.57,1.85.03,2.68ZM88.81,365.69c-.44.47-.76.83-1.06,1.15-.2-.04-.43-.06-.44-.1-.26-2.06-2.05-3.87-.94-6.47,2.54,1.34.88,3.99,2.44,5.41ZM46.28,390.65c.75-1.68,1.5-3.36,2.4-4.95.27-.47.96-.71,1.48-1.04-.44,2.68-1.82,4.87-3.51,7.04-.17-.46-.46-.84-.37-1.04ZM50.27,384.53c.12-.25.24-.51.36-.76.65.7,0,.65-.36.76ZM186.51,360.05c-.48.68-1.06,1.28-1.52,1.84-2.09-.78-3.89-1.46-5.59-2.09-.07-.56-.12-.88-.19-1.43,2.76-.64,5.53-.39,8.32-.34.42,1.21-.61,1.45-1.01,2.02ZM187.08,299.51c-1.6-.79-3.27-.83-4.96-.85-1.19-.02-2.31-.34-3.47-.57-2.63-.53-5.15-1.65-7.92-1.49-.64.04-1.33-.2-1.96-.44-2.38-.89-4.79-1.47-7.36-1.64-1.98-.13-3.91-.92-5.86-1.38-.97-.23-2-.64-2.94-.53-3.12.39-6-.88-9.01-1.2-2.98-.31-5.93-1.17-8.79-2.08-1.3-.41-2.54-.83-3.91-.9-2.86-.13-5.58-1.48-8.51-1.04-3.09-1.15-6.73-1.29-8.74-4.74.18-1.93-.25-3.96.68-5.92.34-.72.22-1.66.24-2.5.05-2.04.01-4.09.09-6.13.09-2.35-.44-4.78.89-6.98-.04-3.06.38-6.06,1.1-9.03.16-.65.13-1.36.36-1.99.28-.78.74-1.5,1.36-2.71.38,2.99.6,5.54-.07,7.94-.42,1.52-.47,2.99-.59,4.49-.16,2.01.26,4.07-.87,5.98-.3.51-.1,1.33-.11,2.02-.02,1.7-.01,3.4-.02,5.11-.02,2.86.18,5.76-1.26,8.39.51.7.89,1.23,1.38,1.91,1.46.14,2.95.28,4.39.41.75.56,1.43,1.06,2.07,1.54.38.08.7.21,1.03.22,2.38.04,4.77,0,7.15.09,2.18.08,4.44-.38,6.49.83.26.16.68.15,1.01.1,2.94-.44,5.65.88,8.51,1.12,2,.17,3.85,1.13,5.95,1.05,2.01-.08,3.83,1.35,5.94,1.06.3-.04.66.13.96.25,2.51,1.02,5.15,1.36,7.81,1.83,3.44.61,6.98,1.07,10.29,2.19,2.02.68,3.94.82,6.1.72.44-.39.93-.83,1.27-1.13,1.03-2.41-.05-4.13-1.17-5.87-2.25-.52-1.31,2.7-3.02,2.66-1.34.23-1.96-.52-2.47-1.46.04-.33-.04-.79.15-.96,1.21-1.14,2.49-2.23,3.82-3.4v-4.48c-.44-.56-.85-1.09-1.21-1.53-.47-.05-.87-.22-1.11-.09-1.91,1.07-3.8,2.18-5.69,3.29-.91.54-1.81.91-2.88.29.84-2.27,3.3-2.69,4.87-4.12,1.48-1.35,1.64-3.85,4.31-4.11-.63-1.75-1.13-3.14-1.63-4.54-.66-.04-1.24-.26-1.62-.08-1.36.65-2.69,1.39-3.98,2.17-3.17,1.91-6.42,3.6-10.29,4.56.15-.54.14-1.2.38-1.31,2.02-.89,3.76-2.22,5.6-3.4,2.55-1.63,5.21-3.09,7.89-4.67q.29-2.38-1.47-5.55c-3.96,1.76-7.99,3.43-11.56,6.07h-1.98c.11-.92.76-1.42,1.49-1.81,1.17-.63,2.45-1.08,3.56-1.8,2.64-1.74,5.27-3.52,7.2-6.37-.45-.95-.94-1.98-1.34-2.84-.89-.57-1.4-.07-2,.2-3.33,1.5-6.67,2.95-10.02,4.39-.27.11-.61.05-.92.05.12-.93.83-1.41,1.54-1.79,3.42-1.83,6.23-4.48,9.65-6.66-.83-.94-1.48-1.67-2.08-2.34-.43.04-.77-.02-1.02.1-2.86,1.43-5.71,2.89-8.56,4.34-.45.23-1.03.32-1.34.67-1.98,2.22-4.74,3.18-7.22,4.63-1.3-.02-2.66.41-4.25-.45,1.53-.68,2.84-1.27,5.03-2.25,1.53-1.63,4.15-3.37,7.02-4.89,2.79-1.48,5.31-3.47,7.98-5.26-.22-.3-.5-.71-.95-1.35-1.15-.03-2.43-.05-3.71-.08.69-1.06,1.38-2.11,2.09-3.2-.47-.21-.8-.47-.94-.4-1.73,1-3.58,1.87-5.11,3.12-2.2,1.8-4.53,3.38-6.93,4.89-1.12.7-2.03,1.73-3.19,2.75h-2.3c.03-.15.04-.33.13-.4,1.74-1.25,3.53-2.43,5.23-3.73.92-.7,2.01-1.45,2.46-2.44,1.11-2.45,3.11-3.84,5.34-5.3v-5.37c.8-1.57,1.55-3.05,2.32-4.55,1.42-1.05,3.1-1.88,3.81-3.68h-2.36c-1.34-2.11.99-2.66,1.38-3.95.09-1.11.53-2.33-.76-3.01-1.33-.23-1.07,1.26-1.27,1.31-1.43.51-2.22.63-2.84-.18-.29-1.43,1.21-1.91,1.61-3.04-.31-.35-.64-.72-1.02-1.16-1.4.36-2.72,1.41-4.42.49,0-1.6,2.07-1.93,2.34-3.65-.33-.38-.75-.88-.84-.99-2.34-.41-2.77,2.08-4.53,1.69-.13-.13-.34-.24-.35-.37-.01-.32.07-.64.11-.97.56-.36,1.11-.73,1.65-1.08-.02-.37-.04-.7-.05-1.02-.83-.79-1.89-.33-2.83-.5.53-1.82,2.33-1.95,3.75-2.8,1.44.93,2.89,1.87,4.35,2.81.07,2.5,1.91,4.21,2.71,6.51,1.01.33,1.95.64,3.27,1.08.37.52.85,1.43,1.55,2.12.7.69,1.62,1.15,2.57,1.79-.68.95-1.24,1.74-1.84,2.58-.06,1.15-.13,2.33-.21,3.73-.65.57-1.39,1.23-2.62,2.32-.67,1.49-2.63,3.16-2.26,6.03.76.23,1.54.47,2.39.73,2.12,2.77,4.27,5.59,5.86,7.68,1.17,2.45,1.92,4.12,2.76,5.74.62,1.19,1.75,2.24,1.99,3.49.64,3.21,2.95,5.7,3.53,8.92.17.94.86,1.85,1.49,2.63.77.96,1.13,2,1.43,3.18.89,3.57,2.45,6.94,3.3,10.54.27,1.15.66,2.26.68,3.45.03,2.71,1.14,5.24,1.12,8-.02,2.49.6,4.99,1.02,7.48.14.79.55,1.54.94,2.61-.9.09-1.66.41-2.15.17ZM149.47,264.89c.12-.21.25-.42.37-.64.5.69-.05.58-.37.64ZM151.39,263.28c.83-.13,1.42-.21,2-.3-.31.97-.9,1.07-2,.3ZM153.48,262.91c.24-1.16,1.15-.98,1.97-.97-.23,1.19-1.16.97-1.97.97ZM157.81,261.77c-.67.04-1.47.08-2.26.12.68-.88,1.37-1.76,2.13-2.76.97-.08,1.92-.16,2.87-.24-.35,1.41-1.59,1.98-2.74,2.88ZM162.6,267.05c-.7,1.94-2.29,2.11-4.01,2,.64-2.06,2.36-1.95,4.01-2ZM158.51,269.1c-.26,1.12-1.16.93-1.95.96.25-1.1,1.15-.93,1.95-.96ZM156.4,270.18c-.12.21-.24.43-.36.65-.51-.67.03-.58.36-.65ZM161.5,244.63c-.12.21-.24.42-.36.64-.49-.67.03-.58.36-.64ZM161.67,244.48c.05-.55.41-.79.91-.9-.03.57-.38.83-.91.9ZM179.36,202.14q.47-2.67,4.03-6.87c.73,2.27.29,3.81-1.6,6.06-.6.71-1.25,1.66-2.43.81ZM192.04,363.66c-.34.25-.88.23-1.68.41.5-1.43,1.44-2.02,2.54-2.84.51,1.41-.22,1.94-.86,2.42ZM192.23,187.06v2.8c-.86,2.28-1.47,4.02-2.17,5.72-.39.95-.99,1.79-2.34,1.66-.19-.39-.41-.82-.58-1.16.44-2.4,2.24-4.14,2.68-6.42-.28-.08-.48-.21-.58-.16-2.86,1.44-5.41,3.33-7.95,5.25-1.73,1.31-3.59,2.45-5.42,3.63-.23.15-.59.1-.91.12.17-1.3,1.27-1.91,2.12-2.62,1.81-1.52,3.67-2.99,5.62-4.31,1.66-1.12,3.24-2.26,4.77-3.58,1.57-1.36,3.53-2.45,5.75-2.68-.31.55-.62,1.1-.98,1.76ZM199.96,364.87c-.5-.7.04-.59.38-.65-.13.22-.25.43-.38.65ZM200.49,364.03c0-.28,0-.57,0-.85.21.09.43.19.64.28-.21.19-.42.38-.63.58ZM202.22,361.48c-.61.57-1.18,1.09-1.74,1.61h0c-1.81-.34-2.54,1.52-4.21,2.01-.43-.07-1.07-.17-1.67-.27-.03-.5-.19-.91-.05-1.12.93-1.4,1.92-2.75,2.91-4.13,1.42-.82,2.92-.47,4.36-.31.89.69.65,1.48.4,2.21ZM210.9,364.01c-2.07,0-3.9,0-5.73-.01-.13,0-.26-.2-.41-.32-.4-1.54,1.2-2.22,1.23-3.55h7.38c-.36,1.64-.94,2.9-2.47,3.88ZM212.22,172.96c-1.28,4-4.37,6.97-4.61,10.98-.83.08-1.15.12-1.49.15-.86-.84-.48-1.88-.47-3.04.64-.98,1.35-2.08,2.05-3.16-.44-.35-.68-.53-1.09-.86-1.6,1.06-3.25,2.16-4.97,3.3-.11,1.07-.21,2.06-.34,3.32-2.1,1.11-1.22,4.36-3.49,5.55-1.16.13-1.66-.52-2.22-1.51,1.16-1.3,2.38-2.66,3.69-4.12-.6-.2-1.06-.35-1.36-.44-1.88.17-2.6,2.46-4.54,2.08,1.32-2.41,3.32-4.3,5.51-5.74,3.54-2.32,6.64-5.08,9.71-7.93.62-.57,1.23-1.19,1.95-1.61,2.76-1.61,5.56-3.15,8.56-4.84.49-.8,1.1-1.8,1.78-2.92.77-.2,1.57-.41,2.4-.63,1.16-1.61,2.33-3.23,3.48-4.82,1.45-.4,3.24.23,4.34-2.12.07-.91.18-2.41.3-4.08.91-.42,1.76-.82,2.41-1.12,1.59.65,2.63,1.41,3.18,2.75-1.93,2.19-4,4.15-6.68,5.38-.75.34-1.43.9-2.02,1.48-1.93,1.91-3.81,3.88-5.86,5.99-.41.99-.88,2.23-1.44,3.43-.63,1.38-1.44,2.7-1.98,4.11-.46,1.23-.2,2.81-2,3.33-.17-.04-.48-.11-.8-.18-.68-.91-.52-1.91-.28-3,.92-1.11,1.88-2.29,2.89-3.52-.16-.45-.32-.87-.55-1.5-2.71,1.22-4.04,3.75-6.06,5.27ZM227.43,167.72h-2.21c1.32-3.93,3.65-6.52,6.67-9.12,0,.8.16,1.33-.03,1.65-1.41,2.47-2.9,4.89-4.44,7.47ZM231.22,172.9c.13-.22.26-.45.4-.67.55.73-.06.6-.4.67ZM225.05,185.22c1.14-1.8,1.16-1.81,2.66-1.52-.52,1.17-1.43,1.63-2.66,1.52ZM227.12,203.58c.14-.24.28-.47.41-.71.57.75-.05.64-.41.71ZM226.98,203.7c-.04.58-.38.86-.93.93.04-.58.37-.87.93-.93ZM225.42,176.66c1.27-1.05,2.5-2.16,3.83-3.12.46-.33,1.14-.36,1.74-.5-1.02,1.25-2.04,2.5-2.83,3.47-1.2.47-2,.71-2.75.15ZM224.9,185.31c-.13.23-.25.47-.38.7-.56-.69.03-.61.38-.7ZM223.62,178.54c-.12,1.77-.12,1.81-2.65,3.53.43-1.84.45-1.93,2.65-3.53ZM220.79,182.26c-.12.22-.25.43-.37.65-.51-.68.04-.58.37-.65ZM214.34,363.9c-.54-.63,0-.59.32-.68l-.32.68ZM218.12,363.07h-3.31c.04-.48.08-.96.13-1.56.64-.68,1.32-1.42,2.16-2.33,2.16.12,4.14-1.95,6.7-.69-1.9,1.53-3.72,3-5.68,4.58ZM223.58,207.53c-.8-.68-.46-1.22-.08-1.74.61-.84,1.43-1.2,2.46-1.09-.24,1.45-1.6,1.87-2.38,2.83ZM235.9,367.74c-.9.6-1.76.76-2.57-.15.05-.3.11-.6.17-.91.91-.8,1.74-.36,2.61-.01-.09.47-.15.77-.2,1.08ZM236.81,355.28c-.75.92-1.48,1.82-2.18,2.67-1,.07-1.85.14-2.86.21-1.29,1.14-2.92,2.18-3.68,3.95-.77,1.77-2.39,1.99-3.86,2.94-.15-2.41,1.65-3.66,1.92-5.69-.2-.45-.47-1.06-.76-1.73.12-.14.26-.44.48-.52,4.38-1.71,8.75-3.42,13.15-5.06.57-.21,1.29-.03,2.25-.03-1.05,2.13-3.21,2.1-4.46,3.27ZM234.08,197.59c-.13.22-.26.45-.39.67-.53-.7.05-.6.39-.67ZM238.55,202.11c.77-.99,1.45-2.08,2.73-2.49-.61,2.54-.9,2.8-2.73,2.49ZM241.4,199.52c.8-1.69,1.9-2.97,3.95-2.98-.8,1.68-1.93,2.93-3.95,2.98ZM247.04,207.49c-.56-.64-.02-.59.31-.67-.1.22-.21.45-.31.67ZM247.53,206.65c.11-.49.37-.82.89-.9-.09.51-.37.83-.89.9ZM267.06,335.62c-3.52,2.16-6.28,5.34-9.04,8.79-1.07.48-2.1.21-2.93-.88.05-.29,0-.65.16-.86,1.38-1.84,3.56-2.5,5.76-3.78.44-.71.66-1.47,1.17-1.82,2.11-1.45,3.8-3.18,5.25-5.36,1.3-1.95,2.89-3.68,3.88-5.87.45-.99,1.08-2.07,2.6-2.31.04.69.08,1.33.14,2.15-3.11,2.67-4.23,6.76-6.98,9.94ZM259.73,208.76c-.06.47-.12.94-.19,1.5-.43.13-.85.26-1.39.43-.13-1.33.67-1.67,1.58-1.93ZM267.81,217.01c-.13.24-.26.49-.4.73-.53-.71.01-.66.4-.73ZM268.89,214.96c.02.8.11,1.64-.94,1.91-.02-.8-.11-1.64.94-1.91ZM268.99,214.84c.09-.52.38-.84.92-.92-.05.56-.36.87-.92.92ZM282.09,215.27c-.92,1.35-1.85,2.65-2.36,4.28-.25.8-1.08,1.75-2.51.87.24-1.96,1.67-3.43,2.38-5.21.77-.33,1.49-.64,2.23-.95.12.43.37.85.26,1.02ZM286.82,223.82c-.78-.41-1.52-.8-2.47-1.3.98-2.93,2.07-5.67,4.62-7.44.3,0,.54-.07.63.01.3.29.55.63.85.99-.95.7-1.74,1.27-2.52,1.87-.12.09-.16.29-.24.45.21.2.39.51.63.57.88.2,1.65-.11,2.37-.63.76-.56,1.56-.46,2.61-.03-1.63,2.65-4.32,3.79-6.47,5.52ZM299.37,221.24c-.53,1.32-1.85,2.34-2.91,3.4-.29.29-.91.26-1.58.43-.17-.7-.32-1.3-.49-1.99,2.33-2.96,5.02-5.44,7.56-8.04.62.13,1.08.22,1.43.29.46,1.1-.34,1.66-.65,2.39-.67,1.59-2.67,1.79-3.37,3.53ZM334.92,223.99c-1.28,1.36-2.61,2.68-4.01,4.1-.61.04-1.27.08-2.01.13-.22-.48-.41-.91-.62-1.36,1.81-2.13,3.56-4.18,6.45-4.66.19.33.35.6.51.87-.1.31-.12.71-.32.92ZM349.47,224.54c-.68.77-1.1,1.9-2.52,1.16.56-1.01,1.08-1.94,2.52-1.16ZM347.59,197.55c-.31.94-.88,1.05-1.97.25.84-.11,1.41-.18,1.97-.25ZM345.82,229.92c1.53-1.59,3.66-1.74,5.66-2.26.04.22.15.43.09.5-1.46,1.7-2.95,3.39-4.18,4.81-1.23.44-2.01.47-2.79-.51.37-.76.78-1.63,1.22-2.53ZM343.81,225.17c.25.43.41.7.65,1.12-.98.8-2.01,1.6-2.99,2.45-.89.77-1.72,1.59-2.44,2.25-1.05.17-1.89.44-2.46-.47.04-.32-.01-.71.15-.95,1.73-2.52,4.57-3.19,7.09-4.4ZM340.38,192.48c-.13.22-.26.44-.39.66-.55-.71.05-.59.39-.66ZM335.18,180.97c2.25-1.66,4.59-3.2,6.94-4.71.36-.23.93-.13,1.41-.16.26.55.52,1.11.88,1.87-2.94,1.62-5.84,3.21-9.45,5.2h-1.54c.57-.75,1.03-1.65,1.75-2.19ZM333.22,183.24c-1.25,1.73-1.28,1.74-2.71,1.5.57-1.14,1.53-1.52,2.71-1.5ZM329.93,169.98c.07.64.33,1.22.14,1.5-1.28,1.89-3.2,2.89-5.33,3.49-.36.1-.85-.24-1.47-.43,1.78-2.29,3.63-4.08,6.66-4.57ZM322.13,222.47c1.73-.96,3.26-2.29,4.86-3.44,1.03.08,1.97.15,3.49.26-.96.8-1.41,1.3-1.96,1.6-2.05,1.12-3.96,2.42-5.72,3.97-1.63,1.44-1.98,1.52-4.69,1.99,1.33-1.74,2.2-3.38,4.03-4.39ZM317.72,217.92c.67.09,1.3.17,2.46.33-3.42,1.69-5.52,4.31-8.47,5.74-.08.04-.26-.15-.51-.3,1.16-3.06,4.55-3.57,6.51-5.76ZM312.99,215.2c-.74,1.69-.99,2.28-1.13,2.59-2.67,2.49-5.13,4.8-7.6,7.11-.69.18-1.32.21-1.45-.75.09-.31.09-.71.29-.92,1.78-1.83,3.52-3.7,5.43-5.38.97-.86,2.25-1.36,4.45-2.64ZM285.76,187.16c2.48,1.87,4.99,3.58,7.26,5.55,1.38,1.2,2.13,3.29,3.63,4.16,2.94,1.7,4.07,4.91,6.56,6.95,2.35,1.93,4.34,4.28,6.59,6.54-.41.46-.74.84-1.01,1.14-2.92.6-5.64.27-8.35.32-1.85.04-3.76-.32-5.45.78-3.19.11-6.34.65-9.52-.59-1.67-.65-3.46-1.26-5.39-1.26-1.29,0-2.57-.65-4.07-1.06-2,1.28-3.51,3.47-6.01,4.13.09-1.94.87-3.48,2.91-4.53-2.27-2-3.15-5.12-5.89-6.64-1.58.31-2.18,1.67-3.17,2.51-1.4,1.17-2.27,2.95-4.11,3.62.07-2.99,2.34-4.67,3.9-6.44.58-1.56.14-2.59-.89-3.36-1.47-1.1-2.99-2.14-4.44-3.18-2.88,3.7-6.04,7.02-9.75,9.79.04-.45.07-.9.11-1.34,1.83-2.23,4.24-3.9,5.58-6.56.41-.81,1.52-1.26,2.42-1.96v-2.65c-.81-.46-1.67-.94-2.69-1.52-1.2.84-2.5,1.63-3.65,2.59-1.43,1.2-2.95,2.1-4.83,2.31.64-1.98,2.8-2.71,3.83-4.68-1.58-.78-3.2-.18-4.45-.29-3.75.6-5.82,3.36-8.44,5.26-.69.5-1.36.77-2.17.74.98-1.51,1.95-3.03,2.92-4.54-.68-.79-1.33-1.55-1.94-2.27q1.13-3.11.39-5.39c-3.08.48-4.37,3.87-7.34,4.8.64-2.46,1.74-3.67,5.64-6.36-1.6-2.35-4.23-2.46-6.83-2.93.26-.65.32-1.32.62-1.45,1.62-.72,2.73-2.02,3.89-3.25,1.43-1.51,3.09-2.61,5.36-3.21,1.33.63,2.84,1.35,4.5,2.15,3.91-.02,8-.16,11.91,1.96,2.1-.74,4.32-1.48,6.69-.26.84.43,1.97.35,2.97.42,1.02.06,2.04.01,2.95.01,1.02.54,1.91,1.01,2.98,1.58,0,1.67-.05,3.36.01,5.04.08,2.17-.29,4.37.83,6.47.43.81.14,2.01.13,3.03-.03,2.25.86,4.25,1.66,6.27.11.28.48.47.89.85.45-.37.92-.75,1.29-1.05-1.01-1.71-1.93-3.27-2.83-4.78,0-2.17.05-4.22-.01-6.26-.06-2.01.17-4.01-.79-5.98-.47-.96-.08-2.34-.08-3.73,1.99-.5,4.06-1.02,6.22-1.56.54.43,1.05.84,1.42,1.15.17.52.4.85.36,1.15-.34,2.62.51,5.04,1.36,7.4.41,1.14.71,2.23.77,3.42.09,1.67,0,3.29.75,4.97.59,1.3.29,3,.38,4.55.72,1.28.88,2.96,2.47,3.68q1.18-1.07,1.18-2.35c-.44.08-.88.17-1.32.25-.98-2.52-1.57-5.09-1.54-7.84.03-1.99-1.29-3.83-.95-5.92-1.75-2.52-.17-5.6-2.16-8.5,3.66,1.44,5.12,3.38,6.76,8.18ZM286.25,126.32c-.84.88-1.72,1.81-2.5,2.62q-1.13-.17-1.47-2.07c.78-1.1,1.68-2.37,2.7-3.8.48.61.93,1.08,1.25,1.63.14.25.02.64.02,1.62ZM298.41,110.69c-2.61,1.85-5.12,3.87-7.8,5.91h-3.61c-.98-1.06-.73-2.07-.59-3.17.62-.89,1.29-1.85,1.99-2.86v-1.95c.47.06.94.11,1.38.17,1.48,1.56-.31,2.82-.42,4.36.48.17,1.02.57,1.32.43,1.2-.56,2.33-1.29,3.38-1.9.68-4.57,2.77-8.09,6.09-11.18.2.69.33,1.14.54,1.84-.96,1.26-1.97,2.59-3.02,3.96-.13.76-.42,1.61.54,2.16.99.14,1.55-.57,2.16-1.13.65-.6,1.38-.81,2.22-.77-.96,1.81-2.54,2.96-4.18,4.12ZM319.95,94.66c-3.27,2.35-6.64,4.57-9.91,6.92-2.05,1.47-3.99,3.09-6.17,4.79-.23.02-.67.07-1.13.11,1.24-2.24,3.18-3.72,5.28-5.11,2.79-1.86,5.54-3.81,8.15-5.91,1.14-.92,1.89-2.32,3.04-3.79.58-.3,1.47-.77,2.53-1.33.09.74.16,1.38.25,2.15-.67.72-1.25,1.59-2.04,2.17ZM339.25,75.37c-2.31,1.21-3.98,3.09-5.77,4.88-2.39,2.4-4.82,4.76-7.26,7.11-.46.45-.99.98-1.95.23,3.49-3.65,7.07-7.17,10.86-10.87.44-2.61,1.49-5.26,3.34-7.47.91-1.08.86-2.96,2.66-3.3.69,1.28.16,2.3-.66,3.23-.82.92-1.46,1.87-.83,3.15.5.63,1.21.38,1.83.49-.2,1.32-1.25,2.06-2.22,2.56ZM378.43,42.02c.11-.2.22-.4.33-.6.44.61-.03.54-.33.6ZM382.99,38.68c-.45.08-.76.14-1.25.23-.15-.6-.31-1.21-.48-1.91,1.14-1.66,2.26-3.24,4.18-4.04-.07,2.27-1.78,3.8-2.44,5.72ZM390.21,32.75c-1.06-.95-.66-1.96-.62-2.92.8-1.96,2.62-2.37,4.47-2.95.47.43.95.87,1.43,1.32-1.23,2.34-3.79,2.8-5.28,4.55Z"/>
      <path class="cls-2" d="M146.24,357.03s.05-.04.08-.06c0-.01,0-.02,0-.03l-.09.1Z"/>
      <path class="cls-2" d="M165.66,225.08s-.03.05-.04.08h.13l-.09-.08Z"/>
      <path class="cls-2" d="M206.55,190.31c.21-.2,1.11.06.47-.7-.13.26-.26.53-.39.79-.28.15-1.08-.09-.53.7.15-.26.29-.52.44-.78Z"/>
      <path class="cls-2" d="M200.49,195.51c-.3.16-1.13-.04-.49.74.14-.27.27-.55.41-.82.32-.16,1.17.04.51-.77-.14.28-.29.57-.43.85Z"/>
      <path class="cls-2" d="M231.15,200.63c-.29.15-1.13-.11-.54.71.15-.26.3-.53.46-.79.27-.18,1.15.03.48-.75-.13.28-.26.55-.4.83Z"/>
      <path class="cls-2" d="M157.56,247.64c-.69,0-.96.41-1.01,1.04-.2.21-1.06-.11-.52.67.15-.25.29-.5.44-.75.6-.07,1.02-.34,1.04-1.01.29-.17,1.2.08.52-.75-.15.27-.3.54-.45.81Z"/>
      <path class="cls-2" d="M234.15,170.89c.27-.19,1.21.09.52-.75-.15.28-.29.56-.44.83-.28.17-1.18-.13-.55.73.16-.27.31-.54.47-.81Z"/>
      <path class="cls-2" d="M221.96,362.14c-.62.06-.96.4-1.03,1.02-.26.19-1.2-.11-.52.74.15-.27.3-.55.44-.82.63-.05.99-.38,1.02-1.02.29-.15,1.1.07.51-.71-.14.26-.28.53-.42.79Z"/>
      <path class="cls-2" d="M164.25,379.13c0-.16-.02-.31-.03-.47-.39.05-.78.1-1.17.16.03.1.05.3.08.3.37.02.75.01,1.12.01Z"/>
      <path class="cls-2" d="M154.09,363.42h-.35v1.49c.12,0,.24,0,.35,0v-1.49Z"/>
      <path class="cls-2" d="M152.09,359.73c0-.11,0-.22,0-.33-.4,0-.8,0-1.21.01-.01,0-.02.21-.03.32h1.23Z"/>
      <path class="cls-2" d="M168.92,359.72c.53-1.29.66-1.63.8-1.96-.22-.08-.44-.15-.66-.23-.02.38-.05.77-.13,2.19Z"/>
      <path class="cls-2" d="M245.21,162.67c.28-.11.55-.22.83-.32-.06-.11-.16-.32-.19-.31-.33.09-.65.22-.98.34.11.1.23.19.34.29Z"/>
      <path class="cls-2" d="M175.32,106.86c0,.16.02.31.03.47.41-.05.81-.09,1.22-.14-.03-.11-.05-.31-.09-.32-.38-.02-.77-.01-1.15-.01Z"/>
      <path class="cls-2" d="M59.15,128.13c-.64.08-1.08.13-1.81.22.82.63,1.29.76,1.81-.22Z"/>
      <path class="cls-2" d="M233.13,125.5c-.59-.2-.93-.34-1.28-.41-.1-.02-.25.17-.37.26.16.16.32.45.49.46.28.02.57-.14,1.16-.32Z"/>
      <path class="cls-2" d="M92.29,124.31c.59.54,1.03.7,1.57-.13-.6.05-1.03.09-1.57.13Z"/>
      <polygon class="cls-2" points="90.61 125.22 90.39 125.5 90.77 125.54 90.61 125.22"/>
      <polygon class="cls-2" points="266.31 129.8 266.51 129.47 266.16 129.43 266.31 129.8"/>
      <path class="cls-2" d="M182.83,130.65c-.08-.1-.16-.2-.24-.31-.1.08-.27.15-.28.24-.01.09.13.26.22.28.08.01.19-.14.29-.22Z"/>
      <polygon class="cls-2" points="231.41 137.7 231.71 137.92 231.76 137.56 231.41 137.7"/>
      <path class="cls-2" d="M216.52,138.77c-.08-.12-.16-.23-.23-.34-.09.1-.25.19-.26.29-.01.1.14.21.22.32.09-.09.19-.18.28-.27Z"/>
      <polygon class="cls-2" points="142.71 381.81 142.49 382.1 142.85 382.14 142.71 381.81"/>
      <polygon class="cls-2" points="173.34 378.16 173.57 377.87 173.17 377.82 173.34 378.16"/>
      <path class="cls-2" d="M244.14,363.62c-.08-.1-.16-.2-.24-.3-.09.09-.25.16-.26.26-.01.08.14.19.22.28.09-.08.19-.16.28-.24Z"/>
      <path class="cls-2" d="M173.38,358.3c-.08.06-.28.17-.27.21.14.39.35.41.55.04.01-.03-.18-.16-.28-.25Z"/>
      <polygon class="cls-2" points="275.57 317.88 275.76 317.56 275.45 317.52 275.57 317.88"/>
      <polygon class="cls-2" points="237.72 168.59 237.94 168.3 237.56 168.25 237.72 168.59"/>
      <polygon class="cls-2" points="183.61 291.78 183.42 292.12 183.74 292.16 183.61 291.78"/>
      <polygon class="cls-2" points="154.01 249.97 153.8 250.26 154.15 250.3 154.01 249.97"/>
      <path class="cls-2" d="M178.73,212.34c-.08-.1-.19-.29-.23-.28-.4.12-.41.33-.05.52.04.02.18-.16.28-.24Z"/>
      <polygon class="cls-2" points="184.37 207.23 184.7 207.43 184.74 207.1 184.37 207.23"/>
      <path class="cls-2" d="M221.35,189.06c.11-.08.21-.16.32-.25-.09-.1-.17-.27-.27-.28-.09-.01-.2.15-.31.23.09.1.17.2.26.3Z"/>
      <polygon class="cls-2" points="214.3 193.68 214.1 194 214.44 194.04 214.3 193.68"/>
      <path class="cls-2" d="M358.91,58.46c-1.64-.53-1.02-1.83-1.02-3.09.58-.85,1.23-1.81,1.86-2.75.07-.87.13-1.71.2-2.62,1.49-2.22,3.43-3.96,6.29-4.78.24.32.51.68.78,1.04l.07-.09c-3.45,1.98-5.31,4.92-5.26,8.54-1.17,1.48-2.09,2.65-3,3.82l.09-.07Z"/>
      <path class="cls-2" d="M219.58,95.47c1.57-4.5,3.98-7.75,6.96-10.33.54,0,.78-.07.86.01.21.22.35.51.51.77,0,.17.07.38-.01.5-.28.41-.59.81-.93,1.18q-3.77,4.03-5.77,8.66c-.42-.2-.83-.41-1.62-.79Z"/>
      <path class="cls-2" d="M347.62,281.35c1.37.77,1.6,2.13,1.94,3.45-.97.53-1.15-.32-1.82-.77-.03-.81-.06-1.75-.09-2.7l-.03.03Z"/>
      <path class="cls-2" d="M287.3,372.35c.28.14.56.28.84.42-.78.69-.62-.15-.78-.48l-.06.06Z"/>
      <path class="cls-2" d="M375.19,257.79c-.16.28-.31.55-.47.83-.65-.85.21-.61.55-.76l-.08-.07Z"/>
      <path class="cls-2" d="M146.33,356.94c-1.71.55-2.53,2.08-3.7,3.3.14.78.27,1.55.4,2.28-.73.74-1.48.82-2.37.28-.85-.77-.26-1.84-.54-2.84,1.24-1.61,2.45-3.18,3.76-4.87h2.04c.12.71.22,1.33.32,1.95l.09-.1Z"/>
      <path class="cls-2" d="M108.53,84.06c-.61-.71-1.38-1.6-1.9-2.2-.3-1.43.21-2.04.78-2.36,6.06-1.6,11.87-3.22,17.73-4.63,2.3-.55,4.22-1.95,6.66-2.3,2.27-.32,4.38-1.65,6.6-2.43,1.26-.44,2.61-.6,3.87-1.03,2.38-.8,4.75-1.63,7.08-2.59,2.8-1.15,5.56-2.39,8.5-3.17.96-.25,1.83-.87,2.7-1.39.58-.35,1.01-.99,1.62-1.22,5.18-1.96,9.42-5.25,13.23-9.17,1.71-.66,2.06-2.59,3.4-3.64,1.19-.94,2.18-2.15,3.26-3.23.84-.84,1.68-1.67,2.55-2.54,2.4.33,3.17,2.41,4.48,3.4.09,1.4-.52,2.07-1.19,2.53-3.04,2.08-5.35,5.1-8.69,6.79-2.35,2.71-5.41,4.6-8.15,6.85-3.26,2.67-6.52,5.38-10.03,7.71-2.06,1.37-4.57,2.13-6.93,2.99-5.68,2.06-11.32,4.27-17.12,5.94-3.38.97-6.58,2.43-10.03,3.23-2.79.64-5.46,1.73-8.39,1.59-3.08,1.47-6.32.66-10.02.88Z"/>
      <path class="cls-2" d="M161.25,237.34c.68.05,1.3.1,1.89.15.25,1.22-.59,1.43-1.33,1.85-.34-.17-.74-.37-1.22-.61.24-.5.43-.91.66-1.39Z"/>
      <path class="cls-2" d="M165.75,225.16c.07-.62.14-1.23.25-2.12,1.01,1.2.62,1.71-.34,2.04l.09.08Z"/>
      <path class="cls-2" d="M168.72,108.62c.56.34,1.12.67,1.64.98,1.37,3.81-.9,6.95-1.42,11.05.71,1.69,1.16,4.14.67,6.82-.38.11-.83.24-1.54.45-.24-1.24-.46-2.36-.7-3.53-1.1-1.21-2.24-2.46-3.39-3.72-.48-1.61-1-3.18-1.4-4.79-.12-.46.09-1,.16-1.63,1.23-1.5,2.57-2.96,4.48-3.88.67-.32,1.07-1.2,1.59-1.82l-.1.08Z"/>
    </g>
  </g>
</svg>