<?xml version="1.0" encoding="UTF-8"?>
<svg id="Capa_2" data-name="Capa 2" xmlns="http://www.w3.org/2000/svg" viewBox="0 0 309.98 580.82">
  <defs>
    <style>
      .cls-1 {
        stroke: #000;
        stroke-miterlimit: 10;
        stroke-width: .25px;
      }

      .cls-1, .cls-2 {
        fill: #1d170c;
      }

      .cls-3 {
        fill: #895139;
      }
    </style>
  </defs>
  <g id="Capa_1-2" data-name="Capa 1">
    <g>
      <path class="cls-3" d="M296.56,5.34c-.17.58-.17,1.36-.55,1.7-1.83,1.59-3.74,3.08-5.67,4.54-3.02,2.31-5.58,5.01-7.89,8.06-2.29,3.02-3.01,6.62-4.45,9.94-.69,1.59-.99,3.34-1.56,4.99-1.06,3.08-2.74,5.89-3.34,9.19-.32,1.77-1.51,3.39-2.1,4.64-2.31.21-4.2.39-6.34.58.3-3.92-1.02-7.07-2.35-10.2-.59-1.4-1.62-2.66-1.96-4.1-.94-3.96-3.79-6.15-6.84-8.33-1.1-.79-2.08-.8-3.33-.61-.58.6-1.2,1.25-1.45,1.52-1.26,3.12,1.4,5.61.15,8.36-3.1-2.19-5.57-5.18-9.61-6.18-.84.4-1.86.88-2.62,1.25-1.69,2.09-1.83,4.1-.21,6.76-1.86-1.12-3-1.81-4.32-2.6-4.67-.31-9.52-.63-14.52-.95-.15-.26-.4-.68-.67-1.13h-1.73c-.28.55-.5.97-.65,1.27h-7.05c-.32-.57-.56-.99-.75-1.33h-3.84c-1.68,2.56-1.57,4.89.3,7.05,1.25.74,2.82,1.19,3.55,2.23.87,1.26,1.97,1.77,3.2,2.36,1.37.66,2.66,1.49,4.03,2.14,1.83.87,3.2,2.2,3.77,4.11.99,3.34,2.68,6.14,5.76,7.95-1.12,1.3-1.95,2.61-3.09,3.53-2.16,1.76-4.54,3.24-6.72,4.97-.76.6-1.33,1.57-1.7,2.48-.47,1.14-.65,2.41-.97,3.66,1.05,1.14,2.06,2.24,2.9,3.15-1.33,2.56-2.43,4.96-3.8,7.21-1.44,2.36-1.7,5.02-2.02,7.6-.28,2.25-.18,4.54-1.39,6.69-.15-.41-.17-.89-.42-1.09-2.86-2.22-8.51-4.17-12.31-4.26-1.42-.03-2.88-.14-4.25.13-3.2.62-6.37,1.39-9.52,2.22-1.57.42-3.53.7-4.49,1.78-2.44,2.73-5.65,4.3-8.72,5.73-3.57,1.66-6.61,3.98-9.64,6.27-4.3,3.25-8.59,6.52-12.87,9.8-2.62,2.01-5,4.42-6.79,6.94-2.8,1.86-5.43,3.62-8.08,5.35-1.49.97-2.69,2.07-3.78,3.58-1.21,1.69-3.3,2.74-5.01,4.06-1.61,1.25-3.5,2.26-4.77,3.79-1.04,1.26-2.23,2.08-3.69,3.3.15-5.14-2.68-8.74-4.5-13-1.1-.34-2.3-1.04-3.47-1-1.73.05-3.47.55-5.16,1.02-.64.18-1.11.89-1.71,1.26-2.17,1.34-4.37,2.63-6.94,4.17.26-3.21.87-5.88.56-8.44-.3-2.55-1.53-4.99-2.28-7.27-1.18-.4-2-.9-2.84-.94-4.49-.24-8.93.02-13.34,1.06-2.68.63-5.43.97-7.85,1.39-1.02-.78-1.7-1.31-1.78-1.37-.99.86-1.71,1.48-2.65,2.3v2.63c1.04.6,2.01,1.17,2.88,1.67,2.49,0,4.83.11,7.15-.03,2.4-.14,4.83-.9,7.18-.67,2.29.23,4.38-1.63,6.65-.51.44,3.79.87,7.42,1.32,11.29-2.02,1.97-.9,4.48-.33,6.85-.62,1.24-1.19,2.36-1.79,3.57v5c-2.5,1.61-4.71,3.56-7.59,4.17-4.47-3.59-4.92-6.24-2.16-12.36.87.4,1.74.79,2.62,1.19,3.26-2.91,4.56-6.4,3.93-10.48-1.5-1.33-2.97-1.96-4.46-1.69-2.91,1.52-5.2,3.42-6.48,6.14-1,2.13-1.48,4.5-2.27,6.73-1.32,3.75-.66,7.36,1.13,10.67,1.6,2.96,3.71,5.65,7.45,6.21.15.02.28.08.37.13,4.72-.3,7.23-3.17,10.03-5.63,3.1-2.72,3.91-6.63,5.4-10.35,2.85,1.5,5.59,2.21,7.74.96,2.49.34,4.29.59,6.42.89-2.32,3.36-5.11,5.81-7.9,8.27-.67.59-1.6.97-2.05,1.68-2.78,4.36-7.2,7.21-10.18,11.43-2.12,3.01-5.47,5.04-7.42,8.3-.39.64-1,1.29-1.66,1.61-2.92,1.43-3.97,3.81-3.7,6.82-3.68,3.92-6.69,8.14-8.95,12.89-.76,1.59-2.27,3-2.51,4.63-.31,2.14-1.46,3.76-2.22,5.61-.62,1.51-1.22,3.03-1.86,4.53-1.93,4.5-3.88,8.99-5.78,13.4-1.26.67-2.38,1.26-3.42,1.81-.88,2.95-2.5,5.72-.78,8.73-.95,2.59-1.85,5.05-2.55,6.97-1.61,1.21-2.72,2.04-3.99,3-.18,3.08-.36,6.12-.52,9.17-.05,1.03.05,2.08-.05,3.11-.28,3.05-.97,5.82-4.69,6.37-.47.07-.89.45-1.28.66-.63,1.28-1.24,2.52-1.56,3.17-1.07,6.25.93,10.1,6.76,11.45,0,3.02.12,5.87-.03,8.69-.28,5.53.33,10.95,1.61,16.32.46,1.95,1.25,3.85,1.46,5.82.62,5.76,2.55,10.97,5.85,15.72,1.29,1.85,2.32,3.8,2.87,6.08.7,2.9,1.73,5.78,3.01,8.48,1.83,3.85,4.01,7.54,6.07,11.29.73,1.33,1.84,2.55,2.2,3.97.9,3.53,3.17,6.08,5.64,8.43,2.21,2.1,4.06,4.5,6.36,6.55v4.7c2.35,1.58,4.65,3.13,7.04,4.74-.63,2.56-2.57,4.86-1.3,8.11.58.18,1.46.45,2.42.74.71-1.25,1.26-2.22,1.51-2.65-.23-2.04-.39-3.5-.55-4.86,1.6-.87,2.73.22,3.88.22,4.24,0,8.32,1.4,12.44,1.51,6.73.18,13.62,1.33,20.18-1.4.11-.05.26,0,.59,0,1.91,2.84,2.79,6.51,6.81,7.99,3.54,1.31,6.94,1.65,10.59.94.3,3.08-.34,6.07.77,8.92.18.45.2,1.13-.01,1.53-.92,1.69-.54,3.5-.74,5.26-.24,2.12-.57,4.25-1.05,6.33-1.54,6.7-3.89,13.18-5.38,19.92-1.26,5.7-3.53,11.2-5.6,16.7-.58,1.53-1.04,3.29-2.98,4.24-1.02.5-1.41,2.26-2.08,3.47-.55.99-.99,2.05-1.63,2.98-3.19,4.63-6.29,9.33-10.64,13.01-.67.57-1.15,1.35-1.73,2.03-1,1.15-1.86,2.51-3.06,3.41-3.9,2.9-7.9,5.68-12.05,8.22-3.45,2.11-7.07,4-10.32,6.38-1.91,1.4-3.9,2.54-5.95,3.65-1.22.66-2.5,1.19-3.89,1.85-.75-.28-1.56-.59-2.61-.99-3.7,1.54-7.52,3.13-11.37,4.73-.93-.79-1.89-1.6-2.89-2.44-2.29.74-4.41,1.42-6.53,2.11.14.19.28.37.41.56-1.27,1.69-2.54,3.39-3.49,4.64-2.91,1.15-5.25,2.06-7.57,3.02-.7.29-1.76.57-1.93,1.09-.68,2.07-2.67,2.2-4.12,3.08-1.29.78-2.67,1.45-4.07,2.03-3.01,1.24-4.76,3.32-4.6,5.92-2.59,2.67-5.32,4.56-6.69,7.16-1.21,2.3-2.67,4.36-4.67,5.36-4.05,2.04-7.22,4.94-10.05,8.13l.36,21.49c1.18-.16,1.8-1.14,2.34-2.05,1.08-1.82,1.61-4.07,2.96-5.62,3.2-3.66,4.91-8.33,8.38-11.8,1.61-1.6,3.04-3.45,4.24-5.38,3.13-5.07,7.82-8.68,11.95-12.77,2.15-2.13,4.77-3.76,6.37-6.48.46-.78,1.42-1.25,2.15-1.87-.4,2.65-1.52,4.86-2.07,7.2-.84,3.58-1.33,7.2,3.42,9.84.25,2.01-.47,4.22.91,5.98,2.97,3.81,2.52,7.99,1.81,12.37-.42,2.63-.66,5.52,0,8.03.82,3.11,2.64,5.97,4.1,8.9.18.37.77.54,1.18.8,1.29-2.07-.07-3.83-.19-5.08,1.27-2.47,2.51-4.42,3.3-6.53,1.1-2.93,2.43-6,.08-8.78.82-2.8.33-5.5.41-8.16.08-2.72.02-5.44.02-8.52-.88-1.2-1.92-2.63-3.17-4.34v-1.93c-.71-.67-1.36-1.27-1.88-1.76h-3.64c-.65.5-1.23.94-2.47,1.89.89-3.17,1.59-5.64,2.32-8.24.92.65,1.73,1.22,2.45,1.73,3.18-2.16,3.46-5.21,3.35-8.29,2.7-.89,5.12-1.94,7.85-.49,1.16.62,2.86-.03,3.49-.97,1.25-1.89,3.24-2.39,5-3.07,2.71-1.04,5.25-2.36,7.85-3.6,1.92-.91,3.4-2.4,5.21-3.39,3.91-2.13,7.66-4.47,11.19-7.19.09-.07.36.09.61.16v3.14c-1.94,1.67-3.32,3.64-4.25,6.16-.52,1.41.63,2.03.31,3.18-.72,2.52-1.14,5.13-1.67,7.67-3.01,4-6.58,7.69-6.89,12.9.88,1.15,1.56,2.03,2.11,2.74,1.51.38,2.84.72,4.19,1.06,3.14-1.25,3.95-5.36,7.76-6.04-.24,2.64-.69,5.27-.66,7.89.03,2.65.54,5.29.83,7.77.71,1.39,1.34,2.63,1.98,3.9.94.44,1.84.86,2.69,1.26.96-.65,2.2-1.03,2.56-1.82,1.19-2.55,3.46-3.64,5.62-4.73,1.94-2.95,3.17-3.99,5.47-5.19.67-.35,1.08-1.22,1.59-1.83-.58-.7-1.07-1.28-1.43-1.72q-.09-5.14,1.85-7.93c1.86,1.68,3.31-.34,4.96-.69.31.67.58,1.24.68,1.47-1.03,3.34-1.98,6.42-3.03,9.82,1.55.64,2.91,1.2,4.3,1.78,1.11-.86,2.14-1.65,3.52-2.71.8,2.85,1.51,5.37,2.36,8.38.24.21.9.8,1.57,1.4,2.24-.67,4.26-1.26,4.8-3.88.14-.68.76-1.32,1.29-1.86,2.74-2.77,6.13-4.35,9.88-5.25,1.2-.29,2.37-.66,3.14-.88.72-1.28,1.21-2.15,1.74-3.09h2.9c1.55-1.03,1.33-2.28,1-3.66-1.44-.95-2.97-1.93-2.88-4.02.61-1.04,1.22-2.08,1.9-3.23-2.29-2.13-4.31-4.02-6.4-5.96h-5.16c-.3.54-.54.96-.78,1.4-1.99-3.12-4.95-5.81-3.99-10.01h5.55c1.71,3.24,4.37,5.03,7.91,6.21,1.46-1.16,3-2.38,4.56-3.62.99.6,2.16,1.31,3.21,1.95h4.23c1.75-.88,3.32-1.67,4.64-2.33,2.9.84,5.5,1.58,7.89,2.27,1.93-2.47,1.69-4.75.06-6.87-.69-.9-1.64-1.64-2.59-2.28-2.87-1.91-5.26-4.23-7.11-7.19-1.28-2.05-2.91-3.88-4.54-6.01-.06-.57-.15-1.44-.24-2.38-1.18-.66-2.29-1.27-3.49-1.94-2.31-3.54-4.24-4.98-7.21-5.98-4.75-.65-6.34,2.37-9.14,3.05-.36-1.15-.22-2.17.38-3.26.97-1.77,1.74-3.65,2.62-5.47.95-1.95,1.79-3.92,1.33-6.54-1.66-.4-3.46-.84-5.89-1.43,1.74-1.66,3.29-3.26,3.22-5.59-2.61-.37-2.82,2.14-3.98,3.34-1.12.57-2.12,1.09-2.74,1.41-1.43,1.98-2.61,3.63-3.53,4.89-1.87.43-3.3.75-4.71,1.08.41-3.07,2.6-5.35,3.78-8.75v-2.4c1.39-3.27,2.62-5.77,3.53-8.38,2.51-7.2,4.59-14.55,8.23-21.32.7-1.3,1.03-2.81,1.4-4.26,1.35-5.21,2.43-10.5,4.03-15.63,1.08-3.47,1.17-7.02.36-10.24-.72-2.87-1.25-5.66-1.26-8.63-1.02-.53-2.03-1.06-2.81-1.46-.7-1.22-1.28-2.23-1.74-3.05,2.59-.98,4.9-1.85,7.68-2.9,1.42.35,3.78-1.02,5.54,1.31-1.36,1.03-2.57,1.94-3.73,2.81-.29,1.41-.44,2.68,1.28,3.65h4.12c3.15-3.1,4.52-6.76,3.12-8.75-.69-.27-1.6-.63-2.55-1.01-.41-3.73-3.02-5.36-6.23-6.52h-4.13c-2.14,1.43-4.24,2.83-6.7,4.47-.53,1.01-1.27,2.43-1.98,3.79-1.3-.94-2.73-1.97-3.97-2.86-3.87.13-7.43-.39-11.48.87,1.38-4.22-2.62-6.97-1.96-11.05,3.26,4.34,5.59,3.63,9.96,1.98.89-1.13,1.78-2.2,2.59-3.32,3.8-5.22-.36-13.31-5.84-14.84-.72-.2-1.55-.06-2.32-.07-1.4,0-2.8,0-4.26,0-.62-4.57-4.1-6.39-7.09-8.52h-3.81c-5.19,1.67-5.28,6.56-7.15,10.32.29,1.59,0,3.18.54,4.89.51,1.62,1.71,2.63,2.5,3.8-3.2,2.17-6.53,3.76-8.95,6.23-3.11,3.19-6.92,4.8-10.63,6.67-2.02-1.69-3.96-3.18-5.71-4.85-1.18-1.13-1.91-2.75-3.15-3.78-4.87-4.06-7.33-9.72-10.13-15.12-.64-1.23-1.2-2.42-2.1-3.51-1.7-2.06-3.71-4.03-4.75-6.41-1.97-4.49-4.13-8.88-6.33-13.26-1.02-2.02-1.5-4.22-2.01-6.46-.59-2.6-.59-5.25-1.16-7.85-.59-2.69-1.55-5.35-1.74-8.1-.27-4.07-1.08-8.01-2.45-11.8-.92-2.54-.47-4.38.87-6.72,1.69-2.95,3.46-6.32,1.49-9.97-.64-1.18-1.55-2.23-2.34-3.35.74-1.39,1.25-2.89,2.21-4.02,2.88-3.41,3.95-7.45,4.89-11.69.92-4.15,1.39-8.41,2.98-12.43,1.05-2.66,1.71-5.49,2.3-8.3.31-1.49.58-3.33-.01-4.6-1.1-2.36-.45-4.13.78-6.03.4-.62.66-1.36.87-2.08,1.77-6.2,4.68-11.91,7.39-17.71.38-.8.92-1.55,1.14-2.39,1.07-4.12,3.88-7.29,6-10.81,1.66-2.77,3.6-5.52,6.35-7.45,1.37-3.57,4.59-5.74,6.66-8.79,1.06-1.57,2.36-2.98,3.58-4.45,1.55-1.87,3.09-3.75,4.69-5.57,1.25-1.42,2.51-2.84,3.9-4.11,1.69-1.54,3.53-2.84,4.75-4.91.83-1.4,2.27-2.45,3.5-3.59,1.69-1.56,3.72-2.85,5.1-4.64,1.11-1.44,2.59-2.34,3.82-3.57,2.13-2.13,4.93-3.76,6.53-6.2,1.72-2.62,4.11-4.35,6.51-5.72,3.46-1.98,6.91-3.87,9.96-6.47,2.32-1.98,5.12-3.52,7.06-5.79,2.17-2.54,5.37-3.13,7.74-5.14.87-.74,1.91-1.27,2.76-2.03,3.46-3.1,7.21-5.72,11.48-7.65,2.16-.98,4.64-2.12,5.96-3.92,1.96-2.68,4.76-3.42,7.4-3.96,3.45-.71,7.02-1.34,10.66-1.03,2.33.19,4.31.87,6.4,1.96,3.31,1.73,4.97,4.97,7.44,6.88-.27,2.33-.49,4.33-.73,6.4-3.38,1.92-5.45,5.16-7.36,9.34-2.03,4.45-3.59,9.08-4.92,13.8-1.08,3.84-1.78,7.64-1.55,11.64.09,1.62.57,2.94,1.6,4.18,1.69,2.04,3.89,3.24,6.32,4.02,1.89.18,3.76.64,5.64.73,1.84.08,3.7-.22,5.81-.37-.77,1.79-1.64,3.42-2.16,5.16-.58,1.94.59,3.69,1.16,5.84.75.66,1.72,1.51,2.52,2.21.66,3.9,2.91,6.68,4.98,9.52.69.95,1.97,1.47,3.34,2.44.73-1.71,1.3-3.05,1.68-3.96-.46-2.64-.84-4.84-1.22-7.06.97-1.02,1.95-2.05,2.69-2.84.38-1.67.69-3.02,1.06-4.66-.8-1.16-1.72-2.49-2.47-3.57h-3.51c-.35.45-.68.84-.98,1.25-.26.35-.49.71-1.09,1.59-.95-3.47,1.64-5.67,1.09-8.27.64-.4,1.08-.91,1.5-.89,2.74.13,4.83-1.23,6.97-2.67,2.76-1.86,5.62-3.58,8.17-5.19h4.23c.68-1.17,1.43-2.44,2.18-3.72,4.24-3.47,9.14-6.3,12.63-10.66,3.32-4.16,5.52-8.98,6.4-14.25,1.26-1.06,2.43-2.04,3.62-3.04,1.88-3.71,4.69-6.54,8.66-8.34.61-2.12,1.23-4.28,1.87-6.49.94-1,1.91-2.02,2.64-2.8.91-5.74-1.65-10.46-2.76-15.13,1.24-2.08,2.38-4.01,3.52-5.93-.13-.1-.26-.19-.4-.29,2.16-1.79,4.32-3.58,6.5-5.39,2.23,1.86,4.48,3.74,6.15,5.13,1.75,4.59,1.77,8.89,3.91,12.52h2.44c2-4.4.58-8.96,1.04-13.13-.71-1.37-1.29-2.5-1.57-3.05-1.32-1.12-2.18-1.85-2.66-2.26-.49-1.82-.55-3.33-1.25-4.44-2.08-3.29-3.66-6.85-5.95-10.05-2.03-2.85-4.21-4.72-7.82-4.24-.42-.72-.65-1.33-1.05-1.78-.46-.52-1.08-.9-1.67-1.38,1.33-3.57,2.6-6.96,3.87-10.35,1.1-2.93,2.2-5.86,3.31-8.79,2-5.24,4.05-10.4,8.62-14.13,1.82-1.49,2.77-3.88,5.1-5,1.35-.65,2.36-1.98,3.7-2.69,1.78-.94,2.02-2.44,2.06-4.14h-6.22ZM254.61,96.82c-.3,1.26-.68,2.82-1.08,4.5,1.46.98,2.39,1.61,3.6,2.43-.32,4.66-.57,9.38-1.04,14.07-.1,1.05-.88,2.07-1.49,3.01-.68,1.07-1.45,2.11-2.32,3.03-1.45,1.54-1.73,3.36-1.53,5.17-1.62,1.99-2.93,4.11-4.72,5.66-2.19,1.89-4.79,3.3-7.2,4.94-1.63,1.11-3.73,1.63-4.78,3.96-6.18,1.45-11.89,4.72-17.7,7.73-1.47.76-2.65,2.21-4.33,2.48-3,.5-6.03.75-9.11,1.11-1.23-2.23-2.32-4.19-3.71-6.69.14-2.38.22-5.33.52-8.25.42-3.96,2.86-6.99,5.24-9.9,2.77-3.4,3.65-7.4,4.73-11.72,5.39-6.08,9.24-8.87,12.97-11.17h5.82c.76,2.01,2.33,2.87,4.31,3.15,2.17-1.17,2.98-3.11,3.29-5.46,3.2.22,5.75-1.23,8.44-2.31,2.87-1.15,4.11-3.46,5.38-6.01,2.09-4.18,3.77-8.5,5.48-12.83.09-.22.3-.39.48-.62,3.29-.22,3.12,3.29,5.35,4.47-1.56,3.65-1.73,7.79-6.61,9.24Z"/>
      <path class="cls-3" d="M101.9,148.51c-3.17-1.5-5.98-2.84-8.89-4.22-.05-.5-.1-.99-.17-1.67,3.55-1.41,7.09-2.82,10.73-4.27.67,1.79,1.28,3.42,1.98,5.29-1.23,1.65-2.48,3.32-3.65,4.88Z"/>
      <path class="cls-3" d="M108.44,355.89c.73-1.38,1.55-2.91,2.35-4.43h3.55c.41,1.55.78,2.98,1.25,4.74-1.86,1.78-3.62,3.47-5.57,5.33-.41-.3-.99-.71-1.58-1.14v-4.5Z"/>
      <path class="cls-3" d="M93.79,381.44c.34-.69.62-1.25.86-1.74,4.95-2.91,9.85-5.8,14.78-8.71,2.81,3.21,6.2,6.28,6.66,11.51-7.4-.2-14.78.72-22.31-1.06Z"/>
      <path class="cls-3" d="M119.21,368.94c-1-.92-2-1.85-3.23-2.99,1.02-.73,2.04-1.4,3-2.14.85-.65,1.65-1.37,2.76-2.31h4.41c.09.85.19,1.69.23,2.07-1.71,3.79-5.56,3.2-7.16,5.38Z"/>
      <path class="cls-3" d="M129.57,389.89c-1.03-1.95-4.21-1.36-4.45-4.19,2.07-.36,4.4-.78,6.77-1.19,2.05,2.23,4.64,3.79,5.38,7.15-2.72-.62-5.21-1.2-7.71-1.77Z"/>
      <path class="cls-3" d="M125.5,471.19c0,.58.22,1.29-.7,1.41,0-.59-.23-1.29.7-1.41Z"/>
      <path class="cls-3" d="M124.71,472.75v1.57c-1.02-.92-.85-1.33,0-1.57Z"/>
      <path class="cls-3" d="M120.8,476.98c.07,1.72-.17,2.23-1.45,1.61.35-.39.67-.74,1.45-1.61Z"/>
      <path class="cls-3" d="M115.66,491.11c-.06-.68-.12-1.35-.18-2.03,1.34.33.27,1.35.18,2.03Z"/>
      <path class="cls-3" d="M115.4,488.92c-1.32-.54-1.17-1.78-1.81-3.12,2.02.72,1.95,1.91,1.81,3.12Z"/>
      <path class="cls-3" d="M109.52,493.43c2.44,4.74,3.06,10.36,7.4,13.66v1.7c-1.45.59-2.83,1.15-4.3,1.75-.42-.19-.98-.45-1.67-.77-.86-4.97-1.04-10.3-5.58-14.13,1.37-.73,2.61-1.4,4.16-2.22Z"/>
      <path class="cls-3" d="M97.8,495.9c.12.33.3.62.24.67-.7.67-1.43,1.31-2.3,2.09-.26-.65-.39-.97-.58-1.43.91-.46,1.77-.89,2.64-1.33Z"/>
      <path class="cls-2" d="M78.92,273.03s-.04-.01-.06-.02c0,.03-.01.06-.02.08l.07-.07Z"/>
      <path class="cls-2" d="M99.36,303.69s-.08-.03-.12-.04c0,.04.02.08.03.12l.09-.08Z"/>
      <path class="cls-2" d="M175.93,542.9s0,.04.01.07c.03,0,.06.01.08.02l-.09-.09Z"/>
      <path class="cls-2" d="M134.03,250.54s0,.05,0,.08h.09l-.08-.08Z"/>
      <path class="cls-2" d="M52.26,222s.06-.04.08-.05c0,0,0-.02,0-.02l-.08.08Z"/>
      <path class="cls-2" d="M46.13,231.2s.06-.03.09-.05c0-.01,0-.02,0-.03l-.09.08Z"/>
      <path class="cls-2" d="M309.89,88.02s-.03,0-.04,0c0,.01,0,.02,0,.04l.03-.04Z"/>
      <path class="cls-2" d="M232.22,56.37s0-.07,0-.11c-.02.01-.04.03-.06.05l.07.06Z"/>
      <path class="cls-2" d="M246.54,39s0-.05,0-.07h-.08l.08.07Z"/>
      <path class="cls-2" d="M37.01,246.53s0-.08,0-.12c-.03.01-.06.02-.08.04l.08.08Z"/>
      <path class="cls-2" d="M243.39,101.37s.03-.01.04-.02c.01-.02.03-.04.04-.06l-.09.08Z"/>
      <path class="cls-2" d="M241.42,63.53s0-.02,0-.03c-.02,0-.03-.02-.05-.02l.05.05Z"/>
      <path class="cls-2" d="M85.04,472.43s-.02-.04-.03-.06c0,0-.01,0-.02.01l.05.05Z"/>
      <path class="cls-2" d="M68.69,453.01s0-.03.01-.05c-.02,0-.05,0-.07-.01l.06.06Z"/>
      <path class="cls-2" d="M37.01,257.77s0,0,0,0c-.03-.02-.06-.04-.08-.07l.08.07Z"/>
      <path class="cls-2" d="M49.28,346.71s0-.04,0-.06c-.03,0-.05-.02-.08-.03l.09.09Z"/>
      <path class="cls-2" d="M138.12,520.42s0,.08,0,.11c.03-.01.05-.02.08-.04l-.08-.08Z"/>
      <path class="cls-2" d="M88.12,524.57s0-.09,0-.13c-.02.02-.05.04-.07.06l.08.07Z"/>
      <path class="cls-1" d="M138.12,520.53c-.28.13-.64.23-.73.44-.72,1.69-1.73,3.37-1.97,5.14-.42,3.14-1.91,5.73-3.11,7.94-.48,2.69-.89,5.02-1.31,7.38.26-.2.52-.41.81-.57.61-.35,1.26-.61,1.9-.88.37-2.64,1.07-4.82,1.84-7.1.21-.62.68-1.25.65-1.85-.16-2.89.56-5.54,1.78-8.14.31-.67.14-1.56.16-2.36Z"/>
      <path class="cls-1" d="M3.78,547.34c.15.25.49.6.42.76-.6,1.38-1.27,2.73-1.88,4.01.49,2.57.95,5.03,1.49,7.83-.68,2.14-1.47,4.65-2.27,7.18.97.75,1.63.05,2.05-.63.89-1.43,1.64-2.95,2.41-4.45,1-1.95,1.87-3.95,3.51-5.53.7-.68,1.05-1.72,1.57-2.58.43-.72.82-1.48,1.34-2.13,1.8-2.24,3.57-4.51,5.5-6.63,1.83-2.01,3.85-3.86,6.06-6.06,1.91-.48,4.17-1.05,6.43-1.62,1.15-1.93,2.22-3.87.75-6.12.73-3.15,3.1-4.64,5.81-5.81,1.2-.52,2.29-1.63,3.76-.52-1.05.57-2.08,1.14-3.27,1.79-.41.74-.89,1.63-1.52,2.79v7.48c.87.95,1.78,1.95,2.92,3.2-.01,2.59-.1,5.49,1.23,8.15.56.64,1.11,1.28,1.65,1.89-.26,1.12-.61,2.21-.74,3.32-.15,1.34.31,2.9-.24,4-1.07,2.16-.73,4.32-.73,6.49,0,.81.33,1.64.56,2.44.94,3.24,2.01,6.42,3.6,9.42.47.88.6,1.93,1.07,2.81.38.72,1.02,1.29,1.47,1.85h1.86c1.72-1.49,3.5-3.03,5.33-4.62-1.18-3.45-3.35-6.85-2.53-10.9,1.16-1.06,3.25-.51,3.94-2.42v-5.92c-.36-.37-.93-.97-1.6-1.67h-4.14c.17-.44.19-.78.35-.86,1.2-.6,2.43-1.16,3.77-1.79.47-1.01.96-2.04,1.5-3.19-1.05-.77-1.97-1.44-2.91-2.12.05-.55-.06-1.15.18-1.54,1.28-2.07,1.17-4.32.45-6.39-.65-1.85-.57-3.67-.75-5.77-.35-.68-.81-1.58-1.25-2.43-.95-.53-1.83-1.02-2.72-1.51h-5.06c-1.45,1.18-1.86,1.72-2.98,4.19-.3-2.1-.07-3.76.03-5.41,1.47-1.5,3.31-.45,5.25-.97,2-1.15,4.7-1.78,6.68-3.56.59-1.39-.45-2.27-.77-3.33,3.03.33,5.94-.11,9.08-1.04.62-.81,1.26-1.6,1.86-2.42.83-1.15,2.02-1.85,3.3-2.22,5.21-1.49,9.7-4.54,14.59-6.73,1.24-.56,2.39-1.1,3.76-.91.26,1.73-1.47,2.5-1.97,4.08,0,.83,0,1.84,0,2.85.02,1.68,0,3.3-.79,4.9-.59,1.18-.53,2.6.08,4.17.46.1,1.03.22,1.61.34-.46.67-.91,1.34-1.38,2-.87,1.23-1.75,2.45-2.44,3.41-.12,2.58-.5,4.79.63,6.7-.06,1.48-2.07,2.79-.04,4.14,1.93-.33,3.17-2.06,4.85-2.55,1.81-.53,3.14-1.87,4.98-2.51.27.6.61,1.02.62,1.44.05,1.87-.36,3.83.07,5.59.8,3.31,1,6.64.88,10.07,1.01.62,1.87,1.11,2.69,1.67.82.56,1.59,1.19,2.17,1.64,1.36-.02,1.85-.77,2.2-1.52.91-1.94,2.11-3.3,4.42-3.71,1.77-.32,2.59-2.02,3.25-3.59.7.23,1.32.42,1.88.6,1.71-1.01.16-3.08,2.57-4.71.53-.17,1.87-1.69,3.72-1.2.76.86.39,1.45.13,2.07-.22.53-.18.55.31,1.73,2.33-.11,4.04-2.7,6.96-1.56.14.76.3,1.72.48,2.68.11.6.23,1.2.35,1.83.33-.24.67-.48.98-.75.62-.55,1.27-1.08,2.06-1.38.61-.23,1.23-.41,1.86-.56-.2-.07-.41-.12-.64-.12-.2-.5-.43-1.08-.68-1.69.72-1.08,1.36-2.05,2.01-3.02.09-1.34.18-2.68.27-3.95,1.09-.2,2.02,1.04,3.02-.36-.29-.61-.65-1.33-.94-1.93,0-1.83-.38-3.64.08-5.2.82-2.72.9-5.71,2.81-8.1,0-.84.01-1.69,0-2.54-.01-.82-.05-1.64-.12-3.59-1.54,3.6-2.63,6.17-3.99,9.35,0,1.04.06,2.74-.02,4.43-.04.82-.29,1.64-.52,2.44-.71,2.42-1.62,4.78-1.59,7.37,0,.18-.48.37-.95.71-.67-.86-1.34-1.72-1.98-2.55-1.47-.85-2.98-.57-4.45-.48-.98,1.41-1.53,3.07-3.27,3.74-.11-.46-.36-.93-.24-1.06,1.28-1.41,1.94-3.09,2.48-4.88.29-.96.87-1.82,1.43-2.95v-3.17c-.41-.75-.97-1.78-1.46-2.67-.77-.37-1.38-.66-2.24-1.07-1.7,1.05-3.53,2.19-5.53,3.43v11.16c-.98.32-1.75.57-2.53.83-1.29,1.19.23,3.59-2.57,4.62-1.57.32-4.01-.19-6.1,1.11v-3.43c.51-.26.94-.48,1.68-.86.36-.74.87-1.78,1.41-2.88-.79-4.8.99-9.2,2.27-13.68.06-.22.5-.33.77-.5-.22-2.03.24-3.92,1.26-5.67.14-.23.51-.32.78-.48v-2.04c1.09-1.67,2.16-3.31,3.19-4.89,1.18.29.9,1.05.76,1.58-.21.79-.62,1.53-.94,2.29.33.32.87.6.95.98.18.8.12,1.65.18,2.77,1.98-.73,3.76-1.38,5.71-2.1.54-1.01,1.07-2.25,1.82-3.34.56-.82,1.27-1.74,2.13-2.09,1.83-.75,2.91-2.22,3.89-3.21,1.21-2.99,2.25-5.58,3.32-8.17.03-.08.22-.09.37-.12-.19,1.38.09,2.63,1.11,3.75.06,5.48-1.6,10.55-4.15,15.77,0,.33-.06,1.01.01,1.68.28,2.76-.21,5.44-1.33,7.9-.84,1.85-.63,3.54-.54,6.52,1.49-3.57,2.53-6.04,3.58-8.55-.2-.54-.43-1.16-.6-1.64,1.04-4.38,2.05-8.61,3.06-12.83.12-.49.26-.97.43-1.44.46-1.27,1.08-2.49,1.38-3.79.29-1.29.27-2.66.38-3.96,1.18-.57,2.24-1.09,3.6-1.75.14-.91.32-2.04.54-3.39.34-.32.81-.75,1.62-1.49.08,1.89.15,3.36.22,4.95,2.26.37,2.6-1.42,3.5-2.46.71-.36,1.43-.73,2.08-1.06.83.46,1.57.86,2.41,1.32v7.62c.63.83,1.23,1.63,1.84,2.44.33,1.15.59,2.3-.37,3.51-1.89-.46-1.89-3.28-4.14-3.11-.53-3.12.14-6.03-.69-9.47-1.22,3.03-.25,5.61-.81,8.15-2.14-.59-4.17-1.14-5.94-1.63-1.91.84-2.06,2.56-2.94,3.89v3.46c2.64,2.3,5.09,4.91,8.84,5.24-1.68,3.85-3.1,7.58-3.93,11.55-.27,1.28-.97,2.49-1.56,3.69-.56,1.14-.61,2.25-.22,3.4.15.2.31.32.49.39.48-.24.94-.51,1.41-.76,0-.39.03-.77.11-1.15.21-.98.66-1.91.8-2.9.14-1,.03-2.04.03-3.33,2.53-3.14,2.65-7.7,5.48-11.06.55.46.92.77,1.43,1.2-.56.54-1.07,1.03-1.51,1.47-.22,1.37,1.26,1.05,1.65,2.21-1.3,3.26-2.1,6.93-2.93,10.73,0,0,.02-.02.03-.03.25-.25.48-.52.75-.74.41-.34.88-.56,1.36-.76-.28-1.18-.06-2.33.24-3.44.43-1.59,1.25-3.09,1.59-4.69.31-1.44.19-2.97.28-4.93,1.2.66,1.89,1.04,2.64,1.45-.58.76-1.09,1.43-1.67,2.19-.52,2.5,1.17,4.89.94,7.53.06-.02.13-.04.18-.06.67-.27,1.32-.59,1.98-.88.6-.27,1.2-.49,1.71-.92.06-.05.13-.1.19-.15-1.86-2.05-1.96-2.6-1.64-4.71,1.87.28,3.76,1.36,5.93-.07-.44-.68-.67-1.37-1.15-1.7-1.11-.75-2.47-1.16-3.51-1.99-3.83-3.05-8.24-4.46-13.02-4.9-1.42-.13-2.58-.68-3.61-1.61,1.04-.93,2.3-.24,3.42-.51,1.13-.27,2.22-.66,3.21-.96,1.71.83,3.22,1.57,4.86,2.37,1.25-.4,2.5-.8,3.72-1.18,2.74,1.34,5.45,2.67,8.2,4.02.61-.58,1.09-1.04,1.48-1.41.25-1.63.47-3.1.72-4.74.9.09,1.58.04,2.18.24,2.39.8,4.74,1.73,7.14,2.5,1.11.35,2.32.55,3.34-.37.06-.35.27-.74.16-1-1.4-3.21-2.1-6.74-4.95-9.24-2.01-1.76-2.73-4.61-4.99-6.27-.59-.43-.82-1.47-1.03-2.28-.25-.96-.29-1.98-.44-3.14-1.27-1.1-2.56-2.22-3.47-3.01-.43-1.45-.71-2.4-.96-3.26-1.63-.9-3.07-1.7-4.34-2.41-.15-.81-.24-1.31-.38-2.06-1.2-.61-2.48-1.49-3.9-1.94-1.56-.5-3.24-.61-4.79-.87-.27-.96-.48-1.74-.7-2.54-.21.19-.42.28-.44.41-.4,2.34-1.4,4.05-3.99,4.54-.75.14-1.38.94-2.11,1.48q-.3-4.99.42-5.18c.23.78.46,1.56.75,2.56.6-.48,1.09-.87,1.6-1.29.08-1.43.16-2.77.24-4.22,2.28-1.97,2.6-4.99,3.81-7.56.24-.5-.05-1.25-.1-1.97-2.01.83-3.78,1.11-5.77.45-.14-3.65,2.4-5.92,3.89-8.65.05-.85.09-1.69.13-2.34,1.72-2.33,3.38-4.47,4.88-6.72.4-.6.59-1.57-.59-2.2-2.76,2.76-4.73,5.99-5.86,9.96-5.19,3.34-8.96,8.48-13.52,12.35h-2.33c.48-2.3,1.72-4.32,2.84-6.28,3.44-6,6.02-11.04,8.19-17.84,2.04-6.37,4.09-12.74,5.97-19.16.14-.48.39-1,.32-1.46-.29-1.97.75-3.63,1.24-5.39.36-1.29.83-2.5.92-3.89.09-1.48.71-2.93.88-4.41.22-2,.08-4.01.88-5.98.41-1,.23-2.39-.07-3.5-.92-3.38-1.15-6.94-2.9-10.19,2.44-1.72,3.43-4.28,4.71-6.53,1.63.04,2.33.8,2.37,2.52-.86.52-1.86,1.08-2.8,1.74-.4.28-.67.75-1.03,1.17v3.21c.95.81,1.95,1.65,3.01,2.55,1.44-.51,2.69-.96,3.96-1.42,1.57-2.23,4.19-3.51,5.17-5.91-.49-3.41-2.03-5.97-4.11-8.71-1.49-.74-3.29-1.65-4.96-2.48h-4.12c-2.71,1.04-4.93,2.45-6.15,4.87.16,1.15.84,1.58,1.51,1.91,2.29-.68,2.07-3.5,4.42-4.68,1.34-.87,3.09.96,4.91.25,1.7,1.63,3.41,3.27,5.07,4.87.54,1.47,1.66,2.7.95,5.22-.28.28-1.11,1.11-1.87,1.86-1.9,0-3.42.02-4.94-.02-.23,0-.45-.34-.64-.5.64-1.57,2.31-1.45,3.27-2.29.46.13.88.26,1.48.43v-2.83c-1.63-1.86-3.05-3.48-4.44-5.07-2.87.49-4.53,2.56-6.15,3.79-1.39.4-2.34.67-3.26.93-.76-.42-1.49-1.02-2.36.08.28,2.18,2.64,2.86,3.6,4.59,2.08,3.56,2.44,7.64,3.35,11.54.33,1.41-.08,3.01-.3,4.5-.05.35-.7.62-.97.84-.56-.14-.98-.24-1.41-.35-.49,1.89,1.42,2.3,1.9,4.09-.44,1.96-.99,4.39-1.58,7.01-1.11.45-2.2.9-3.55,1.45,1.1.81,1.89,1.39,2.58,1.89-.34,1.54-.67,3.01-.96,4.3-.73.94-1.36,1.74-1.93,2.46-.86-.34-1.3-.51-1.88-.73.07-1.57-.25-3.26.3-4.57.9-2.15.86-4.3.89-6.48.03-2.37,1.11-4.54.94-6.99-.25-3.72-.04-7.48,0-11.22,0-.48.19-.96.45-2.22.02.13,1.41.82,1.08-.33-.65-.14-1.29-.28-2.1-.45-1.17-2.29-2.38-4.67-3.54-6.96.74-1.51,1.41-2.85,2.13-4.31-2.45-3.04-6.01-2.61-9.25-3.14-.36-.62-.69-1.18-1.01-1.74,1.4-1.16,2.78-2.32,3.57-2.97,2.41-4.84,4.3-9,3.32-14.03-1.2-1.35-2.54-2.85-3.85-4.33.07-1.14.12-2.12.15-2.58,1.38-2.11,3.77-1.8,4.76-3.56.05-1.01-.65-1.44-1.51-1.88-2.09,1.85-4.39,3.52-6,5.86h-5.49c-2.12,1.01-3.94,1.88-5.76,2.74-.61-.78-.66-1.54-.08-2.35.76-.23,1.53-.47,2.45-.75-.73-1.94-1.43-3.79-2.01-5.31-1.14-.61-1.89-1.01-2.71-1.45h-4.68c-1.16.79-2.84,1.37-3.57,2.55-1.72,2.79-4.16,4.9-6.15,7.19-.33,3.6,1.47,6.29,3.1,8.96-.5.54-.79.98-1.2,1.27-2.19,1.59-4.24,3.36-6.36,5.03-2.86,2.25-5.55,5.01-9.79,5.18-1.52-.74-3.71-.72-5-2.51.12-.61.23-1.22.35-1.8-1.28-.66-2.48-1.27-3.79-1.94-2.54-2.61-5.14-5.3-7.64-7.87-.32-.95-.41-1.86-.87-2.52-2.21-3.19-3.96-6.62-5.57-10.14-.84-1.83-2.28-3.41-2.93-5.29-.66-1.9-1.18-3.85-2.02-5.68-1.34-2.91-2.5-5.86-3.4-8.95-1.04-3.53-2.53-6.93-3.92-10.62-.04-.76-.11-1.77-.15-2.59-.59-1.26-1.18-2.3-1.58-3.41-.28-.78-.12-1.74-.47-2.47-.84-1.74-.54-3.68-1.07-5.42-1.22-4.01-1.62-8.19-2.94-11.96,2.21-4.3,4.88-7.29,6.57-7.12.67,1.14,1.43,2.41,2.11,3.56.56.32,1,.57,1.43.83,1.21.74.82,2.37,1.61,3.31.51-.18.82-.29,1.2-.42,1.97,2.07,3.96,4.16,6.37,6.69.04.16.14,1.02.5,1.76.43.88,1.09,1.65,1.65,2.46-1.26.49-1,1.49-.71,2.69,1.64,1.7,3.07,3.76,4.18,6.08.48,1,1.58,1.7,2.26,2.39,1.46.09,2.64.16,3.85.23.77,1.23,1.51,2.42,2.47,3.96.59-2.48-.32-4.26-1.7-5.35-2.03-1.61-3.27-3.81-4.88-5.26-.4-1.3-.69-2.27-.88-2.87,1.08-5.09.28-10.01.88-14.97,1.68.97,2.01,2.21,1.32,3.6-.7,1.4-.95,2.7-.02,4.5.83-1.15,1.44-1.99,2.34-3.23v12.03c1.1,2.22,1.92,3.89,2.74,5.56q1.72,3.51,3.35,4.39c-.05-2.3-1.75-3.94-2.24-6.09-.5-2.19-.73-4.23-.45-6.41.65.2,1.08.33,1.56.48-.07-.88-.57-1.6-1.63-2.35-.33-1.69-.38-3.47.53-5.09-.56-1.28-1.2-2.49-1.6-3.77-.25-.83-.04-1.71,1.39-1.74,1.55,1.02,1.95,2.87,2.79,4.79-.32,1.47-.67,3.09-1.02,4.73.73,1.64,1.78,3.18,1.8,5.17,0,1.39.9,2.47,1.78,3.47,1.28.05,1.5-.85,1.24-1.66-.52-1.59-1.27-3.11-1.96-4.74v-8.98c-2.18-1.41-2.98-3.81-4.7-5.06q-3.14-10.65-5.07-12.93c-.27.85-.29,2.03-.76,2.24-1.89.86-1.69,2.82-2.51,4.21-.41.69-.46,1.59-.68,2.43h-1.1c.63-2.56.5-5.23,1.57-7.67.06-.13-.05-.33-.08-.5-.87-.85-1.75-1.7-2.8-2.72-.59,1.67-1.07,3.27-1.73,4.79-.74,1.71-.38,3.75-1.57,5.3-1.08,1.41-.8,3.23-1.57,5.17-1.2-5.32.21-10.07.79-14.87,1.2-.84,2.46-1.62,2.4-3.36-.32-.04-.63-.08-1-.12-.36.51-.74,1.03-1.22,1.72-2.86-4.01-5.68-7.97-8.28-11.63-.31-2.01-.56-3.66-.85-5.54.79-1.23,1.71-2.64,2.61-4.06.92-1.46,1.04-3.16,1.29-4.91.61.04,1.04.07,1.69.11-.19,3.49.69,6.47,3.4,8.7.37.3.49.89.82,1.26,1.81,2.02,3.65,4,5.28,5.79,1.04.16,1.69.26,2.65.4.32.5.75,1.15,1.18,1.82-.9-.22-1.8-.43-2.86-.69.08.5,0,1.07.24,1.37,1.57,1.94,3.84,2.42,6.39,2.66.4,1.2.93,2.44,2.39,2.76.1-.58.21-1.17.32-1.81.53.25.84.4,1.15.55,2.3-.75,2.47-3.53,4.31-4.6h2.03c-.76,2-1.45,3.84-2.15,5.69-.43.21-.88.42-1.32.64.95,1.42,1.87,2.8,2.78,4.16,1.25.85,3.21.24,4.16,2.79,0,1.08.28,2.99-.07,4.77-.41,2.08,1.58,3.77.86,5.66-1.19.76-1.95.17-2.37-.5-.71-1.12-1.14-2.42-1.76-3.61-.28-.54-.64-1.14-1.66-.99.29,1.11.53,2.19.87,3.24.31.95.69,1.88,1.11,2.79.63,1.37,1.71,2.66,1.88,4.08.31,2.61,2.25,2.58,3.88,2.95,2.08,1.84,3.65,4.13,6.39,4.83-.8-4.22-3.09-7.63-6.03-10.87v-4.34c.92.14,1.34.88,1.8,1.57.92,1.39,1.14,3.22,2.66,4.22.6-.23,1.19-.47,1.72-.67.57.28,1.02.51,1.48.7.06.02.22-.21.78-.79-2.04-2.02-3.82-4.41-4.86-7.22-.66-.36-1.27-.64-1.83-1-.55-.36-1.06-.79-1.67-1.25v-4.34c1.66-1.99,3.92-2.22,6.05-2.96.53-.78,1.08-1.61,1.6-2.39.66-.32,1.26-.62,1.87-.92.62.21,1.24.42,2.01.68,1.67-1.83,4.49-2.34,5.33-4.95.77-.16,1.42-.29,1.95-.4.52-.85.95-1.56,1.36-2.23,1.13-.54,2.16-1.03,3.2-1.52.43,2.22-.67,4.59.62,7.37.68-.8,1.11-1.3,1.52-1.78,0-2.07-.02-3.93.03-5.79,0-.24.39-.48.67-.8.89.27,1.81.55,2.98.9.71-1.34,1.38-2.62,1.96-3.71,2.22-.61,4.28-1.19,6.58-1.82-.39-1.27,1.53-1.89.58-3.29-1.46.2-1.86,2.13-3.49,2.31-.08-.69-.13-1.18-.2-1.77.96-1.28,1.94-2.59,2.77-3.7,1.26-.23,2.23-.4,3.17-.57.07-.72.12-1.21.17-1.69h-3.1c-2.28,1.38-4.28,2.6-6.33,3.84-.93,1.53-1.95,3.07-1.87,5.06.04.94-.53,1.56-2.2,2.27,1.64-5.14,1.74-10.06,3.32-14.84-.46-.42-.94-.87-1.59-1.47-.57,1.17-1.07,2.19-1.5,3.05v6.46c-1.7,1.81-1.65,4.6-3.32,6.66-.32-.42-.67-.68-.63-.87.21-1.13.51-2.24.92-3.95-.34-.34-.92-.91-1.34-1.32-1.17.19-1.81.29-2.52.41.94,1.91,1.13,3.68.46,5.43-.59.73-1.1,1.42-2.34,1.18-1.24-2.68.47-5.85-.84-8.65-.96.44-1.56,1.07-1.58,1.97-.05,1.74-.54,3.29-1.43,4.78-.77,1.29-1.41,2.67-2.12,4.03-.49-.68-.95-1.31-1.23-1.71-2.07-.56-2.84,1.37-4.15,1.64-.42-.44-.65-.68-1.07-1.13,1.25-1.7.84-3.6.51-5.37-1.09-.54-1.86-.66-2.62.15-.14,1.06-.29,2.18-.43,3.27-.52.05-.84.08-1.38.13-.52-1.94-.22-3.96-.37-5.94,2.16-.86,2.43-2.94,3.12-4.58-.45-1.14-.81-2.04-1.22-3.09,1.03-.77,1.95-1.46,2.93-2.2q.21-1.67-.28-2.13c-1.1.76-2.21,1.52-3.32,2.29-.24.78-.49,1.56-.77,2.45-.5-.17-.93-.33-1.33-.47-.18-1.63-.39-3.14.5-4.72,1.34-.75,2.8-1.57,4.32-2.42-.2-.53-.37-.97-.74-1.97-4.1,2.17-8.38,3.58-12.59,5.52-1.89.07-3.92.42-5.79-.24-2.3-3.37-4.69-6.4-8.12-8.52-.91-1.74-1.84-3.53-2.75-5.27-.75-.18-1.4-.34-1.98-.48-1.48-1.18-2.92-2.32-4.61-3.67,1.23-3.53,2.77-7.26,3.79-11.12.62-2.35,1.85-4.33,2.86-6.44.43-.9,1.11-1.69,1.67-2.53,2.41-3.65,3.98-7.88,7.43-10.83.87-2.35,2.96-3.67,4.56-5.41.91-1,1.78-1.97,2.35-3.28.67-1.54,1.7-2.9,3-4.06,1.14-1.02,2.21-2.14,3.14-3.35,3.6-4.69,6.47-9.93,10.81-14.05.11-.11.11-.32.2-.46,2.41-3.67,6.16-5.71,9.76-7.9.7-.43,1.63-.46,2.25.4.19,3.7-.37,5.74-2.86,10.13-.8.25-1.75.54-3.07.95-.88.8-2.01,1.82-2.63,2.39-1.02,4.5-3.44,7.93-2.18,12.2,2,2.79,6.02,3.65,7.75,7.23.06.98.14,2.17.22,3.46.49.97,1.02,2.02,1.47,2.89,1.27.9,2.35,1.67,3.41,2.41.08,1.53.15,2.88.2,3.75,1.06,2.71,2.45,4.6,4.55,5.79,3.8,2.27,7.99,1.09,12.23,1.45,1.06,2.61,3.15,4.19,5.93,4.98h6.96c1.21-.61,2.26-1.14,3.36-1.7.62-1.22,1.23-2.41,1.81-3.54-.39-3.01-1.26-5.66-3.29-7.88,1.76-2.91,3.36-5.77.62-9.01-1.33-.75-2.78-1.58-4.41-2.5-.07-.82-.13-1.62-.2-2.4,2.33-2.26,4.55-4.43,3.91-8.18-1.19-1.54-2.51-3.25-3.89-5.03.07-.41.15-.9.26-1.51,1.58-.91,3.17-1.83,4.8-2.77v-6.95c-1.17-1.68-2.42-3.48-3.76-5.39,1.1-.65,2.29-.38,3.43-.38,1.36,0,2.73.18,4.08.09,1.1-.07,1.95,1.58,3.24.31-.5-.47-.98-.93-1.32-1.26-1.84-.45-3.55.07-5.18-.85-1.17-.67-2.62-.55-3.86.34-.76.54-1.58.43-2.52-.13-.69-2.89-1.79-5.48-4.93-7.01-3.29-1.6-5.86.24-8.92.82-1.13,1.84-2.27,3.69-3.41,5.54-.92.38-1.83.75-2.93,1.2-.58-.57-1.06-1.04-1.51-1.48,0-1.42.1-2.62-.03-3.79-.13-1.14-.51-2.25-.77-3.34,2.07-2.04,4.04-4.06,6.09-5.99,1.6-1.5,3.35-2.83,4.94-4.33,2.59-2.44,5.01-5.06,8.03-7.01,1.13-.73,2.22-1.54,3.25-2.4,1-.83,1.28-2.42,2.78-2.76,2.65-2.67,6.34-3.89,9-6.54,3.85-1.78,6.92-4.8,10.66-6.75,1.2-.62,2.78-1,3.49-1.99,1.65-2.32,4.49-2.13,6.47-3.63,2.3.03,4.25-1.03,6.17-2.09,3-1.67,6.44-1.86,9.59-2.98.45-.16,1.06-.16,1.52,0,2.37.78,5.01.99,7.12,3.18.64.94.12,2.92,1.94,3.54.34-.5.68-.99,1.03-1.52,1.41,1.82,1.91,3.92,1.29,5.85-.71,2.2-.98,4.65-2.65,6.47-.19.2-.55.24-.84.35-.53-.56-.55-1.72-2.01-1.48-.22.42-.59.96-.79,1.56-1.49,4.45-2.78,8.99-5.44,12.95-.65,2.84-2.27,5.25-3.4,7.89-.27.62-.69,1.19-.88,1.83-1.04,3.56-1.07,7.31-2.1,10.88-.23.79-.03,1.69-.03,2.21.94,2.29,1.76,4.29,2.59,6.3,1.69.34,2.27,1.88,3.04,2.86,4.47,1.1,8.81,1.63,13.31,1.39.82.94,1.84,1.72,2.31,2.74.77,1.65,1.88,2.78,3.46,3.56.26.13.41.5.61.75.06,1.18.11,2.37.16,3.35.52.94.93,1.68,1.41,2.54,3.24,1.32,4.44,4.25,5.02,7.38.59.4,1,.69,1.44.94.13.07.33.01.79.01,2.25-1.76,4.47-3.74,4.63-7.05-1.37-1.9-2.65-3.67-4.03-5.57,3.58-1.33,3.94-4.47,4.71-7.36-.37-.76-.73-1.53-1.06-2.21q-3.44-2.17-6.6-1.8c-.29.36-.61.74-1.12,1.36.47.49.94.97,1.11,1.15,1.69.19,2.84.32,3.85.44.42.64.69,1.06,1.03,1.58-.65,1.43-.65,3.28-2.65,4.03-.92-1.41.25-3.14-.92-4.57-1.01-.15-2.14-.33-3.03-.46-1.89-1.47-1.61-3.1-1.09-5.02.88-.31,1.85-.54,2.71-.98.89-.45,1.68-1.11,2.63-1.75,1.23-.1,2.57-.21,3.99-.32,1.59-1.54,3.17-3.08,4.9-4.76,2.15-.13,4.05-1.12,5.68-2.66.13-.74.25-1.4.41-2.27.56-.61,1.28-1.33,1.93-2.12.61-.74,1.14-1.54,1.83-2.48.43.44.72.74,1.05,1.08-1.38,2.05-2.69,3.97-3.98,5.91-.07.11.03.33.06.63.36.18.78.38,1.15.57,1.37-1.15,2.67-2.24,3.54-2.96.58-3.68,1.23-6.6,2.91-9.06.7-.1,1.21-.18,1.79-.27,1.11-.95,2.13-2.18,3.45-2.87,1.9-.99,3.36-2.36,4.33-4.15.95-1.74,2.52-2.69,3.98-3.81,1.04-2.38,2.65-4.3,4.4-6.19,1.71-1.85,3.09-4,4.77-6.23.23-.66.56-1.6.87-2.47,2.34-1.35,4.89-2.09,6.07-4.1.47-1.31.87-2.24,1.14-3.21.3-1.11.48-2.26.69-3.31.92-.33,1.68-.61,2.63-.95,0-2.76-.02-5.47,0-8.18.02-2.75-1.81-5.05-1.98-7.79.67-.55,1.3-1.07,1.86-1.53.52-2.12-.04-4.06-.96-6.13.49-.42.87-.74,1.43-1.21,1.76.96,3.46,1.89,5.21,2.85.7-1.72,1.33-3.25,2.06-5.02.93.88,1.66,1.58,2.3,2.19.88,2.88,1.49,5.7,2.61,8.31,1.21,2.81,1.65,5.76,2.13,8.73,1.61-.41,2.39-.86,2.6-1.55.91-3.05,1.79-6.1,2.7-9.25,1.31.63,2.75,1.15,4.01,1.96,1.77,1.14,3.98.63,5.76,1.73.49.3,1.3.07,1.97.07-.11-1.12-1.17-1.08-1.85-1.34-3.11-1.19-5.89-3.08-8.85-3.92-1.14-3.31-1.93-6.43-3.29-9.28-1.38-2.91-1.28-6.31-3.41-8.9v-4.25c-1.54-3.08-4.59-3.94-6.55-6.03-.89-.94-2.22-.79-3.2-1.39-1.84-1.12-4.17-1.46-5.29-3.04-.94-3.85,1.13-6.98,1.02-10.37,0-.14.17-.29.38-.64.35-.26.88-.65,1.41-1.04,2.56.49,5.02.95,7.97,1.51,5.66,2.98,11.85,6.03,18.26,8.6.64.26,1.53.59,2.16-.54-4.31-1.93-8.72-3.55-12.64-6.19-.95-.64-2.22-.78-3.26-1.31-2.67-1.37-5.72-1.94-8.11-3.88-1.02-.08-2.02-.15-2.9-.22-.47-.54-.79-.92-1.09-1.27.93-3.01,2.91-5.35,4.42-7.95,1.61-2.78,3.38-5.47,5.62-7.78,3.43-3.54,7.01-6.93,10.48-10.43,1.71-1.73,3.62-2.99,6.06-3.4.22-.04.37-.5.74-1.03-.33-.6-.79-1.23-1.57-1.63-1.14-.17-2.29-.34-3.44-.5-.07-.7-.13-1.2-.18-1.7h-3.07c-.66,1.92-2.52,2.65-3.72,4.06h-4.82c-2.12,2.87-5.23,4.74-7.46,7.45-1.69,2.06-3.17,4.39-4.27,6.82-.56,1.24-1.11,2.4-1.9,3.5-.39.54-.75,1.18-.87,1.82-.46,2.5-1.29,4.85-2.51,7.06-.32,4.22-2.95,7.43-4.55,10.95-1.22.19-2.19.34-3.09.48-1.12,1.81.09,3.83-1.03,5.76-.42-1.21-.78-2.22-1.14-3.27.21-.75.44-1.54.62-2.16-.11-.52-.16-.85-.26-1.17-1.39-4.54-3.25-8.81-6.65-12.27-.93-.94-1.66-2.13-2.26-3.33-.87-1.75-2.31-2.9-3.75-4.07-1.31-1.05-2.69-2.01-4.13-3.08-.89-.23-1.46.37-1.95,1.11-.27,1.38,1.99,1.87,1.28,3.38-.89.79-1.58-.24-2.64-.09-.07.93.04,1.98-.28,2.88-.33.92-.92,1.74-.87,2.78-2.35-.21-4.41-1.43-6.65-2.08-.67.26-1.29.5-1.98.77-1.08-.18-1.46-1.9-3.07-1.49-1.2,1.55-.06,3.55-.65,5.21-.17.13-.33.33-.4.3-1.24-.52-2.47-1.07-3.9-1.7-2.08.96-4.39,1.3-6.78,1.15-1.88-.12-3.5.97-5.44,1.03-5.29.17-10.39-.7-15.45-2.01-1.18,1.43-.75,2.94-.43,4.4.17.81.77,1.59.75,2.37-.08,3.18,1.49,5.47,3.67,7.5.25.23.54.41.83.62,1.9.61,3.82,1.22,5.97,1.91.29.82.54,1.79.98,2.66.46.9,1.1,1.7,1.67,2.56.14,1.32.29,2.66.42,3.91,1.77,2.2,4.5,2.54,6.7,4.2-1.11,1.61-2.73,2.81-4.1,4.24-1.42,1.47-2.79,3-4.33,4.33-1.52,1.31-3.55,2.02-4.52,3.99v2.47c.61.46,1.14.85,1.58,1.19-2.78,5.22-5.54,10.43-8.42,15.84-.72,0-1.57-.12-2.37.02-2.37.42-4.49-1.88-6.89-.64-2.09,1.08-4.37.29-6.79.88-.5.23-1.26.6-2.25,1.06-.29.73-.65,1.63-1.09,2.71h-6.05c-2.22,1.25-4.06,2.12-5.73,3.25-4.88,3.31-9.77,6.63-14.5,10.15-2.17,1.62-3.96,3.73-5.34,5.06-3.94,2.49-7.51,4.2-10.39,6.72-2.53,2.22-5.86,3.37-7.9,6.19-.36.5-1.12.72-1.72,1.04-2.54,1.36-5,2.83-6.99,4.97-.46.49-.97.99-1.56,1.3-2.87,1.52-5.41,3.45-7.63,5.81-.29.31-.89.34-1.32.48-2.1-2.77-2.88-6.2-5.04-8.71-1.47-.56-2.72-.44-4.04.17-2.44,1.14-4.93,2.17-7.43,3.17-1.1.44-2.27.73-3.51-.26,1.35-3.15.91-6.52.89-10.17-1.47-1.41-3.05-2.93-4.77-4.58-3.36,0-6.75-.03-10.14.02-.82.01-1.64.3-2.44.53-2.73.8-5.45,1.67-8.2,2.41-.77.21-1.65.03-2.49.03-1.14-1.67,1.22-2.91.1-4.74-.37-.53-1.2-.38-2.06-.14-2.18,1.37-2.44,3.95-3.75,6v3.99c.53.45,1.3,1.11,1.91,1.63,10.6,2.45,7.84,1.96,15.69-.34.69.36,1.56.83,2.59,1.37.08.59.16,1.24.23,1.79-1.06,1.44-2.67.4-3.86,1.14-1.14.71-2.41,1.22-3.95,1.98-1.14,2.3-2.41,4.86-4.05,8.17-.4.37-1.5,1.2-2.37,2.23-.86,1.01-1.48,2.21-2.32,3.51-1.58-1.11-3.27-.86-4.92-.88-2.72-.04-5.45-.07-8.17-.11-2.7-1.47-5.64-.76-8.48-.91-.33-.02-.67.07-1.16.13-.15.35-.32.77-.49,1.18.37.23.64.54.92.55,2.21.07,4.43,0,6.63.12,2.17.12,4.42-.39,6.46.92.5.32,1.34.24,2.01.18,2.42-.23,4.65.47,7.17,1.36.38,2.19-.09,4.58.35,7.12.84,1.59,1.79,3.37,2.7,5.08,5.34,2.02,10.55,2.83,16.21.29.46-.82,1.13-1.98,1.54-2.72,1.85-1.66,3.35-3,4.9-4.38.08-1.42.15-2.76.22-4.2.43-.19.87-.54,1.31-.55,1.01-.02,2.27-.23,2.99.27,1.39.96,3.05.32,4.39,1.12-1.25,2.44-2.88,4.54-4.9,6.37-1.26,1.14-2.33,2.49-3.6,3.62-3.46,3.1-6.32,6.6-7.8,10.97-4.18,3.53-6.7,8.16-9.51,12.56-1.99,3.12-4.13,6.15-6.21,9.2-.29.42-.74.74-.95,1.19-2.85,6.11-6.54,11.82-8.58,18.3-.4,1.28-.87,2.56-1.5,3.73-.27.5-.96.77-1.49,1.13.23,1.74-.54,3.22-1.33,4.65-.56,1-1.36,1.85-2.35,3.16-.54.31-1.49.85-2.45,1.4.12,1.93-.74,3.48-1.67,4.96-2.27-.46-2.94-2.3-4.25-3.89-.84,3.4,2.08,5.32,2.7,8.55v3.11c-.4.42-.85.9-1.42,1.51-.32-1.12-.57-2.02-.83-2.91h-1.4c-.73.68-1.59,1.48-2.19,2.04-.07.92-.11,1.42-.15,1.89.71-.3,1.42-.6,2.12-.89q1.82,3.54,4.69,4.47c-.29.4-.57.78-.9,1.25-.48-.13-.93-.26-1.45-.4-1.56.61-1.57,2.37-2.39,3.57-.73,1.08-1.39,2.22-2.08,3.34.34.3.85.59.89.93.13,1.16.05,2.34.05,3.54-1.36.43-1.64-1.01-3.14-1.37-.21-.02-1.05-.1-1.89-.19-1.56-.92-3.12-1.84-4.61-2.72-.45.22-.75.38-1.33.67-1.17-1.32-2.41-2.71-3.97-4.46-.15-.43-.46-1.34-.85-2.48-.78,1.58-.62,2.81,0,4.12.71,1.51,1.14,3.17,1.9,4.65.76,1.49,1.78,2.86,2.29,3.66,1.08,4.16-.44,7.31-.96,10.71-.95-2.06-1.77-4.03-2.76-5.91-.65-1.24-1-2.48-1.03-3.87-.02-.92-.63-1.53-1.61-2.02-.79,1.22-.48,2.55-.31,3.79.16,1.15.61,2.26.88,3.4.31,1.3.56,2.61.88,4.17-.16.36-.43.96-.69,1.57.08.32.12.66.25.96.68,1.57,1.59,2.96,2.91,4.1,1.31,1.14,2.47,2.46,3.82,4.4-.19-2.69.8-4.84-.72-6.94-.42-.58-.17-1.65-.23-2.49.68-.56,1.32-1.08,2.05-1.68v-4.61c.55-.65,1.12-1.27,1.63-1.93.35-.45.62-.97,1.04-1.65.9,4.4-.43,8.24-1.53,12.11.36,1.12.73,2.24,1.21,3.72.99,1.1,2.24,2.49,3.62,4.03.03,2.1,0,4.31.1,6.5.1,2.35-.33,4.74.84,7,.35.69.14,1.67.17,2.53.05,1.87-.23,3.82.21,5.59.45,1.81.73,3.61,1.04,5.43.3,1.79,1.14,3.49,1.77,5.32-.58.41-1.1.78-1.76,1.26.79.89,1.56,1.77,2.48,2.81.19,2.46,2.53,4.48,2.37,7.68-1-.42-1.71-.72-2.41-1.02-1.27-1.36-1.26-3.57-3.05-4.57-.81.69-.73,1.56-.28,2.24.93,1.42,1.82,2.73,1.92,4.57.06,1.08.73,2.32,1.5,3.14,2.8,2.98,3.96,7.09,7.52,10.05.25.08,1.04.32,1.79.55.11.65.19,1.13.27,1.61.16.05.36.09.38.18.48,2.18,1.9,3.85,3.02,5.68.61,1,1.32,1.96,1.88,2.99,1.76,3.28,3.65,6.46,6.02,9.37,1.38,1.68,2.38,3.67,3.51,5.55,1.83,3.05,3.81,6,6.47,8.42v2.32c-3.05,1.85-6.2,3.85-7.03,7.77.28.26.39.46.52.48.32.05.65.02,1.16.02.63-.79,1.32-1.66,2.01-2.53.56.53.51,1.76,1.93,1.43.73-1.34,1.53-2.79,2.17-3.96,1.59-1.63,4.14-.09,5.44-2.98v-5.37c.65-.23,1.08-.38,1.46-.51.19.21.39.33.41.47.14,1.66.25,3.32.37,4.98,1.92.23,1.43-2.1,2.78-2.38,1.02-.12,1.53.52,2.07,1.53-.69.64-1.43,1.33-2.35,2.2-.87.07-1.87.14-3.01.22-.42.36-.92.8-1.58,1.37,0,.77-.24,1.7.04,2.42.82,2.11,1.07,4.25.83,6.72-.87.98-1.88,2.11-2.82,3.16-.13.77-.25,1.43-.36,2.06-2.79,1.22-5.62,2.31-7.77,5.07-.25,2.21-.44,4.77-2.05,7.1.48.99.98,2.02,1.49,3.07-.4,1.03-1.5.33-2.26.72-1.09,1.49-2.18,2.97-3.28,4.46-.5,2.29-1,4.57-1.44,6.57.58,1.08.97,1.83,1.41,2.65,1.18.82,2.42,1.68,3.69,2.57,1.18.07,2.36.15,3.77.24.36.32.86.75,1.33,1.16-.35,1.59-.66,3.04-1.01,4.67,1.38,1.7,2.42,3.59,2.91,5.99-1.88,1.09-1.72,3.37-2.65,5.34.21.5.46,1.11.72,1.72-.25,1.12-.5,2.24-.75,3.36.48.08.95.16,1.49.24.49.85.99,1.72,1.59,2.75-.73,1.44-1.48,2.93-2.3,4.56.93,3.63,1.71,7.37,3.2,11.14-1.07,1.76-2.97,3.05-3.75,5.2-.9,2.49-2.5,4.7-3.54,7.38.76.14,1.21.23,1.8.34,1.16-2.3,2.18-4.62,3.45-6.79,1.26-2.16,2.78-4.17,4.29-6.41-.61-.78-1.22-1.56-1.82-2.32-1.07-4.25-2.31-8.48.18-12.84,2.06.15,2.83,2.08,4.36,3.15.08,1.22.15,2.39.23,3.67.69,1.6,1.41,3.28,2.2,5.1-1.54,2.27-3.85,4.03-4.28,6.83-.23,1.5-1.49,2.73-1.09,4.36.08.31.26.6.44,1,.4-.27.88-.45,1.14-.8.29-.38.44-.9.53-1.39.62-3.21,2.28-5.88,4.21-8.51,1.67.56,3.23,1.04,3.95,2.75,1.77-1.2,3.6-2.27,5.84-2.6,1.14,2.08-1.1,2.91-1.7,4.62.03.4.07,1.04.13,1.8.58.07,1.03.12,1.59.18.79-2.44.95-5.08,2.43-7.13,1.47-2.04,3.28-3.84,4.91-5.71.04-.84-.19-1.37-1.27-1.21-.61.82-1.28,1.72-2.16,2.9-.8-1.32-.72-2.37-.28-3.44.58-.82,1.58-.44,2.58-.56.69-.73,1.39-1.46,1.98-2.09.11-1.3.19-2.31.27-3.2.28-.31.48-.74.72-.76,2.3-.22,3.62-1.54,4.43-3.61.49-1.23,1.19-2.39,2.07-4.13,0-.58.12-1.79-.04-2.95-.13-.97-.59-1.89-.92-2.91.57-.8,1.16-1.62,1.87-2.62v-3.71c-.8-1.29-1.77-2.86-2.93-4.74v-4.23c.95-1.53,1.92-3.1,2.9-4.68v-4.35c-.47-1.11-1.04-2.44-1.7-4.01h4.64c1.09-.58,1.97-1.05,2.84-1.51.42-.76.82-1.49,1.34-2.43v-4.71c-.32-.58-.8-1.47-1.23-2.28-.83-.45-1.57-.86-2.53-1.39-1.95-.07-4.17-.72-5.99.79-3.11-.59-5.76-2.57-9.11-1.65-.14.35-.31.78-.57,1.45,2.35.61,4.59,1.2,6.89,1.79.39.7.8,1.43,1.25,2.23v5.08c-.56.09-.99.16-1.7.27v-5.24c-1.02-.55-1.89-1.01-2.72-1.45-1.27.59-2.48,1.14-3.79,1.74-.51-.41-1.03-.82-1.7-1.35v-5.93c-.91-1.01-1.69-1.88-2.26-2.5-2.63-1.23-5.42.37-7.7-1.43.35-1.65.69-3.24.99-4.65,1.67-1.07,2.71.58,4,.5,1.61-.1,2.91.8,4.39,1.09,1.31.25,2.61.58,4.27.95.46-.17,1.23-.47,2.18-.83,1.42.51,3.03,1.43,4.7.61,1.73-.85,3.2.56,4.89.28,1.65-.27,3.39-.06,4.93-.06,1.5-.65,2.34-2.37,4.41-1.81.56,1,1.2,2.15,1.95,3.48.73.4,1.61.9,2.45,1.37,1.68.32,3.49-.32,4.83.8,2.08-.28,4.05-.55,5.63-.76,1.43.71,1.95,1.5,2.01,2.63.13,2.7-.03,5.34-.49,8.06-.65,3.8-1.41,7.54-2.39,11.27-.5,1.91-.17,4.04-.22,6-.65.49-1.17.89-1.87,1.42.2,4.29-.95,8.5-2.14,12.7-.18.65-.24,1.35-.53,1.94-1.57,3.19-2.39,6.63-3.6,9.94-.44,1.2-.66,2.6-1.98,3.3.05,1.51-.45,2.65-2.03,3.08.34,2.02-.68,3.64-1.69,5.18-2.51,3.81-5.32,7.38-8.42,10.77-2.74,3-5.31,6.14-8.19,9.02-1.7,1.71-3.44,3.25-5.92,3.72-.63.12-1.34.45-1.76.91-1.66,1.81-3.84,2.79-5.98,3.78-4.95,2.27-9.12,5.74-13.67,8.63-.85.54-1.52,1.36-2.39,1.87-1.3.76-2.7,1.36-3.95,1.97-.97-.34-1.76-.61-2.78-.97-2,.91-4.14,1.89-6.78,3.09h-9.33c-1.31.95-2.74,1.85-4.02,2.93-1.3,1.1-2.52,2.3-3.64,3.57-1.61,1.83-3.45,3.21-5.87,3.79-2.02.48-3.68,1.66-5.23,3h-4.37c-.95-.41-1.69-.74-2.72-1.18-.78.81-1.47,1.55-1.94,2.04-.89,3.14-1.67,5.87-2.37,8.33-3.87,3.04-7.07,6.18-9.82,9.9-2.7,3.65-6.67,6.3-8.78,10.89.08.3.24.92.38,1.43,1.68.49,2.19-1.03,3.27-1.4ZM44.61,560.99c-.54-.74-.74-1.49,0-2.41,1.01.84.65,1.62,0,2.41ZM48.9,576.48c-.59-.07-.9-.11-1.3-.16-.49-1.45-2.08-2.68-1.02-4.51,1.34-.44,1.85.5,2.62,1.54-.08.89-.19,2-.3,3.12ZM47.93,549.03c.43.23.82.44,1.2.64q-.64,1.33-2.52,1.13c-.18-1.04.71-1.24,1.32-1.77ZM52.91,557.34c.55.73.94,1.24,1.39,1.82-.44.95-.85,1.84-1.34,2.89-1.72.59-3.51.28-5.69.24,1.51-2.73,4.01-3.16,5.64-4.95ZM51.11,543.65c-.18.42-.35.84-.54,1.28h-1.69c-.16-.38-.33-.8-.49-1.2q1.31-.61,2.72-.07ZM46.5,534.19c.72-.62,1.5-.43,2.16-.26.25.23.49.34.49.45q-.11,1.92-1.63,3.27c-.31-.07-.62-.14-.93-.2-.58-.58-.62-.58-.08-3.25ZM46.19,542.83c-.74,1.63-1.66,2.55-3.47,1.92-.81-1.11-.69-2.23-.13-3.59.51-.07,1.14-.15,2.07-.27.65.83,1.05,1.34,1.53,1.95ZM43.97,534.17v1.93c-.8.99-1.7.72-2.71.38.72-1.05,1.22-2.13,2.71-2.3ZM114.4,532.22c.5,1.23.06,2.56.08,3.97-.42.71-.88,1.49-1.49,2.52-.28-1.8-.51-3.27-.75-4.73-.05-.31-.17-.61-.3-1.06.87-.94,1.49-1.45,2.45-.7ZM139.9,470.9c.39-1.05.46-2.21.65-3.26.54-.06.86-.1,1.17-.13.66.49.61,1.21.37,1.79-.71,1.66-1.55,3.27-2.36,4.95-.92-1.26-.24-2.25.17-3.35ZM130.04,359.82c-.37.54-.55.8-.74,1.08-1.45-.23-2.3-.94-2.2-2.47.95-.74,1.13-.67,2.94,1.39ZM129.78,362.09c.81.04,1.19.53,1.25,1.17.15,1.51-1.25,2.28-1.32,3.85-1.03-.9-1.77-1.55-2.67-2.34.71-1.2,1.65-2.01,2.74-2.68ZM75.42,291.27c-1.24-.64-1.66-1.61-1.62-2.83.46.05.93.11,1.35.15.85.86.7,1.73.27,2.67ZM73.36,283.57c.72,1.57.4,3.19.38,4.79-.46-.04-.93-.09-1.37-.13q-.82-2.83.99-4.66ZM65.79,296.27c.67-.99,1.51-2.22,2.35-3.46.13.27.37.53.37.8.04,3.38.07,6.76,0,10.14,0,.32-.57.64-.89.95-1.16-2.58-2.2-5.19-1.85-8.43ZM67.56,304.79c-.8,1.3-1.19,1.29-1.91,0,.64,0,1.28,0,1.91,0ZM63.02,294.73c.84.87.76,1.73.02,2.61-.84-.87-.8-1.73-.02-2.61ZM117.19,264.12c.52.7-.03.63-.39.69.13-.23.26-.46.39-.69ZM110.29,262.97c.08.86.16,1.63.25,2.6-.7.45-1.34.86-1.99,1.28-.1-1.49-.23-2.99,1.74-3.88ZM108.43,267c-.12.24-.24.47-.35.71-.53-.66-.01-.64.35-.71ZM103.52,269.1c.21.12.42.23.63.35-.65.49-.57-.03-.63-.35ZM101.72,266.35c.62-.34,1.34-.73,2.22-1.21.19.43.57.87.48,1.18-.25.89-.66,1.74-1.02,2.61-.48-.06-.96-.12-1.4-.18-.75-.69-.73-1.46-.28-2.4ZM145.98,193.63l.31.68c-.24-.1-.47-.21-.71-.31.13-.12.26-.25.4-.37ZM146.39,196.19c.03-.6-.02-1.21-.03-1.81.48.07.96.14,1.45.21,1.19,2.18.19,3.91-.97,5.62-.32.03-.64.05-.96.08-.75-.85-.39-1.9-.51-2.86.62-.18,1-.58,1.03-1.24ZM147.31,207.66c.33-1.67-1.22-2.43-.66-4.07,2,1.87,2.99,3.76,2.65,6.56-.7.74-1.6,1.68-2.67,2.8-.73-.49-.99-.67-1.38-.93.75-1.6,1.51-3.22,2.05-4.36ZM145.23,197.32c-.22-.11-.44-.22-.66-.34.64-.5.59,0,.66.34ZM289.12,12.24c.29-.25.52-.52.81-.67,4.17-2.11,4.57-2.41,7.73-5.76,1.16-1.24,2.52-2.17,4.25-2.41.19.26.36.5.65.9-1.1.92-2.25,1.8-3.31,2.79-1.11,1.04-2.12,2.18-3.18,3.26-.95.96-1.9,1.92-2.87,2.86-1.09,1.06-2.19,2.09-3.61,3.44-.87-.28-1.46-.46-2.02-.64.04-1.63.91-2.67,1.56-3.76ZM281.72,23.97c1.5-1.99,3.38-3.68,4.64-5.87.36-.63,1.1-.45,2,.47-.47,1.45-1.97,2.17-2.76,3.4-.81,1.26-1.53,2.57-2.34,3.83-.79,1.25-1.05,2.87-2.56,3.64-1.13-2.1-.13-3.93,1.02-5.47ZM195.44,136.85c1.43-1.83,1.83-4.56,3.09-6.71.88-.05,1.37-.13,1.85-.07.3.04.57.29.88.46,0,.31.14.74-.02.93-1.18,1.4-2.42,2.75-3.74,4.23.93.26,1.7.48,2.56.73-.24,1.28-.58,2.49-2.07,3.49-.64.05-1.59.13-2.55.22v-3.27ZM194.06,154.32c-.23-.33-.55-.59-.57-.88-.33-3.89-.24-7.79-.05-11.87.67-.45,1.33-.89,2-1.34.27.34.5.77.86.93.58.26,1.26.3,1.74.4,1,1.97-.39,3.05-1.09,4.46-.58.13-1.23.27-1.92.42-.51.45-.84.96-.13,1.82.83.04,1.82.09,2.8.14,1.05.74.62,1.82.81,2.94-.99,1.03-1.99,2.06-3.04,3.15-.47-.06-.96-.11-1.41-.17ZM202.08,160.48c-1.87-1.19-3.69-2.34-5.51-3.5-.04-1.91,1.5-2.49,2.61-3.41,1.49.26,2.24,1.41,3.21,2.43.21,1.41.57,2.87-.31,4.49ZM206.45,159.14c-.34.11-.77.24-1.27.39-.74-1.21-.59-1.94-.28-2.79h1.28c.69.72.58,1.48.27,2.4ZM208.97,158.15c-.07-.59-.15-1.22-.24-1.94.6-.57,1.18-1.12,1.57-1.49,1.36-.1,1.82.62,2.29,1.31-.81,2.4-.82,2.41-3.61,2.12ZM222.86,180.79c.17,1.28-.07,2.37-1.57,3.1-.2-1.15-.39-2.24-.58-3.35-.81-1.32-1.92-2.23-3.41-2.86-1.23-.52-2.18-1.55-2.32-2.98,1.07-1.18,2.2-.87,3.33-.56,1.52,2.23,3.04,4.44,4.54,6.64ZM217.34,171.53c-2.3-1.26-5.01-1.92-6.48-4.4-.16-.82-.36-1.64.48-2.24.32.05.8,0,.91.18.69,1.12,1.3,2.29,1.9,3.37,3.47,1.08,3.67,1.27,3.19,3.1ZM219.54,155.54c-1.08-.15-1.73-.23-2.65-.36.61-.66,1.04-1.13,1.38-1.49,1.29-.12,1.62.38,1.28,1.85ZM223.42,156.53c-.88-.09-1.52-.16-2.45-.26.33-1.92,1.23-2.49,2.41-2.95.86-.34,1.58-1.06,2.4-1.64.39.46.71.83,1.18,1.38-1.22,1.2-2.4,2.36-3.53,3.47ZM222.03,150.7c.02-1.17.76-1.8,1.68-2.27.91-.04,1.18.47,1.13,1.25-1.61,1.09-1.61,1.08-2.81,1.01ZM229.66,151.21c-.46-.7-.93-1.37-1.35-2.07-.29-.48-1.14-.7-.78-1.52,2.38.44,2.81,1.18,2.12,3.59ZM232.74,149.04c-.53-.83-1.04-1.62-1.6-2.48.21-.4.41-.79.66-1.28.51.28.91.5,1.24.68.16,1.1.45,2.09-.31,3.08ZM238.86,142.02c-.92-.5-1.6-1.12-1.28-2.31.85-.93,1.69-.58,2.47-.2.51,1.44-.34,1.97-1.18,2.51ZM245.06,137.85c-1.37.36-2.51.61-3.5-.34.04-.33.07-.64.11-1.06,1-.43,2.05-.88,3-1.3.92.82,1,1.57.39,2.7ZM245.02,127.98c-1.72,2.26-3.82,4.18-5.62,6.35-.53.64-1.21,1.25-1.94,1.6-2.01.96-3.79,2.17-5.44,3.67-.83.75-2.09,1.06-3.18,1.48-1.1.42-2.23.74-3.36,1.07-1.99.59-3.7,1.58-5.11,3.14-1.82,2.02-3.73,3.97-5.54,5.88-1.28.13-2.28.23-3.54.36-1.29,1.33-3.17,2.04-5.15,2.54-1.08-.34-2.2-.69-3.59-1.12-.57-.98-1.24-2.13-1.84-3.16-.53-3.73-.29-8.25,1.19-13.16.51-1.67.55-3.32.85-4.97,1.83-3.22,2.82-6.95,5.9-9.4.09-2.11.18-4.13.27-5.97.59-1.71,2.15-2.03,3.32-2.35,2.35-.63,4.42-1.59,6.28-3.14.32-.27.93-.19,1.43-.25.13.61.27,1.22.42,1.96,3.12-.7,4.08-3.79,6.7-5.04,1.8.6.89,2.13.94,3.4-.59.75-1.22,1.54-1.91,2.41.18.38.37.79.55,1.16.31,0,.53.07.64-.01,3.45-2.66,6.75-5.53,10.3-7.73,1,.37,1.78.65,2.61.96,1.34-.91,2.72-1.61,3.8-2.63,1.08-1.02,1.85-2.37,2.83-3.67,1.11.37,2.01.75,2.95.95.81.18,1.67.16,2.25.21,1.24.71,1.43,1.64,1.63,2.7.57,2.98-.53,5.75-1.22,8.47-1.35,5.27-4.09,9.93-7.39,14.27ZM214.84,96.19h0c.52-.56,1.04-1.13,1.67-1.81.74,1.64.19,3.35.53,5.23.52.76,1.18,1.72,1.92,2.81-.3,1.09-.61,2.2-.91,3.31.26.45.5.89.75,1.34-.2,2.2-3.42,4.27-6.57,4.2-.58-.75-.54-1.61-.15-2.37,1.63-3.2,1.48-6.85,2.66-10.16.27-.76.08-1.69.1-2.54ZM219.97,110.49c.05-.59.34-.94.97-.97-.02.63-.37.93-.97.97ZM220.98,109.48l.32-.68c.12.13.25.25.37.38-.23.1-.46.2-.7.3ZM249.47,97.31c-.12.24-.25.47-.37.71-.52-.68,0-.64.37-.71ZM250.73,90.94c.53-2.23,1.53-4.34,2.33-6.55,1.21-.75,1.73.27,2.35,1,1.16,2.54-.97,4.42-1.12,6.52-.96,1.01-1.69,1.97-2.61,2.68-.92.71-.86,2.18-2.09,2.58-.41-2.21.64-4.19,1.13-6.23ZM247.11,134.81c-.19-.18-.4-.28-.41-.41-.07-.62-.08-1.24-.11-1.84,1.43-.92,2.62-.76,4.1.26-.85,1.93-1.95,2.56-3.58,1.99ZM249.9,130.84c-.79-2.65.86-3.99,1.77-5.63,1.76.39,3.32.74,4.89,1.09-.98,3.01-2.63,4.15-6.66,4.53ZM258.5,124.27c-1.03.68-2.04.39-3.17.42-.42-.34-.93-.76-1.51-1.23v-3.18c.43-.47.97-1.05,1.39-1.5.46.05.71,0,.78.1.97,1.33,1.91,2.67,2.85,3.99-.14.58-.25,1.04-.34,1.4ZM260.59,120.25c-.51.07-.94.13-1.28.17-.89-.92.16-1.6.07-2.4-1.15-.6-2.32-1.22-3.4-1.79-.51-1.67.1-2.73,1.88-3.76,2.72,2.09,3.26,4.66,2.74,7.78ZM290.02,63.8c1.29,2.55,2.43,5.13,2.44,8.19,2.59,2.37,2.54,6,4.06,8.92-.23.54-.43.99-.65,1.48.17.41.36.87.55,1.33-1.27,4.07-1.26,4.07-2.61,5.16-.65-1.77-1.29-3.49-1.99-5.42.48-.69,1.03-1.48,1.64-2.35v-5.45c-.43-.73-.6-1.64-1.68-1.56-.61,1.12-.32,2.33-.26,3.48.06,1.07.3,2.14.47,3.21-.31-.01-.62-.03-.92-.04-.4-1.06-.75-2.14-1.2-3.18-.41-.92-.94-1.79-1.43-2.72.04-3.66-.27-7.37.34-11.05h1.25ZM288.43,58.71c-1.15.87-1.72.71-2.01-.28.58.08,1.16.16,2.01.28ZM286.32,58.41c-.35.3-.82.55-.98.93-.73,1.84-1.36,3.72-2.08,5.73.7.18,1.13.29,1.56.4.64-1.63,1.23-3.17,1.95-5.01.92,1.73.92,3.37.42,4.63-.9,2.29-.64,4.65-.98,6.86-.91,1.13-1.78.88-2.7.14.32-1.22.64-2.45.91-3.49-1.53-2.14-2.9-4.04-4.33-6.04.77-2.34,1.5-4.55,2.28-6.91,1.69.63,3.33.92,3.94,2.76ZM273.84,42.9c.36-.56.82-1.06,1.18-1.61.27-.41.39-.93.7-1.31.26-.31.68-.49,1.17-.82q-.87,4.07-2.84,6.14c-.51-.45-.73-.64-.96-.85.33-.69.5-1.15.76-1.55ZM273.61,46.12c.47.45.93.89,1.34,1.28-.51.99-.88,1.71-1.22,2.39-1.51.46-2.17-.31-2.55-1.52.1-1.12.71-1.78,2.44-2.15ZM270.48,59.55c.71-2.37,1.43-4.73,2.18-7.17,2.81-.41,5.3.11,7.49,2.33.03.59.15,1.25.08,1.9-.08.81.24,1.7-.61,2.63-.62-.15-1.37-.33-2.24-.53-.58,2.23-1.17,4.46-1.76,6.73-.53.03-1.01.06-1.49.09-.17-3.63-.13-7.24,1.34-10.95h-2.05c-.69,2.94-1.1,5.94-2.84,8.48-.84-.28-.62-1.01-.56-1.57.06-.65.28-1.3.47-1.93ZM269.83,45.56c-.5.54-.91.97-1.39,1.49q-.35-1.67,1.39-1.49ZM264.5,51.57c.14.41.36.82.4,1.24.03.29-.2.61-.33.96-1.45-.59-.17-1.45-.08-2.21ZM253.91,30.35c.03-.42.57-.79.87-1.17,2.22.44,2.67,2.36,3.51,3.91.6,1.11.5,2.28.16,3.45-.8,2.73-1.3,5.53-1.66,8.33-.23,1.82-1.48,3.39-1.14,5.3h-2.18c-2.42-1.3-1.68-3.32-1.75-5.24.96-.78,1.97-1.6,2.97-2.41-1.67-4.09-1.09-8.14-.77-12.17ZM251.03,31.72c.59.69.99,1.16,1.39,1.62-.72.67-1.33.48-1.67-.13-.15-.27.13-.79.28-1.49ZM250.84,52.51c.8-.1,1.42-.17,2.21-.26.91,2.18.4,4.34.4,6.46-1.43,2.11-.66,4.49-.85,6.75-1.55-1.01-1.6-2.84-1.77-4.28-.33-2.79-.33-5.66,0-8.67ZM253.61,66.52c-.56-.06-.84-.39-.92-.92.56.05.87.36.92.92ZM247.49,30.09c-1.17.94-1.64.58-1.94-.27.55.08,1.11.15,1.94.27ZM245.42,29.73c-.78-.05-1.67.13-1.94-.95.79.03,1.68-.15,1.94.95ZM226.78,37.65c.22-.79.42-1.58.63-2.33q1.78-.32,3.16.56c.35.59.32.69-1.45,4.69-.98-.19-1.99-.39-3-.59.22-.77.44-1.55.66-2.32ZM208.65,39.15c-.56,1.01-1.43.8-2.3.72-1.32-.74-2.27-1.75-2.93-3.25-.51-1.17-1.68-2.05-2.57-3.07,1.64-.7,2.59-.59,3.21.54.46.84.68,1.81,1,2.69.49-.07.8-.11,1.19-.16.21-.75.43-1.52.63-2.24.75-.6,1.26-.26,1.76.33v4.43ZM213.67,42.26c-1.76-.38-3.42-.36-4.03-2.62.25-.63.68-1.53.97-2.47.29-.94-.17-2.02.51-2.9.8-.44,1.58-.5,2.54.2.69,2-2.01,3.94-.55,6.14.97-.05,1.37-.78,1.62-1.53.52-1.58.94-3.19,1.39-4.75,1.34-.8,2.73-.36,4.05-.44,1.35-.08,2.72-.02,4.15-.02.5.44.99.88,1.46,1.29-.78,1.63-1.49,3.12-2.25,4.71h-2c-.14-1.66,1.45-3.22-.07-4.69-.16.07-.33.11-.47.2-.14.09-.3.19-.37.33-.24.43-.58.87-.63,1.34-.23,2.31-1.9,4.24-1.97,6.96,1.06-.71,1.82-1.22,2.65-1.77,2.69,2.63.34,5.07,0,7.51-.4.1-.71.17-1.17.28-.82-1.39-1.53-2.92-2.53-4.23-1.02-1.34-2.31-2.48-3.3-3.52ZM218.25,53.88c.22-.92.91-1.28,1.72-1.57,1.49-.52,1.98-1.71,2.04-3.42.86-.97,1.86-2.08,2.75-3.08-.34-.94-.61-1.71-.83-2.31.63-1.37.91-2.68,2.08-3.41.13,1.94-.48,3.99.85,5.78-.57,2.24-1.14,4.49-1.72,6.74.11.13.26.39.32.37,1.1-.34,2.18-.72,3.15-1.05.6-.78,0-1.32-.09-1.94-.16-1.14-.37-2.41-.01-3.44.71-2.03,1.15-4.19,2.58-5.97.8-1,1.17-2.34,1.78-3.65.6.05,1.24.1,1.77.14.25.46.53.74.53,1.03.02,1.84-.03,3.69-.06,6.16-.66-1.04-.92-1.55-1.27-1.99-.31-.39-.71-.69-1.21-1.16-.48.98-.91,1.85-1.41,2.86.77,1.45,1.08,3.06,1.02,4.78-.09,2.5-.03,5.01-.03,7.52,1.45-.89,1.75-2.7,3.02-3.66v-6.26c.63-1.34,1.28-2.7,2-4.24.11-3.48.59-7.17-.94-10.92,2.6-.26,4.11,1.5,5.9,2.27.96,2.64-1.45,4.58-.93,7.1-.78.64-1.54,1.26-2.74,2.24-.26.51-.79,1.55-1.38,2.71,1.03,2.19,1.45,4.4.29,6.75-.4.81-.48,2,.35,2.86q1.34-.31,2.46-1.34c.72-1.43-.96-2.68-.13-4.34.63-1.24.27-2.98.34-4.38.77-1.64,1.34-3.25,2.24-4.65.87-1.35.63-2.93,1.05-4.26.54-.06.86-.09,1.18-.13,1.1.66,1.6,1.64,1.6,2.9h2.35c.6.65,1.06,1.14,1.67,1.79-.33.73-.67,1.47-.99,2.19,0,.88-.06,1.73.01,2.57.25,2.95-.61,5.65-1.82,8.28-.7,1.52-1.53,3.03-1.18,4.88-.82.88-1.62,1.74-2.42,2.6-1.18-1.1.14-1.85.14-2.73-1.09-2.63-1.04-5.25.25-7.84-.49-1.15-.94-2.22-1.37-3.21-.48-.06-.8-.09-1.22-.14-1.09,1.31-.89,2.97-.37,4.26.89,2.21.75,4.16.11,6.4-.5,1.73-.23,3.68-.3,5.54,1.85.61,2,2.52,2.9,3.86,0,3,.47,6.04-.84,8.95-.24.53.02,1.29.05,1.95,1.13.29.79-.84,1.27-1.11.78-.25,1.56-.49,2.26-.72,1.02-1.28.1-2.26-.41-3.53.66-1.7,1.13-3.65.65-5.77-.53-.74-1.12-1.56-1.74-2.43v-2.44c.21-.52.43-.59.66-.24.35.53.43,1.21,1.21,1.48.6.2,1.13.67,1.62,1.1.5.44.91.98,1.53,1.66-.15,1.67-.31,3.44-.47,5.21,1.03.68,1.85.03,2.78-.37.89-.39,1.89-.53,2.72-.75q.94-1.57.77-3.39c-.6.18-1.18.51-1.76.49-.32-.01-.62-.57-.92-.89.24-.16.5-.34.98-.67,0-1.14-.07-2.47.01-3.79.16-2.65-.16-5.31.87-7.92.46-1.17.14-2.65.17-3.99,2.11-1.67,2.58-4.25,2.85-6.56.26-2.23,1.09-4.21,1.57-6.45.41.27.79.51,1.33.86-.18.6-.35,1.2-.53,1.81.98,2.61,1.27,5.17.15,7.87-.49,1.2-.38,2.65-.54,3.95-1.93,2.14-2.6,4.7-2.79,7.43-.07,1.02.02,2.06-.15,3.06-.16.96-.56,1.88-.91,2.97,1.01.76,1.94,1.45,2.97,2.21-.35,1.74-.66,3.54-1.1,5.31-.4,1.59-1.51,3.08-.55,4.82q1.41-.03,2.68-1.68c-.23-.54-.48-1.15-.74-1.78.61-2.42,1.22-4.84,1.89-7.5-.62-.87-1.3-1.82-1.97-2.77q-.21-4.67,1.51-9.3c.31.06.63.11.98.18.66,1.27.32,2.65.34,3.98.01,1.26-.24,2.53-.38,3.79,1.71.07,2.37-.91,2.53-2.16.22-1.71.92-2.91,2.97-3.02-1.8-2.52.08-4.4.45-6.59h1.56c.03,2.44.36,4.7-.44,7.06-.53,1.55-.43,3.33-.62,5.16-1.21,2.58-2.26,5.36-1.82,8.26.38.32.49.52.63.53.51.04,1.02.01,1.47.01.3-.26.73-.45.77-.7.3-1.88.98-3.57,2.44-5.16.49-.05,1.11-.12,1.73-.19-.27.58-.54,1.16-.84,1.79.46,1.38.96,2.76.93,4.35-.02,1.32-1.4,2.39-.68,3.93.52-.4.92-.7,1.45-1.12.34-3.81,1.75-7.38,3.76-10.78.69,1.09.41,2.75,2.04,3.16,1.16,1.9,2.33,3.75.93,6.11-.49.83-.57,1.9-.82,2.8-.54.32-.97.57-1.32.77-1.4-.05-2.51-1.49-3.94-.45-.14.25-.39.52-.44.81-.25,1.49.42,3.03-.24,4.49-1.63.09-1.58-1.41-2.35-2.43-.57,1.24-1.09,2.38-1.37,3.01-.11,1.7.95,1.83,1.53,2.41,1.07,3.16,2.15,6.33,3.4,10.03v5.12c-.52.36-1.07.74-1.73,1.19-.57,2.85-1.09,5.83-2.86,8.56-.88.11-1.86.24-2.83.36-.95,1.2-1.92,2.36-2.84,3.57-.8,1.06-1.54,2.16-2.56,3.62-.83-3.26.1-6.17-.66-9.23-1.04-.73-2.25-1.57-3.62-2.52-.09-1.44-.19-2.94-.28-4.43-.59-.52-1.09-.95-1.43-1.25-1.33-.31-2.29,1.46-3.47.16.23-1.96,1.47-3.32,2.76-4.67,1.04-1.09,1.95-2.18,2.39-3.79.37-1.35,1.7-2.45,2.6-3.66-2.03-2.84-3.45-6.39-8-6.59-1.38.65-2.49,1.92-3.52,3.17-.87,4-1.61,7.95-2.61,11.84-.58,2.27-1.52,4.46-3.99,5.43-.85,1.21-1.7,2.42-2.55,3.64-.76-.23-1.54-.48-2.49-.77-1.58.93-3.16,1.86-4.96,2.91-.58-4,.05-7.83,1.34-11.59,1.42.41,1.5,1.8,2.05,2.79.45.83.56,1.84.85,2.92.55-.45.94-.76,1.53-1.24-.24-3.77.82-7.5,1.36-10.87,1.14-1.49,2.03-2.67,2.66-3.5v-5.55c-.49.17-.81.28-1.12.4-2.37.01-2.86-2.57-4.64-3.35-.33-3.7.14-7.43-.18-11.34-.56.33-.98.48-.97.59.35,3.59-1.1,7-1.02,10.56.02.68,0,1.36,0,2.13.44.81.91,1.69,1.35,2.51.74-.23,1.38-.43,2.08-.65.52.97.99,1.86,1.44,2.71-.54,2.67-1.94,5.06-2.08,7.81-.03.53-.74,1.03-1.56,2.09-.06-2.13-.09-3.6-.15-5.07-.06-1.53-.15-3.06-.24-4.79-.52-1.04-1.12-2.25-1.76-3.54-.35-1.88.11-3.93-.81-5.91-.42-.9.06-2.22.14-3.48-.28-.24-.66-.56-1.13-.96-.42,1.91-2.59,2.82-2.47,4.92h-1.24c-.84-.74-1.79-1.67-2.84-2.48-.92-.71-1.94-1.28-2.93-1.92.4-1.74.76-3.32,1.25-5.49.61-.67,1.62-1.79,2.73-3-.07-.6.03-1.35-.27-1.88-.66-1.16-1.51-2.21-2.17-3.12-1.2-.59-2.41-.89-3.2-1.64-.96-.92-2.24-.63-3.2-1.31ZM221.33,62.15c.19-1.18.98-1.54,2.17-1.54.09.41.19.84.28,1.23-.83.65-1.6.74-2.44.31ZM212.02,80.12c1.14-1.23,2.46-2.3,3.43-3.19.98-3.64,1.85-6.84,2.64-9.79,1.18-1.69,2.61-1.79,4.16-1.48.15.13.41.27.39.34-.29,1.3-.61,2.59-1.03,4.31-1.32,1.56-3.19,3.32-3.87,6.21.21.49.54,1.23,1.19,2.72v3.6c.33-.31.85-.6.88-.93.11-1.35.04-2.71.04-3.91.92-1.83,1.74-3.47,2.69-5.35.68.35,1.3.55,1.76.95.77.66,1.39,1.5,2.17,2.14.76.63,1.64,1.11,2.43,1.63v7.37c-.59-.35-.96-.57-1.51-.9-.14-1.75-.28-3.58-.44-5.55-.43-.11-.86-.23-1.29-.34-.62,1.82-.9,3.73-1.86,5.21-1.09,1.69-.63,3.61-1.47,5.33-.7,1.45-.69,3.25-.98,4.89-.32,1.8-.64,3.61-1,5.65.13.15.45.53.95,1.11.51-.42.97-.8,1.58-1.31v-4.9c1.34-.82,2.3.86,3.67,0,.25-.68.49-1.64.94-2.49.39-.74,1.01-1.35,1.49-1.98.08-.91.16-1.75.24-2.63.61-.53,1.23-1.06,1.88-1.63v-6.95c-.33-1.25-.62-2.34-.9-3.42.54.32,1.07.64,1.69,1.01.52,3.51.87,7.02,2.31,10.13v6.01c-.66,1.43-1.23,2.65-1.88,4.05-.04.31-.12.8-.17,1.31-.16,1.49-.03,2.96-.59,4.48-.75,2.04-.64,4.25.4,6.53-.28.32-.61.69-1.13,1.27-.96-1.71-.36-3.26-.83-4.6-1.23-1.53-2.38-.15-3.85.17-.24-.23-.6-.58-.94-.9.32-1.53.68-2.79.83-4.08.13-1.15.03-2.33.03-3.87-1.4.76-.83,1.9-1.24,2.61-.41.71-.71,1.55-.78,2.35-.14,1.58-.83,2.91-1.68,4.15-.33.48-1.04.7-1.79,1.17-.94-2.01.1-4.11-.81-5.62-1.09-1.82-.41-4.07-1.8-5.71.07-1.84-.42-3.48-1.71-4.86-.46,1.95-1.58,3.71-1.44,5.78-.15.06-.36.1-.4.2-1.39,3.74-2.75,7.49-3.73,11.36-.41,1.6-.91,3.18-1.36,4.74-.52-.09-.84-.15-1.22-.22-.76-1.25-.63-2.81-.18-3.9.91-2.16.86-4.32.75-6.49-.2-4.15.7-7.97,2.45-11.73.9-1.92,2.03-3.91,1.67-6.22h0c-.67.02-1.35-.02-2.01.08-.58.09-1.14.34-1.99.6.32-2.28,2.06-3.22,3.25-4.5ZM225.8,91.28c-.79-.88-1.3-1.45-1.88-2.09.29-.91.56-1.68.79-2.46.23-.78.44-1.57.66-2.35.52,2.21.99,4.33.43,6.9ZM209.1,88.31q-.6,1.51-2.06,1.34c.36-.94.82-1.75,2.06-1.34ZM207.09,120.66c-.23.62-.46,1.27-.85,1.79-1.29,1.71-2.65,3.37-4.17,5.29-1.04.1-1.9.4-2.56-.83,1.09-2.18,2.25-4.52,3.48-6.99h4c.04.25.18.54.11.75ZM206.57,117.09c-1.29.69-1.74.27-1.85-1.15.27-.31.69-.8,1.6-1.85.14,1.62.2,2.36.26,3ZM204.96,101.77q.67,1.08.29,3.66c-.99-1.5-.86-2.57-.29-3.66ZM200.72,100.01c.54-.83,1.31-.83,2.25-.54.16.33.35.74.52,1.12-.63.84-1.07,1.78-2.28,1.58-.86-.57-.66-1.37-.5-2.16ZM196.81,96.65c.99-.49,1.77-.49,2.66.4-.45.95-.93,1.98-1.49,3.16-.91-.09-1.69-.16-2.83-.27.69-1.37,1.21-2.39,1.66-3.29ZM186.39,96.51c2.01-.51,3.61-.91,4.94-1.24,1.81.75,2.23,1.87,1.76,3.42-2.27,1.39-4.98,1.42-7.69,2.29-.39-1.62,1.31-2.71.99-4.47ZM177.41,100.35c2.22-1.2,4.17-3.36,7-4,.26.33.44.57.63.82q-2.42,3.42-7.64,6.85c-.69-1.1-.54-2.22.01-3.66ZM171.14,102.74c.72-.31,1.57-.68,2.64-1.14v3.41c-.63.55-1.01.87-1.59,1.39-.62-.32-1.3-.68-2.1-1.1.37-.9.67-1.63,1.06-2.55ZM166.45,105.56c.31.07.63.14,1.01.23.53,1.47-.78,2.41-1.08,3.64-1.41,1.5-3.05,2.59-5.14,3.02,1.27-3.23,1.9-4.06,5.21-6.9ZM154.21,114.33c1.7-.7,3.02-2.36,5.18-1.41-2.92,3.38-4.99,4.88-7.08,5.02.66-1.26,1.28-2.43,1.89-3.6ZM148.89,120.05q-1.93,2.87-4.04,3.45,1.33-3.51,4.04-3.45ZM134.51,130.15c1.71-1.81,3.46-3.59,5.02-5.2h2.36c-.18,1.49-.8,2.61-1.84,3.42-1.56,1.21-3.2,2.31-4.91,3.54-.31-.22-.66-.46-.96-.67.13-.47.12-.88.32-1.08ZM127.09,135.63c1.54-1.65,2.86-3.86,5.62-4.18.92,1.56-.4,2.56-.8,3.76-.09.14-.16.31-.29.4-1.42,1.09-2.85,2.17-4.53,3.45v-3.43ZM60.69,127.6v-4.1c.81,1.54,1.3,2.46,1.78,3.37-.53.22-1.07.44-1.78.73ZM66.39,128.37c-.69.66-1.5.55-2.65.31-.31-.48-.72-1.12-1.13-1.77.91-.19,1.81-.39,2.72-.58.75.47,1.3,1.05,1.06,2.05ZM70.41,127.6c-1.48.31-2.12-.33-2.66-1.6,1.37-.03,2.64-.06,3.9-.1-.45.62-.9,1.24-1.24,1.7ZM71.76,125.84c.08-.89.74-1.36,1.44-1.69.33-.16.83.04,1.3.08-.57,1.37-1.53,1.72-2.74,1.61ZM84.39,123.85h2.88c.25.43.48.83.64,1.12-.26,1.17-2.11.76-1.76,2.48,1.13.16,2.32-1.26,3.52-.23.09.1.31.22.31.34.02,1.85.01,3.7.01,5.66-1.08,1.55-2.21,3.16-3.44,4.92-.21-.61-.43-.93-.41-1.23.17-2.74-.71-5.26-1.53-7.8q-.61-1.9-.24-5.26ZM84.26,148.71c1.67.69,1.94,1.83,1.69,3.24-1.22.19-1.51-.63-2.02-1.4.09-.53.21-1.16.33-1.84ZM82.44,124.01c.15.42.3.84.5,1.4-.54.09-.98.15-1.66.26-.11-.66-.21-1.24-.3-1.82.46.05.92.09,1.47.15ZM80.87,123.74c-.24-.11-.48-.23-.73-.34.64-.57.63-.03.73.34ZM80.84,135.98c-.22-.11-.43-.23-.65-.34.66-.52.58.02.65.34ZM72.77,161.53c-1.36-.65-2.94-.94-4.01-2.87-.04-3.1-.1-6.65-.13-10.2,0-.5.03-1.04.2-1.5,1.1-2.98,2.24-5.94,3.35-8.87.74-.41,1.31-.75,1.91-1.04.74-.37,1.51-.7,2.41-1.11.73.44,1.41.86,1.86,1.13.2.47.35.64.32.77-.45,1.74-.92,3.48-1.41,5.21-.02.07-.23.1-.39.13-.11-1.27.56-2.65-.53-3.78-.34-.02-.73-.17-.98-.05-1.05.51-2.06,1.11-3.09,1.67-.53,1.52-1.13,2.91-1.48,4.36-.35,1.46-.21,2.98-.75,4.48-.49,1.37-.29,3-.41,4.64,1.1,1.62,2.22,3.28,3.36,4.95,1.25.16,2.4.31,3.5.46.07.47.12.78.17,1.11-1.2.89-2.59.41-3.89.51ZM76.33,145.94c-.61-1.04-.88-2,.46-2.62-.03.89.26,1.83-.46,2.62ZM77.06,157.45c-.3,0-.6-.22-.92-.35-.61-.73-.26-1.59-.29-2.41-.02-.64-.11-1.28-.19-2.11-.92.64-1.6,1.11-2.3,1.59-.2-.21-.56-.41-.56-.62-.05-1.52-.03-3.04-.03-4.49,1.4-1.33,3.07-.22,4.6-.9.27-.22.66-.55,1.25-1.04.35-3.63,2.05-7.14,2.33-10.98.16.04.39.07.41.14.75,3.25,1.74,6.46,1.56,10.21-2.31,2.99-1.12,7.73-4.4,10.78-.48.07-.97.19-1.46.18ZM83.51,158.21c-.72.38-1.73.92-2.76,1.46-.18-.37-.45-.71-.37-.82.7-1.13,1.47-2.23,2.37-3.57.78-.45,1.79-1.03,2.8-1.61.17.19.34.38.5.56-.79,1.23-1.57,2.45-2.54,3.97ZM87.41,142.29c-.21,1.3-.39,2.38-.58,3.5-1.12.23-1.43-.65-1.63-1.33-.23-.78-.14-1.65-.2-2.63.75-.79,1.55-1.62,2.49-2.62.88.9,1.67,1.71,2.46,2.52.04.88.08,1.69.12,2.5h-1.42c-.39-.6-.74-1.15-1.25-1.94ZM91.06,148.54c-1.12,1.07-1.86.57-2.53-.33-.15-1.58,1.18-2.55,1.61-3.89.26.14.53.28.93.49v3.73ZM47.96,284.85c-.48.13-.78.22-1.08.3-1.18-1.54-1.62-3.66-3.67-4.63.15-.41.29-.83.51-1.46,1.02.48,1.91.9,2.85,1.35.66,1.27,1.77,2.41,1.4,4.45ZM43.92,284.82c-.1.5-.16.81-.22,1.12q-2.46.42-3.61-.71c.36-.49.73-1,1.24-1.71.93.47,1.78.9,2.58,1.3ZM59.3,289.93c-.41.45-.85.93-1.5,1.63-1.01-3.34.02-6.09,1.5-9.93v8.3ZM55.54,268.67c.8.6,1.61,1.19,2.6,1.93.33.67.78,1.56,1.14,2.29,0,.54.09.91-.01,1.21-.9,2.51-1.98,4.97-2.2,7.65-1.59-3.53.92-6.7.3-10.02-1.52-1.56-1.91.35-2.71.56-.6,4.07-1.17,7.87-1.72,11.63-.42.1-.73.18-1.02.25-1.49-.67-1.34-2.23-1.96-3.37-.63-1.16-1.7-2.09-2.58-3.11-.65-2.29-.17-4.34,1.25-6.25,1.06-.35,2.15-.71,3.3-1.08.22.73.45,1.51.71,2.35.25-.21.57-.35.59-.53.19-1.37.06-2.67-.7-3.9-.14-.23.29-.81.43-1.15,1.46-.22,1.8.99,2.57,1.56ZM70.37,261.73c-.66-1.18-1.87-2.04-1.42-3.89,1.36.96,2.6,1.67,2.71,3.51-.43.13-.87.25-1.3.38ZM72.78,266.97c.25.15.5.31.76.46-.78.64-.64-.1-.76-.46ZM83.77,264.4c-.77,1.38-2.22,1.68-3.79,2.23-.04-.78-.08-1.41-.13-2.36,1.45-.56,2.49-.96,3.75-1.45.09.72.35,1.27.17,1.58ZM91.47,287s.03-.2.04-.31c.16.19.32.37.48.56-.18-.08-.36-.15-.52-.25ZM91.69,275.86c-.48-.66.04-.57.36-.64-.12.21-.24.42-.36.64ZM92.21,287.42c.57.05.86.38.94.94-.6-.03-.87-.38-.94-.94ZM92.28,275.04c.39-.59.8-1.21,1.46-2.22.14.96.19,1.35.28,1.98-.63.09-1.19.16-1.75.24ZM95.78,249.73c1.29,2.26-.54,3.97-.59,5.89-.54-.3-1.09-.6-1.56-.86.02-2.1,1.51-3.29,2.15-5.03ZM95.98,263.93c1.38.07,1.4.14.86,3.94q-2.13.04-3.56-.69c.24-1.65,1.58-2.39,2.7-3.25ZM92.94,260.37c-1.55,2.45-1.97,5.26-2.69,7.95.25.45.49.9.83,1.51-.43.95-.91,2-1.39,3.08h-1.24c1.35-3.1.28-6.25.65-9.39-.61-.39-1.17-.74-1.75-1.11.52-1.03,1.05-2.05,1.51-2.97,1.3-.66,2.34-1.55,3.75-1.41.63.74.79,1.6.31,2.35ZM92.53,248.85q.88,1.58-1,3.74c-.62-1.8-.27-2.92,1-3.74ZM72.13,239.58c.99.42,1.62,1.07,1.41,2.57-.62.05-.93.08-1.26.11-.78-.85-.77-1.74-.15-2.67ZM101.95,143.89c-.95.56-1.99.96-3.12,1.48-.22-.66-.37-1.08-.57-1.66,1.29-.38,2.5-.73,3.93-1.15-.09.55-.02,1.2-.24,1.33ZM102.26,160.1c1.28-2.86,1.81-5.05,4.74-4.41.11.47.23.92.35,1.43-1.12,1.45-2.75,1.82-5.09,2.98ZM113.55,172.84c-.89-.1-1.86.26-2.67-.46,1.06-.6,2.03-.91,2.67.46ZM109.93,174.19c1,.36,1.52,1.03,1.46,2.24-.37.12-.78.26-1.14.37-.91-.84-.96-1.69-.32-2.62ZM134.08,203.03c-.27.25-1.25,1.16-2.38,2.21-1.8.27-3.53,1.74-5.64,1.25-2.02-.47-3.69-1.6-5.05-3.55v-3.7c.32-.68.83-1.73,1.39-2.9.79-.49,1.72-.93,2.46-1.58.72-.65,1.24-1.53,1.85-2.33h1.67c.83,2.09,1.67,4.21,2.53,6.38-2.74.17-4.96-2.19-7.85-1.07v3.46c.68.65,1.62,1.57,2.58,2.49,1.93-.51,3.68-.97,6.15-1.63.21-.15,1.04-.72,2.2-1.53h6.18c-.03.16-.04.38-.12.41-1.68.61-3.38,1.2-5.97,2.1ZM119.81,192.77c1.44-.6,2.57-.77,3.89-.02-.45.49-.88.94-1.29,1.39-.84-.44-1.56-.82-2.59-1.37ZM126.92,186.18c.26.17.73.31.75.51.13.99.14,1.99.2,3.05-.52.47-.99.89-1.47,1.32-1.36-1.9.82-3.23.52-4.88ZM126.79,175.69c1.11,1.44,1.66,2.16,2.22,2.89.96.3,1.89.59,2.73.85.79,3.08-.1,5.75-1.23,8.59-.5-.48-.95-.91-1.35-1.28q.99-3.49.38-6.45c-.4.56-.77,1.09-1.14,1.62-.32-.03-.64-.06-1.03-.1-.82-1.75-.23-3.55-.58-6.11ZM126.31,164.99c.07-.41.65-.74,1.05-1.15.69.53,1.35,1.03,2.15,1.65,1.07-1.03.25-2.57.95-3.65.64-.98,1.07-2.16,1.88-2.96.92-.9,2.17-1.47,3.2-2.14.46.35.73.56.99.75.61.75-.24,1.18-.35,1.77-.1.49-.03,1.01-.06,1.52-.04.66-.01,1.36-.82,1.68-.14,0-.4.07-.47-.01-.41-.51-.78-1.05-1.23-1.67-.39.03-.84.06-1.34.1-.7,1.96-.4,3.73.73,5.67-1.18.12-2.16.22-3.37.34-.64.5-1.43,1.12-2.07,1.62-.67,1.79-1.24,3.37-1.88,4.92-.09.22-.51.31-.79.45-.41-3.1.9-5.94,1.42-8.9ZM124.86,173.94c-.05.56-.1,1.13-.17,1.95-.8-1.12-.8-1.14.17-1.95ZM140.19,180.06h-2.37c-1.09.59-1.68,1.34-1.75,2.46-.05.81.15,1.7-.56,2.36-.31-.05-.63-.11-.94-.17-.08-.14-.25-.3-.22-.41.36-1.44.74-2.87,1.16-4.47,1.3-.6,2.63-1.22,4.26-1.97.19.93.32,1.55.45,2.16,1.59.64,1.1,1.68.53,2.76-.81-.79-.5-1.8-.56-2.73ZM137.83,176.73c-1.27.09-2.72.2-4.65.34.12-.95.16-1.27.23-1.82.91-.12,1.87-.24,2.91-.38.5-.56,1.03-1.16,1.56-1.75.19,0,.42-.07.52.01,1.49,1.29.52,2.3-.57,3.6ZM131.51,172.04c-.31.82-.63,1.69-1.03,2.73-.58-.62-1.03-1.1-1.45-1.55v-3.15c.26-.17.77-.74,1.37-.87,1.28-.28,2.61-.34,3.96-.49.29.58.49,1,.66,1.33-.76,1.46-2.04,1.79-3.51,2ZM136.97,208.21c-.85.29-1.13-.4-1.74-1.04.55-.94.96-1.64,1.35-2.31.41-.02.72-.04,1.14-.06.68,1.34.46,2.47-.75,3.41ZM143.08,203.94c-.27.57-.82,1-1.23,1.46-.85-.48-1.58-.88-2.3-1.29-.35-.74-.11-1.33.66-1.46.8-.13,1.64-.03,2.61-.03.1.45.41,1,.26,1.32ZM140.26,200.44c.32-.93.87-1.11,2-.23-.85.1-1.44.16-2,.23ZM141.83,196.28c-2.13,1.84-4.48,2.43-7.36,1.97-.99-1.35-2.06-2.82-3.29-4.5-.04-.63-.08-1.46-.14-2.53.47-.86,1.03-1.87,1.57-2.84,1.98-.73,3.85-1.42,5.71-2.11,1.11.58,2.14,1.11,3.24,1.68.55,1.59,1.09,3.14,1.72,4.96-.44,1.03-.96,2.24-1.45,3.37ZM146.44,181.61c-.47,1.02-.96,2.08-1.43,3.1-.81.4-1.54.76-2.44,1.21-.58-1.84,1.26-2.36,1.64-3.73v-2.47c-.96-1.08-1.97-2.21-2.93-3.29.12-.43.21-.74.34-1.19,2.3,1.59,3.94,3.58,4.8,6.39ZM144.9,166.79c.43-1.19.79-2.28,1.24-3.33.09-.22.52-.29,1.01-.54.11,1.75.22,3.4.32,5.05-1.95,2.58-4.02,3.75-6.92,3.95-.14-.92-.26-1.69-.39-2.58,1.1-.34,2.1-.51,2.94-.96.72-.38,1.26-1.09,1.8-1.58ZM143.54,159.75c.86.68.86,1.44.48,2.26q-1.05-.41-1.66-1.81c.41-.16.82-.31,1.18-.45ZM141.1,163.88c-.25.34-.74.99-1.2,1.67-.46.69-.89,1.41-1.34,2.14h-2.23c.36-1.39,1.67-1.76,2.14-2.71.5-1.03.87-2.12,1.29-3.16,1.33-.16,1.35.7,1.33,2.07ZM136.96,150.85c1.27.77,2.42,1.74,3.61,2.61q.49,1.46.09,3.07c-.67-.97-1.22-1.77-1.94-2.8-1.18-.93-3.27-.98-4.38-2.65.84-1.08,1.83-.7,2.62-.22ZM130.35,152.66c2.23-.56,3.39.66,5.31,2.1-2.51.67-4.26,1.14-6.16,1.64-1.33-1.83,1.08-2.51.85-3.75ZM127.25,158.67c.44.37.93.78,1.52,1.26-1.21.57-2.28.95-3.22,1.54-.83.52-1.51,1.27-2.47,2.11-.11-.9-.18-1.56-.25-2.09,1.04-1.7,2.6-2.29,4.41-2.82ZM124.59,182.13c.67.73,1.46,1.59,2.18,2.36.06.69.1,1.18.15,1.68-.95-.65-1.89-1.31-2.83-1.95-.99-.12-1.99-.43-2.92.21,0,0,1.38,3.28,1.5,3.56-1.65-.56-2.21-2.23-3.78-2.74-.48.17-1.1.39-1.91.68,0-.51-.18-1.18.03-1.35,1.15-.93,2.4-1.74,3.39-2.44h4.19ZM120.8,162.55c-.1,1.37-.16,2.11-.21,2.78-.56.13-.85.2-1.32.31-.82-1.25-.04-1.96,1.52-3.08ZM119.13,143.46c.23-.25.42-.55.69-.73,1.38-.88,2.78-1.73,4.3-2.67.27.58.46.97.74,1.56-.97.7-1.96,1.29-2.8,2.05-.72.66-1.27,1.51-2.06,2.5-.39.02-1.02.06-1.59.09-.55-1.27.52-1.91.72-2.8ZM119.08,150.54c.95,1.08.66,2.21.39,3.33-.88.5-1.43-.46-1.59-2.83.38-.16.8-.34,1.19-.5ZM117.74,175.93c.11,1.13.52,2.23.81,3.39-.79.57-1.61,1.11-2.38,1.72-.78.63-1.51,1.33-2.25,1.98h-3.57c-.94-.5-1.82-.97-2.78-1.49.17-.48.32-.9.45-1.25,1.58-.24,2.12,1.12,3.26,1.7.35-.12.85-.21,1.24-.46.96-.62,1.88-1.32,3.09-2.19v-3.64c-.63-.93-1.26-1.86-1.89-2.78h2.26c1.23.73,1.64,1.73,1.76,3.01ZM112.91,143.75c1.07-.73,2.22-.38,3.34-.59.05,1.78-1.53,1.89-1.82,2.98-1.17-.6-2.05-1.1-1.52-2.39ZM112.94,150.98c.13-.08.51-.16.57-.35.42-1.39,1.36-2.29,2.81-3.06.14.69.25,1.28.36,1.82-1.47,3.06-5.18,3.28-6.35,5.83-1.5.15-2.04-.47-2.61-1.34,1.16-1.14,2.35-2.29,3.51-3.43.68.2,1.15.35,1.72.52ZM92.45,139.66c.28-.37.49-.89.87-1.09,2.97-1.62,6.3-2.29,9.46-3.41.73-.26,1.64,0,2.5.02,2.06,3.31,3.59,6.68,5.11,10.05.23.52-.06,1.27-.11,1.81-1.75.55-2.18-1.06-3.25-1.44-1.06.4-2.11,1.09-3.44.21.79-.87,1.56-1.72,2.45-2.7-.63-2.08-.6-4.56-3.59-5.99-3.19-.19-6.26,1.69-10.01,2.53ZM95.11,149.26c-1.17-.31-2.06-.96-1.62-2.57,1.23.38,2.41.73,3.55,1.08-.04.48-.07.79-.12,1.34-.57.06-1.24.29-1.8.15ZM96.92,162.53c.96-.54,1.96-1.11,3.09-1.74.44.55.85,1.05,1.33,1.63-.85,2.83-3.76,3.28-5.62,5.39-1.12-2.56.77-3.62,1.21-5.28ZM89.2,171.58c.94-1.22,2.07-2.81,3.62-3.66,1.73.2,1.39,1.63,2.07,2.29-.61,1.97-1.69,3.57-3.77,4.7-1.34-.75-2.3-1.4-1.92-3.33ZM87.46,174.1c.84,1.22,1.59,2.31,2.35,3.41-.29.58-.59,1.17-.92,1.83-.75.54-1.59,1.08-2.35,1.71-.77.63-1.46,1.36-2.13,2q-1.48-.6-2.29-1.89c.68-3.17,3.24-4.92,5.35-7.06ZM76.9,186.4c1.08-.91,2.22-1.88,3.37-2.85.84.83,1.71,1.67,2.7,2.64-.45.84-.91,1.7-1.56,2.92-.38-1.08-.66-1.88-.97-2.75-.72,1.33-.48,3.13-2.23,3.79-.26-.04-.58-.09-.9-.14q-.48-.56-.4-3.6ZM73.23,192.65c.93-.49,1.69-.51,2.58.68-1.17,1.73-2.19,3.24-3.07,4.55-1.03.51-1.8.8-2.65.21.41-2.22,2.3-3.58,3.15-5.44ZM70.19,199.49c.23.64.4,1.1.54,1.47-.09.43-.09.79-.23,1.07-.75,1.43-1.54,2.85-2.51,4.64-.67-.65-1.13-1.11-1.87-1.83,1.31-2.37,1.43-4.72,4.08-5.35ZM64.7,208.15c.45-.1.88-.21,1.45-.34.11.51.21.93.36,1.61-.72.1-1.32.18-1.92.26.04-.48.07-.95.12-1.53ZM64.57,209.7c.03.98.2,1.98-.59,2.85h-.9q-.3-1.56,1.48-2.85ZM59.72,217.24c.54-.58,1.21-1.32,2.06-2.25.58.39,1.08.73,1.8,1.21-.62,3.32-.66,3.35-3.5,3.59-.79-.65-.59-1.49-.37-2.56ZM57.58,223.77c.54-.89,1.36-.89,2.77-.62.05.87.09,1.51.14,2.2-.93.49-1.8.95-2.65,1.4-.76-1-.39-2.01-.26-2.98ZM55.77,229.21h3.1c0,.43.12.84-.02.96-1.12.99-2.46,1.5-4.33,1.93.51-1.19.88-2.03,1.25-2.88ZM56.82,234.3c.64.51,1.29,1.04,1.97,1.58.21-.21.57-.41.56-.59-.09-2.7,1.55-4.74,2.65-7.08,1.12,1.07,2.22,2.11,3.53,3.35.06,1.67.12,3.49.18,5.31,1.65-.1,1.74-1.51,2.73-2.85.13,2.28.22,3.96.32,5.69.6.76,1.23,1.55,2.05,2.59v6.65c.31.28.43.48.56.5.84.08,1.69.12,2.81.2.95.85,2.07,1.86,3.26,2.91.44-.17.87-.34,1.34-.53-.11-1.72-1.74-3.15-.52-5.1.66-.73,1.35.03,2.08.35q2.15-.73,3.49.11c-.07,1.68-1.63,1.94-2.77,2.86v3.96c.39-.17.66-.21.79-.37,1.03-1.32,2.03-2.65,3.07-4.03.05-.79.1-1.64.18-2.74,1.06-.54,2.25-1.11,3.41-1.75,1.05-.57,2.05-1.24,3.27-.53-.9,1.55-1.81,3.11-2.67,4.61v5.05c-.59,1.21-.76,2.45-1.92,3.08-1.74-.13-.34-2.31-2.28-2.6-.09.01-.25.03-.41.05-.9.82-.27,1.96-.97,3.52-.31.34-1.09,1.21-1.94,2.15-.99.08-1.99.16-3.1.25-.35.85-.72,1.75-1.22,2.95-.33-1.09-.57-1.86-.87-2.86-.52-.11-1.16-.24-2.07-.43-.39-.61-.91-1.44-1.46-2.31-1.61-.81-3.26-1.63-5.07-2.54-1.14-.11-2.1,1.72-3.74.6-1.13-1.83-2.45-3.75-2.58-6.26-.1-1.94-1.35-3.32-3.04-4.6.21-.7.52-1.46.66-2.25.23-1.31.36-2.63.47-3.53-1.08-2.63-3.15-3.55-5.04-4.5.66-1.43,1.52-.95,2.3-.9ZM57.15,240.79c-.12.07-.29.23-.34.2-1.38-.94-2.75-1.9-4.11-2.87-.1-.07-.11-.27-.16-.41,2.91.04,4.06.81,4.61,3.08ZM52.94,240.31c.55.55.99,1,1.17,1.18.09,2.15-1,1.88-2.11,1.76-.19-.35-.42-.75-.69-1.23.48-.51.93-.97,1.63-1.71ZM50.82,233.23c-.29,1.48-1.77.78-2.27,1.7-.06-.42-.12-.83-.21-1.51.87-.06,1.61-.12,2.48-.18ZM49.76,237.18c.67.28.96.41,1.27.54-.74,1.46-1.48,2.91-2.29,4.5-.47-.82-.86-1.52-1.38-2.44.7-.76,1.46-1.59,2.39-2.59ZM49.09,244.51c2.1.38,4.15.99,6.39,1.54-.12,1.87-.22,3.53-.34,5.31-1.97.23-2.38-1.15-3.03-2.22-1.52-1.68-4.12-1.3-5.69-2.84.36-1.6,1.47-2,2.67-1.79ZM45.94,254.72h2.62c.76.67,1.52,1.33,2.17,1.91.2.44.41.73.47,1.05.2.98.28,1.99.53,2.95.86,3.35.63,4.18-2.11,6.98-1-1.93.3-3.56.84-5.57-1.02-1.5-1.86-2.74-2.89-4.25-.74-.08-1.73-.19-2.94-.33-.34-.31-.83-.74-1.42-1.27,1.02-.55,1.89-1.03,2.73-1.48ZM44.52,263.12c.78.36,1.51.7,2.22,1.03.57,1.14.58,2.26-.04,3.59-1.13-1.03-2.2-2.01-3.58-3.29.67-.63,1.02-.97,1.41-1.34ZM45.85,271.78c-.45.42-.91.85-1.28,1.19-2.39-.13-2.28-2.25-3.31-3.46q2.58-.63,4.59,2.27ZM38.52,271.16c.55,1.11,1.05,2.15,1.52,3.1-.45.81-.92.48-1.22.14-.93-1.05-.9-1.08-.3-3.24ZM34.15,264.03c1.24.84,2.28,1.55,3.56,2.43-1.12.49-2.13.46-3.56.28v-2.71ZM34.9,276.07c-.26-.14-.53-.28-1.02-.53.23-1.78-.65-3.92,1.61-5.3,1.1,2.14-.47,3.91-.59,5.83ZM39.06,280.46c-.66-.52-1.28-1.03-1.93-1.5-.66-.47-1.35-.9-2.04-1.36-.04-.47-.08-.93-.12-1.39.55.24,1.09.48,1.61.72.33-.17.62-.32.92-.47,1.3.84,3.34.87,3.38,3.33-.51.19-1.08.4-1.82.68ZM40.65,290.55c.3.04.61.07.93.11.89,1.37-.06,1.95-1.02,2.59-.7-1.01-.71-1.88.09-2.7ZM40.23,295.99c.63-.16,1.37-.35,2.17-.55.26.6.45,1.03.62,1.41-.49,1.07-1.15,1.73-2.32,1.64-.85-.58-.66-1.4-.46-2.49ZM40.43,300.01c1.08.31,2.15.62,3.19.93.73.78.45,1.56.28,2.34-1.38.89-2.56.61-3.65-.15-.12-1.17-.39-2.17.18-3.12ZM41.09,308.04c.09-.68.15-1.17.2-1.61,1.11-.89,2.22-.64,3.5-.18.41,1.31.86,2.72,1.28,4.13.04.15-.02.33-.06.5-.04.15-.11.3-.26.7-.48.1-1.09.22-1.86.38-.48-.73-.9-1.4-1.37-2.05-.48-.67-1.01-1.3-1.46-1.87ZM42.49,315.32c1.41-.42,2.67-.8,3.93-1.17,1.29,1.6,2.29,3.26,1.5,5.49-.73-.13-1.47-.26-2.48-.44-.35,1.77.54,2.37,1.44,2.79.87.41,1.85.56,2.79.83.54,1.77,1.01,3.33,1.51,4.95-2.24,1.31-3.43-.93-5.19-.93-1.57-3.91-2.29-7.78-3.49-11.52ZM58.32,351.31c-1.22-1.31-2.48-2.67-3.53-3.8-.95-2.02.03-3.54.49-5.31-1.11-1.09-3.5-.39-3.96-3.12.11-.36.39-1.29.75-2.46-.68-.48-1.49-1.05-2.6-1.83-.66-1.33-1.48-2.97-2.27-4.57.88-1.1,1.55.26,2.29-.05.72-.3,1.46-.55,2.32-.86,2.66,8.88,6.41,17.05,10.45,25.16-2.88.46-3.3.11-3.94-3.15ZM60.88,357.48c.55-.97,1.36-.6,2.14-.41,1.66,1.04,2.57,2.64,3.5,4.92q-2.27-.65-5.64-4.51ZM71.19,368.28c.5.46.93.86,1.42,1.32-1.67.62-1.69.6-1.42-1.32ZM75.39,374.98q-1.08-.85-1.5-2.23c.42-.14.84-.28,1.25-.41q.58,1.34.25,2.64ZM126.6,369.5c-.12.12-.23.24-.35.36-.09-.21-.19-.42-.28-.63.21.09.42.18.63.27ZM124.83,367.22c1.19.25.98,1.16,1.03,1.94-.73.31-1.45.7-2.21.9-.61.16-1.31.12-1.72-.7.43-1.4,1.83-1.57,2.89-2.14ZM118.45,358.08c1.23.12,1.78.56,1.85,1.58-1.42.49-2.83.4-4.79-.07,1.35-.69,2.26-1.16,2.94-1.51ZM109.51,348.95h3.78c.74.78,1.54,1.62,2.26,2.39-.13.5-.21.81-.29,1.12-.14.07-.33.24-.4.2-2.31-1.32-4.84-.79-7.29-.92.63-.92,1.27-1.84,1.93-2.79ZM111.31,361.07c.35-.02,1-.06,1.91-.12.19.79.37,1.55.64,2.66-.83.73-1.71,1.5-2.29,2.02-1.55.49-2.68.63-3.79.03-.05-.32-.16-.89-.12-.9,1.85-.5,1.8-2.79,3.65-3.68ZM108.66,357.59v-3.12c1.6-1.2,2.71-.34,3.85,1.05v1.71c-1.05.96-2.17.83-3.85.36ZM107.4,351.87c-.11.22-.22.44-.33.66-.52-.63.01-.57.33-.66ZM107.23,361.39c-.26.15-.52.3-.78.45-.88-.13-1.35-1.03-2.84-5.36q2.25,1.2,3.62,4.9ZM101.46,369.54c1.17-.43,2.1-.77,2.93.36-.4,1.75-2.05,1.66-3.53,2.25-.93-1.63.33-2,.6-2.61ZM95.24,375.31c.59-.97,1.1-1.99,1.62-2.95h2.15c-.78,2.7-2.55,4.35-4.5,5.85-.17.13-.6-.09-1.12-.18.65-.95,1.29-1.81,1.84-2.72ZM98.29,381.29h-1.57c-.9-1.36-.08-2.04,1.27-2.75.09.85.17,1.59.3,2.75ZM80.66,395.93c.35.51.96,1.03,1.03,1.61.26,1.99.36,3.98,1.26,5.84.15.32-.22.89-.38,1.46-.48-.42-.86-.75-1.37-1.19-.11-1.39-.22-2.87-.35-4.56-.73-.12-1.33-.22-1.93-.32.06-1.18.29-2.28,1.73-2.84ZM78.86,398.9c.18.88.37,1.75.55,2.63-.31.03-.63.05-.94.08-.68-1.56-.68-1.6.39-2.71ZM76.9,410.25c.42-1.49.9-3.23,1.39-4.98.99,1.19,1.85,2.4,1.36,4.33-.52.57-1.2,1.3-2,2.18-1.87-.07-3.48,1.81-5.66,1.01.81-2.52,3.47-.91,4.91-2.53ZM81.99,430.64c1-.07,1.65-.11,2.39-.16.85.81,1.69,1.61,2.44,2.32.76,3.5-1.08,5.63-3.36,7.75h-5.84c-1.26-.64-1.85-1.55-1.77-2.85.32,0,.69-.07.93.07,3.7,2.07,6.4.42,9.04-2.45-.95-1.68-2.65-2.79-3.83-4.67ZM89.68,417.27c.27-.08.62.13,1.01.23-.26,2.02-2.34,1.31-3.3,2.22.3,1.13,1.79,1.62,1.61,3-.69.75-1.49.63-2.4.32-.73-1.22-1.69-2.41-1.41-4.34,1.41-.45,2.95-.97,4.5-1.42ZM86.24,415.71c.04-.46.07-.77.11-1.15,1.15-.75,2.47-.23,3.71-.38-.79,1.72-2.02,2.3-3.82,1.53ZM98.61,424.33c.76.72,1.6,1.51,2.53,2.4v5.36c-.95.98-2.12,2.17-3.29,3.37h-5.26c-.39-.46-.78-.93-1.4-1.68,2.33-.52,4.37-.06,6.53-.38.39-.3.92-.7,1.53-1.16v-3.32c-.75-.72-1.69-1.63-2.81-2.71-.81.8-1.46,1.45-2.06,2.03-1.33.15-1.69-1.13-2.69-1.54-2.33,1.03-.92,3.29-2.08,4.57-.81-4.08-.79-4.2.93-6.82,2.49-.39,5.18-.04,8.06-.13ZM94.6,418.57q1.8,1.58,1.01,3.55c-.31-.07-.63-.13-.96-.2-.65-1.1-.56-2.22-.05-3.35ZM99.25,439.19c-.4.15-.83.31-1.34.5-.22-.49-.4-.91-.74-1.66.41-.42.85-.87,1.21-1.24,1.38.7.84,1.57.87,2.41ZM92.52,441.53c-.31-.07-.63-.1-.91-.22-.12-.05-.17-.26-.25-.39.08-1.56,1.25-2.2,2.53-3.21.27,1.78-.72,2.74-1.37,3.82ZM87.05,447.34c-.25-1.46-.66-2.89-1-4.34.08-1.13.97-1.74,1.64-2.47.51-.57.3-1.71,1.38-1.82-.07,1.16.14,2.44-.3,3.43-.8,1.81-.56,3.63-.69,5.66.52,1.15,1.11,2.47,1.8,4h-2.15c-1.12-1.44-.42-3.03-.67-4.47ZM89.13,438.62c.03-.93-.28-1.92.49-2.74.62,1.08,1.02,2.1-.49,2.74ZM81.48,435.56c-1.23-1.09-2.34-2.09-3.52-3.13-.98.23-1.89.44-2.85.66-.57-1.55.52-2.05,1.84-2.67,1.05.39,2.28.84,3.47,1.27.43,1.27,1.76,2.17,1.06,3.87ZM75.74,437.56c-.24-.14-.48-.27-.72-.41.74-.58.65.03.72.41ZM68.88,406.44c.05-.22.51-.34.78-.5,1.31-1.66,1.32-1.65,4.49-2.9.92,1.36.64,2.83.47,4.26q-.46.46-2.66-1.31h-2.25c-.15,1.86-.16,3.7,1.06,5.19-.28.29-.47.54-.5.52-.42-.25-.81-.53-1.18-.78-.7-1.51-.58-3-.21-4.48ZM65.93,420.59c-.64.49-1.27.99-2.13,1.65-.06-.91-.11-1.56-.15-2.09,1.03-1.75,2.05-2.12,3.69-1.69.5.7,1.16,1.63,1.88,2.65.54.1,1.19.21,1.96.35.14.37.3.8.44,1.18-.48.56-3.21-.48-5.69-2.05ZM71.48,419.04c-1.11-.92-.84-1.78-.09-2.63.31.05.63.1,1.16.18.08.57.17,1.2.27,1.91-.53.21-.96.39-1.33.54ZM73.06,424.83c1.04-.6,1.49-.19,1.58,1.33-.25.28-.69.76-1.14,1.26-.96-1.04-.9-1.8-.44-2.59ZM76.34,452.87c1.76-.65,2.52-.88,3.23-1.21.75-.35,1.46-.79,2.29-1.26v-2.93c-.96-.6-1.81-1.12-2.73-1.69-1.55.45-3.02,1.54-4.83.85-.75-.63-.58-1.42-.21-2.36.63-.36,1.35-.78,2.26-1.3h5.13c.58.52,1.33,1.19,2.09,1.86.5,1.79.98,3.54,1.48,5.34-.89.96-1.68,1.81-2.5,2.7h-6.21ZM86.65,466.08c-.4-.47-.96-1.13-1.53-1.8,1.41.01,2.82.02,4.24.06.13,0,.26.19.4.3-.47,1.29-1.46,1.63-3.1,1.45ZM88.56,459.34c.43.89-.58.9-.94,2.2-.53-1.98-.2-2.46.94-2.2ZM92.84,461.16c-.56-1.38-.87-2.39-1.38-3.28-.32-.56-.95-.95-1.5-1.47-1.46.82-2.83.07-4.5-.21-.4,1.55-.79,3.12-1.25,4.9.2.87.46,1.95.71,3.03-1.99-.73-2.2-2.68-3.08-4.43,1.11-1.63.59-3.95,2.62-5.47h5.19c.84.52,1.98,1.22,2.97,1.83.74,1.66.7,3.12.21,5.09ZM97.41,453.86c-1.38-.46-2.79-.94-4.28-1.43-.67-1.19-1.33-2.36-1.87-3.32v-4.82c1.6-.82,3.09-1.58,4.69-2.4,1.2.36,2.47.74,3.66,1.1.8,1.51,1.58,2.97,2.4,4.52-1.07,2.28-1.91,4.92-4.59,6.36ZM104.25,438.3c-1.53-.54-3-.77-3.76-2.34.47-.42.96-.86,1.35-1.21,1.34-.13,1.94.64,2.57,1.68-.04.48-.1,1.11-.17,1.87ZM105.85,410.83c-.06-.55-.11-.97-.18-1.64.99.53,1.77.95,3.07,1.64h-2.89ZM106.95,403.03h3.96q1.23,1.27,1.4,2.52c-.29.08-.67.31-.87.21-1.85-.96-3.69-1.16-5.57-.1-.7-1.17.04-1.82,1.08-2.62ZM99.16,407.32c-.96.98-1.78.74-2.69.25.91-1.01,1.73-.61,2.69-.25ZM95.44,413.82c.24-.17.51-.51.79-.52,1.85-.05,3.71-.02,5.74-.02,1.13,1.18,2.29,2.39,3.39,3.54v4.55c-.41.78-.95,1.81-1.55,2.94-.67-.03-1.31-.07-2.22-.11,1.01-2.19,1.91-4.13,2.77-5.99q-1.32-1.72-3.53-2.74c-.15.09-.31.15-.43.27-.24.23-.46.5-.69.75.02.54.05,1.09.07,1.63l-.85.02c-.36-.52-.73-1.05-1.18-1.7-.54-.1-1.19-.23-1.86-.36-.81-.59-.76-1.39-.46-2.26ZM95.08,408.71v3.27c-.61.49-1.53,1.22-2.66,2.12h-2.22c.73-1.24,2.37-1.73,2.71-3.28.14-.64.3-1.28.42-1.79-1.59-2.09-1.6-2.08-3.91-1.79-.18.72-.38,1.49-.59,2.3-.27-.02-.7.06-.79-.09-.46-.68-.76-1.49-1.27-2.13-.34-.43-.94-.66-1.44-.99,1.26-1.96,3.07-1.23,4.62-1.29,2.02.68,3.75,1.67,5.14,3.66ZM85.13,398.24c1.42-.8,2.93-.6,4.33-.25,1.45.79,2,1.86,1.52,3.71-1.07-.76-1.93-1.38-2.52-1.8-1.67-.05-1.23,1.35-2.08,1.87-.34-.15-.9-.22-1.16-.54-.41-.52-.63-1.2-.97-1.9.27-.35.48-.87.87-1.09ZM83.71,417.59c-.99,1.96-.81,4.51-3.6,5.61h-3.72c-.14-.53-.25-.96-.38-1.45.71.2,1.28.37,2.1.6.53-.44,1.15-.99,1.82-1.47.65-.46,1.34-.86,2.01-1.27-.25-1.68-1.46-2.35-2.62-3.23-.99.87-2,1.75-3.01,2.63-.19-.3-.47-.55-.49-.81-.12-2.02-.09-2.02,1.38-3.85,1.26-.06,2.74-.12,4.33-.2.79,1.25,1.5,2.37,2.18,3.44ZM87.01,382.72c-1.11,1.17-1.78,2.64-3.83,2.7.82-2.25,1.77-4.02,3.83-4.93v2.24ZM90.98,386.3c-1.6-.55-1.99-1.55-1.8-3.11.45-.63,1.02-1.44,1.65-2.32-1.16-.92-2.49-.4-3.72-.51.05-.47.09-.95.14-1.43,1.52-.48,2.61-2.33,4.66-1.23.64,1.68-.32,3.74,1.13,5.26-.71,1.15-1.39,2.27-2.05,3.33ZM97.74,387.41h-3.93c-.2-.4-.4-.81-.6-1.21,1.3-.9,2.52-1.75,3.66-2.55,1.32-.19,2.43-.02,3.16,1.17-.23,1.24-1.24,1.83-2.3,2.58ZM99.43,381.6c-.09-1.04.91-1.35,1.29-2.06.31-.58.65-1.15,1.05-1.86.91-.43,1.93-.92,2.93-1.4.27.46.43.72.68,1.14-.55.72-1.2,1.47-1.72,2.29-.44.69-.73,1.47-1.01,2.03-1.28.82-2.31,1.02-3.23-.14ZM108.94,387.57c-2.57,0-4.92.2-7.03-.11-.91-1.24-.19-1.78.66-2.61,2.34-.12,4.83-1.07,7.44-1.22q.43,2.09-1.07,3.93ZM110.44,381.87c-1.47.58-2.58.66-3.89-.08-.13-1.54-.38-3.16,1.46-4.22,1.46,1.02,2.72,2.08,2.43,4.31ZM115.12,387.33h-2.89c-.16-.32-.37-.74-.55-1.09.88-1.84,2.81-1.82,4.44-3.39.79,2.28.59,3.46-1,4.49ZM118.33,380.21c-.65.05-1.28.1-1.84.14-.29-.36-.66-.61-.67-.88-.12-2.37-.14-4.75-.27-7.13-.02-.39-.46-.76-.87-1.38-.91.7-1.67,1.28-2.54,1.95-.37-.49-.73-.97-1.1-1.45-.76-.24-1.52-.47-2.4-.75,2.83-1.12,5.56-1.75,8.7-1.23.33.3.82.75,1.26,1.14q-1.03,3.47-.27,9.59ZM119.3,386.2c-.15-.28-.37-.53-.44-.83-.08-.31-.02-.65-.02-.97,1.47-1.52,3.23-2.16,5.45-1.82.33.43.5.55.51.68.03.49.01.98.01,1.34-.82.92-3.34,1.61-5.51,1.6ZM126.55,392.17c-.95.8-1.95.54-3.25.32-.56-1.13-1-2.01-1.37-2.76.51-1.87,1.69-2.21,3.28-1.96.82,1.34,2.12,2.57,1.35,4.39ZM124.78,379.92c-2.04.42-2.04.41-3.62-.82-.31-1.39-.63-2.85-.98-4.48.19-.23.5-.62.77-.97.21-.05.44-.14.47-.1,1.08,1.5,2.82,1.64,4.36,2.26.49.2.74.98,1.1,1.52-1.24.41-1.03,2.02-2.09,2.59ZM127.94,391.73c.4-.43.6-.65.84-.91,1.43.2,2.11,1.37,3,2.44-1.63.61-2.87.33-3.85-1.53ZM132.18,389.56c-1.63.16-2.82-.81-4.15-1.71.18-.41.36-.82.52-1.19h1.82c.78.67,1.66,1.42,2.57,2.2-.36.34-.54.68-.76.7ZM133.49,385.52c-1.66-.63-3.21-1.19-4.74-1.82-.27-.11-.41-.52-.66-.85.92-.43,1.82-.86,2.68-1.27,1.36.4,2.64.77,4.11,1.19-.45.9-.88,1.74-1.38,2.74ZM83.38,522.76c.55.63.01.58-.31.67.1-.22.21-.44.31-.67ZM102.92,524.48c-1.12,3.31-2.43,6.56-2.97,10.05-.23,1.48-.57,2.94-.97,5-.23.31-.83,1.11-1.55,2.09v3.01c.66.14,1.26.27,1.86.4v2.49c-.87.85-1.67,1.64-2.6,2.54-.54-1.2-1.19-2.08-1.3-3.03-.25-2.18.22-4.54-.46-6.54-.7-2.05-.44-3.99-.67-5.89,1.38-2.76,3.52-5.05,3.92-8.19-.3-1.16-1.24-.84-2.33-.81-1.38,1.86-3.92,2.66-5.33,4.9-.57.9-1.84,1.5-2.92,1.88-1.72.61-3.54.94-5.33,1.33-.26.06-.59-.2-1.06-.38.48-3.72,1.9-6.97,3.92-8.55,2.05-2.99-.27-4.43-.05-6.58.84-.99,1.81-2.13,2.78-3.27.72-2.22.12-4.27-1.03-6.2,1.95-2.94,3.79-5.71,5.63-8.49,1.77,1.29-1.19,2.4.17,3.59,1.72-.78,1.62-2.89,2.77-3.95,1.13-1.04,2.06-2.05,2.44-3.73.58-.07,1.2-.15,1.82-.22.08.44.26.79.15.98-.72,1.32-1.5,2.62-2.53,4.38,0,.32-.13,1.19.04,2,.16.77.64,1.47.99,2.22-.86.51-1.57.94-2.46,1.48-.77,1.49-1.65,3.12-2.46,4.77-1.1,2.27-2.29,4.49-3.53,6.69-1,1.77-1.98,3.79-1.73,6.03.34-.28.74-.51.95-.87.59-1.01.85-2.32,1.66-3.06,2.05-1.88,3.05-4.4,4.49-6.86.75-.17,1.54-.34,2.74-.61,1.04-.99,2.37-2.26,3.68-3.51,1.1.16.72.97.71,1.51,0,.66-.08,1.38-.36,1.95-1.72,3.45-1.43,7.54-3.8,10.47.4.54.49.67.59.81,1.39-1.2,2.77-2.41,4.19-3.64.76,1.34.37,2.59-.06,3.86ZM85.1,505.03l.25-.63c.12.12.24.24.35.36-.2.09-.4.18-.6.27ZM104.5,497.63c-1.01,2-1.84,3.78-2.81,5.48-.42.74-1.14,1.2-2.04.55-.05-.31-.25-.74-.13-.9,1.01-1.32,1.79-2.7,2.26-4.33.23-.8,1-1.8,2.72-.8ZM101.83,493.65c.02-1.24.84-1.54,2.06-1.69.59.98.75,1.72.1,2.56-.69-.28-1.41-.56-2.16-.86ZM110,488.68c-.53-.41-1.01-.79-1.63-1.27.7-.78,1.02-1.15,1.32-1.48,1.39.89.99,1.71.31,2.76ZM110.51,491.79c-.79-.02-1.67.14-1.93-.93.76.08,1.65-.12,1.93.93ZM108.43,490.76c-.92-.01-1.88.27-2.69-.48,1.1-.75,2.05-.9,2.69.48ZM106.25,498.98c.08.94.41,1.75.15,2.19-1.38,2.34-1.75,5.45-4.76,6.66-.52-.85-.42-1.67.08-2.4,1.41-2.06,2.86-4.09,4.52-6.45ZM107.05,513.2c-2.31,1.2-2.33,4.12-4.1,6.33-.29-.73-.55-1.1-.56-1.48-.02-.66-.12-1.48.21-1.98,1.69-2.59,1.91-5.65,2.83-8.48.36-1.09.86-2.14,1.32-3.25,2.85,2.67,1.38,5.47.29,8.86ZM112.17,504.82c-.7-.34-1.39-.67-2.03-.98-.84-1.09-.26-2.33-.53-3.43-.23-.94-.64-1.84-1.23-3.5.76.44.91.51,1.04.6.13.1.26.21.38.33.12.12.26.23.32.38.77,1.99,1.54,3.97,2.29,5.97.04.11-.1.29-.23.63ZM110.64,491.87c.81-.02,1.53.16,2.14.79.61.62.77,1.35.8,2.14-1.35-.61-2.31-1.6-2.94-2.94ZM118.45,509.61c-1.02,1.89-2.14,3.72-3.26,5.64-.5-.12-.93-.23-1.5-.37.32-1.08.59-2,.87-2.95-.57-.78-1.14-1.55-1.73-2.34,1.82-.44,3.55-.86,5.43-1.32.08.46.37,1.02.2,1.34ZM113.67,494.96c1.4.49,2,1.5,1.96,2.94-1.42-.47-2.04-1.48-1.96-2.94ZM115.7,498.03c1.28.41,1.11,1.86,1.81,2.58v2.98c-.63-1.88-2.12-3.46-1.81-5.57ZM121.99,507.96c-.06.1-.56-.07-1.03-.14.68-1.15,1.32-2.25,2.01-3.41.32.29.68.55.65.6-.5,1-1.04,2-1.63,2.95ZM129.9,497.68c-.02.63-.29,1.06-.89,1.24,0-.56.01-1.13.02-1.69,0-.64.28-1.07.91-1.23-.01.56-.02,1.12-.03,1.68ZM130.08,495.85c.11-.24.22-.47.33-.71.5.62.03.63-.33.71ZM151.68,508.11c-2.7-.63-3.16-2.96-4.23-4.83.03-1.6-.2-3.26.06-4.78,1.25-.84,2.33-.81,3.43-.22.13.3.36.59.37.89.08,2.18.11,4.35.16,6.53.02.7.29,1.21.96,1.46-.26.33-.52.66-.74.94ZM160.13,501.79c-.43-.37-.9-.77-1.39-1.19v-6.08c1.33,1.41,2.13,2.26,2.85,3.02.17,1.68.41,3.23-1.46,4.25ZM152.75,504.71c1.05-1.97.94-3.85.2-5.86-.28-.77-.43-1.66-.35-2.47.17-1.65,1.21-3.18.89-4.91-.33-1.8,1.12-3.16,1.09-4.88,0-.23.39-.46.68-.77.37.19.76.4,1.19.62-.33.87-.61,1.62-.88,2.32.25.35.37.72.63.86,1.16.67,2.38,1.25,3.54,1.93.62.37.89.98.68,1.76-.77.85-1.51.16-2.25-.1-.8.55-.92,3.34-.38,9.45.41.38.9.84,1.47,1.38.63-.22,1.25-.45,1.89-.67,1.43,1.19,1,3.82,3.39,4.68-.07-3.48-2.31-6.4-1.71-9.85.38.15.58.16.67.27,2.65,3.27,5.33,6.51,7.89,9.85.68.89.97,2.09,1.42,3.12-.41.28-.67.45-.94.63-1.19.07-1.59-1.16-2.58-1.55-.26-.07-.58-.19-.9-.24-1.33-.19-2.64-.18-3.96-.71-2.28-.91-4.62-.63-6.8.53-2.06-.37-3.44-1.92-5.12-2.93.06-.83-.11-1.79.25-2.46ZM141.4,483.17c1.55-.59,3.14-1,4.42-2.2.38-.36,1.25-.21,1.98-.3,1.45,2.9-.2,6.06,1.3,9.86.21-2.49.33-3.97.47-5.64.26-.29.59-.66,1.05-1.17.71.49,1.21.84,1.76,1.22.19,1.94.07,3.66-.64,5.49-.58,1.49-.37,3.29-.5,4.82-.86.76-1.63.71-2.52.19-.79-1.26.11-2.93-.67-4.4-1.16.97-.47,2.25-.86,3.25-.6.72-.88,1.98-2.31,1.38-.33-1.03.53-2.01-.15-3.22-.6-1.07-.39-2.62-.44-3.96-.05-1.49.24-3-.33-5.16-1.66,4.2-1.76,7.93-1.77,11.77-.75.85-1.51,1.73-2.3,2.63-.31-.42-.65-.69-.62-.89.16-.81.47-1.59.66-2.4.15-.64.18-1.31.32-2.33-.8-.08-1.11-.11-1.49-.15-.36.52-.74,1.06-1.14,1.63-.1-.11-.28-.21-.28-.32-.02-2.68-.01-5.35-.01-8.15,1.35-.66,2.67-1.43,4.07-1.96ZM128,472.39c.33-.25.72-.39.81-.65.82-2.29,2.16-4.19,3.96-5.82.99-.9,1.91-1.86,2.55-3.13.48-.95,1.52-1.62,2.48-2.59.48,2.57-1.54,3.91-1.89,5.9-.34,1.97-1.34,3.82-.49,5.9,1.02.02,1.44-.73,1.63-1.49.23-.96.23-1.99.33-2.99h1.29c-.69,4.49-1.68,8.86-1.65,13.39.01,2.46-.52,5.02-1.32,7.36-.46,1.34-.56,2.59-.67,3.92-.25,3.24-1.13,6.25-3.72,8.41,1.04-2.81,1.81-5.53,2.43-8.42-.75-1.28-.9-2.77-.23-4.26.59-1.31.7-2.57.15-4.12-.87,1.59-1.65,3.01-2.49,4.54-.07,1.24-.15,2.58-.22,3.82q-2.4,1.55-3.64,4.59c-.32-.05-.63-.1-.97-.15-.95-1.27.7-2.09.57-3.27-.12-.99.06-2.01.11-3.06-.57-.49-1.07-.93-1.59-1.38-.43.4-.8.75-1.13,1.06-.64,3.35-1.14,6.66-1.94,9.9-.35,1.43-1.31,2.71-2.29,4.64-.13-1.44-.21-2.25-.28-3.06-.18-2.22-.66-4.38-2.14-6.1-1.62-1.88-1.89-4.3-2.75-6.46-.47-1.17-.4-2.66.22-3.98.42-.9.67-1.89.97-2.76,1.27.21,2.54.42,4,.66.91-1.74,1.76-3.35,2.68-5.1.1-1.21.22-2.55.34-3.98.85-.8,1.7-1.58,2.51-2.34.96.41,1.7.72,2.4,1.02ZM125.86,467.33c-.14.26-.28.51-.43.77-.66-.75.06-.65.43-.77ZM130.08,453.93c.12-.23.24-.45.35-.68.51.65-.01.6-.35.68ZM136.67,428.6h2.99c-.33,3.57-2.12,6.27-4.36,8.94-.51-.03-1.14-.07-1.98-.12.5-3.34,1.65-6.17,3.35-8.82ZM133.35,426.43c1.08,1.33.68,2.45.4,3.53-.05.19-.39.3-.65.44.08-1.23.16-2.47.25-3.97ZM132.99,430.56c-.07.57-.14,1.15-.24,1.97-.73-1.06-.68-1.65.24-1.97ZM132.07,440c.57-.12,1.22-.4,1.84-.35.73.06,1.53-1.24,2.11-.07.37.75-.11,1.58-.5,2.37-1.09,2.19-2.45,4.01-5.25,4.53-.76-2.71.5-4.5,1.81-6.47ZM128.69,448.03h3.73c.57.63.56,1.52.04,1.87-1.61,1.09-3.24,2.13-4.91,3.22-.84-2.14-.81-2.14,1.13-5.09ZM121,460.86c1.2-1.79,2.45-3.55,3.54-5.1,2-.62,3.71-1.16,5.41-1.69.26,1.27-.81,2.08-1.15,3.2-.85.69-1.81,1.35-2.61,2.16-.8.81-1.43,1.79-2.13,2.68-1,.13-1.99.35-2.88-.33-.07-.31-.31-.74-.18-.92ZM119.28,463.53c.84.57,1.65,1.12,2.65,1.8.81-.62,1.59-1.21,2.53-1.93.11.46.4.94.27,1.21-1.11,2.28-2.59,4.28-4.79,5.83-.57-.09-1.2-.2-1.95-.32-.47-2.49-.36-4.67,1.29-6.59ZM110.8,474.75c1.42-1.42,2.95-2.95,4.82-4.82,1.16,1.62,1.93,2.7,2.85,3.99-1.91,2.44-3.94,4.75-7.21,5.61-1.14-1.54-.46-3.05-.46-4.77ZM103.54,484.24c1.93-1.38,2.64-3.98,4.64-5.53.1-.08.33,0,.72.02.34.56.78,1.21,1.12,1.91.29.58.46,1.21.69,1.83-1.16,2.81-4.23,3.25-5.94,5.47-1.83-1.14-1.28-2.36-1.23-3.7ZM100.47,486.17c.3.01.53-.03.56.03.53,1.03,1.04,2.08,1.47,2.97-.39,1.91-1.79,2.66-2.95,3.66h-1.75c-.44-.48-.99-1.07-1.66-1.8,1.05-2.16,2.9-3.39,4.33-4.86ZM92.68,491.92c.5-.05,1.15-.11,1.91-.18.55.61,1.09,1.22,1.66,1.87-.27.57-.36,1.17-.7,1.4-1.08.73-2.26,1.33-3.55,2.07-.72-.67-1.29-1.21-1.76-1.64.07-1.81,1.29-2.51,2.45-3.51ZM87.29,495.93c1.48.77,1.97,1.88,1.61,3.63-1.39.26-2.65,1.42-4.36,1.11-.13-.02-.24-.22-.44-.41.62-1.77.89-3.81,3.18-4.32ZM84.97,505.18c-.03.78.05,1.62-.94,1.92.02-.79-.09-1.64.94-1.92ZM82.41,498.03c.8,1.63.49,3.13.37,4.78-1.05.98-2.15,2.01-3.22,3.01-1.28-.36-1.64-1.22-1.66-2.76.98-1.78,1.55-4.34,4.51-5.03ZM71.92,504.75c1.12-1.6,2.65-2.18,4.28-2.69.99,1.56.42,3.07.46,4.81-1.02.64-2.13,1.35-3.42,2.16-.46-.5-1.15-.9-1.26-1.43-.2-.95-.06-1.97-.06-2.85ZM43.3,520.1c.03-1.98,1.24-2.7,2.42-3.55,1.01,1.64-.16,2.7-.56,3.89-.61-.11-1.22-.23-1.85-.34ZM47.88,522.93c-.72.73-1.48.75-2.29.35-.15-.28-.4-.55-.43-.84-.06-.66-.01-1.32-.01-1.98h2.15c.95.95.94,1.71.58,2.47ZM49.55,519.07c.12-.12.24-.24.35-.36.09.21.17.41.26.62-.2-.09-.41-.17-.61-.26ZM50.44,519.52c.39.11.65.36.75.75-.25-.25-.5-.5-.75-.75ZM67.38,507.01c.41-.42,1.1-.58,1.77-.91.59,1.23,1.08,2.25,1.52,3.16-.82,1.95-2.62,2.12-3.93,2.86-1.24-.18-1.83-.9-2.13-1.93h0c.91-1.07,1.79-2.19,2.77-3.19ZM64.04,505.38c.54.71-.03.62-.38.68.13-.23.25-.45.38-.68ZM64.06,509.46c.14.25.29.49.43.74-.3,0-.59,0-.89.01.15-.25.31-.5.46-.75ZM63.52,513.73c-.62.18-1.05.31-1.48.43-.6-2.38-.6-2.4,1.48-3.87v3.44ZM63.47,506.2c-.28,1.01-1.16.82-1.9.91.27-1.03,1.15-.84,1.9-.91ZM61.35,507.23c-.27.28-.51.59-.84.76-.15.08-.51-.22-1.17-.54.88-.1,1.46-.17,2-.23ZM56.81,510.69c.95-.57,1.82-.66,2.57.32-.12,1.27.36,2.59-.22,3.77-1.28.82-1.79-.29-2.43-.59-.5-1.36-.55-2.45.08-3.5ZM53.6,518.33c-.08-.71-.15-1.32-.21-1.92.47.04.95.09,1.55.14.12.41.24.85.4,1.43-.56.11-1.01.2-1.74.34ZM54.62,508.3c.13.11.38.26.36.33-.37,1.27-.87,2.52-1.15,3.81-.28,1.27-.37,2.59-.53,3.88h-1.88c-.48-.57-1.13-1.34-1.74-2.08.11-.39.1-.76.27-.96,1.03-1.12,2.15-2.13,2.7-3.65.28-.78.99-1.38,1.97-1.33ZM46.62,509.62c1.13-.35,1.97-2.07,3.49-.84-.04.39.05.81-.12,1.02-1.28,1.57-2.86,2.76-4.79,3.42-.09-1.41.72-2.47,1.42-3.6ZM45.09,513.37c-.09.5-.39.8-.89.89.09-.51.4-.79.89-.89ZM44.06,514.38c-.12.86-.69,1.36-1.6,1.77-.07-.46-.13-.85-.23-1.5.66-.1,1.25-.19,1.83-.27ZM37.16,517.67c.62-.46,1.01-.75,1.38-1.02,1.85.91,1.34,2.54,1.35,4-.48.91-1,1.76-2.37,1.57-.83-1.32-.42-2.8-.36-4.55ZM32.95,520.09c.37-.2.77-.43,1.11-.62,1.53.66,2,1.77,1.77,3.55q-1.28,1.16-2.58,1.04c-.54-1.25-.28-2.57-.3-3.97ZM26.87,523.49c.61-.61,1.43-1.44,2.59-2.6,1.12.99,1.61,1.42,2.16,1.91v3.13c-.54,1.08-3.19,3.91-4.48,4.62-.64-2.21-.29-4.36-.27-7.06ZM24.39,524.8c.14,3.01,1.98,5.51,1.04,8.62,1.59.21,2.71.36,3.81.51.49.9-.35,1.12-.71,1.58-1.45.28-2.91.56-4.61.89-1.15-.75-1.12-1.78-1.26-2.79-.14-.98-.49-1.93-.77-2.98.86-1.79.79-4.07,2.51-5.83ZM18.63,534.38c1.02-.94,1.7-.54,2.23.17,1.19,1.58,1.01,2.36-.82,4.05-1.86-1.05-1.35-2.76-1.42-4.21ZM16.1,537.07c2.2,1.39,1.13,3.39,1.5,5.21-1.19,1.2-2.34,2.37-3.78,3.83-.14-1.53-.16-2.67-.38-3.76-.19-.93-.61-1.82-.94-2.74,1.3-.92,2.47-1.75,3.6-2.54ZM10.98,542.1c.48.96.93,1.86,1.38,2.76v4.76c-.78.72-1.64,1.5-2.82,2.58-.05-2.58-.57-4.66-2.02-6.63.95-1.33,2-2.55,3.46-3.47ZM5.14,550.48c.26-.75-.08-1.71.81-2.24.3.07.61.15.91.22.51,1.74,1.02,3.48,1.68,5.7-.86,1.34-1.67,2.59-2.74,4.25-.54-2.17-.96-3.86-1.46-5.87.2-.52.52-1.28.79-2.06Z"/>
      <path class="cls-2" d="M84.9,254.94h0c.09-.01.12-.01,0,0Z"/>
      <path class="cls-2" d="M218.94,82.95v-.11s-.04.03-.06.05l.06.05Z"/>
      <path class="cls-2" d="M127.91,554.16c.25-.1.5-.2.75-.31-.12-.13-.24-.26-.36-.39-.11.25-.22.5-.33.75-.24.18-1.1-.07-.48.69.14-.25.28-.5.42-.75Z"/>
      <path class="cls-2" d="M154.48,547c.37-.13,1.17.03.5-.77-.14.28-.29.56-.43.84-.33.14-1.13-.03-.49.74.14-.27.28-.54.42-.81Z"/>
      <path class="cls-2" d="M123.87,357.89c.33,1.06.95,1.11,2.08.33-.9-.12-1.51-.19-2.13-.27-.28-1.07-.88-1.12-2.03-.3.91.11,1.49.17,2.07.24Z"/>
      <path class="cls-2" d="M117.03,364.54c.82.76,1.65.71,2.49.03-.82-.83-1.65-.68-2.49-.03Z"/>
      <path class="cls-2" d="M84.39,411.64c.81-.74.74-1.46,0-2.2-.51.73-.54,1.46,0,2.2Z"/>
      <path class="cls-2" d="M44.59,563.68c-.61.73-.38,1.24.27,1.63.13.08.42.1.47.03.14-.21.35-.58.27-.69-.27-.37-.66-.65-1.01-.97Z"/>
      <path class="cls-2" d="M83.23,425.63c.59-1.47.42-2.21.12-1.78-.21.3-.08.83-.12,1.78Z"/>
      <path class="cls-2" d="M86.66,427.05c.12-.29.32-.57.3-.82-.01-.19-.31-.36-.49-.55-.11.3-.3.57-.28.84,0,.18.3.35.47.53Z"/>
      <path class="cls-2" d="M80.29,426.73c-.58.6-.43,1.03.25,1.39.47-.58.48-1.04-.25-1.39Z"/>
      <path class="cls-2" d="M258.08,110.67c1.35.55,1.67.7,2,.78.03,0,.17-.4.26-.62-.38-.03-.77-.05-2.26-.16Z"/>
      <path class="cls-2" d="M48.87,567.91c-.14.01-.28.03-.41.04.05.38.1.76.15,1.15.11-.03.32-.06.32-.08,0-.37-.04-.74-.06-1.11Z"/>
      <path class="cls-2" d="M51.91,550.48c-.56-.55-.99-.42-1.36.19.53.41,1,.5,1.36-.19Z"/>
      <path class="cls-2" d="M48.57,539.36c.47.63.96.56,1.48.06-.47-.65-.97-.48-1.48-.06Z"/>
      <path class="cls-2" d="M234.76,142.53c-.63.47-.56.96-.04,1.46.65-.47.5-.96.04-1.46Z"/>
      <path class="cls-2" d="M126.78,499.22c-.1-.3-.21-.59-.31-.89-.11.08-.27.13-.32.24-.26.53-.04,1.19.33,1.02.13-.06.2-.24.3-.37Z"/>
      <path class="cls-2" d="M79.05,124.51c-1.34-.58-2.1-.41-1.71-.13.29.21.83.08,1.71.13Z"/>
      <path class="cls-2" d="M135.05,393.23c-.59-.19-.91-.33-1.26-.39-.1-.02-.24.17-.37.26.16.16.31.44.48.45.27.02.55-.14,1.14-.31Z"/>
      <path class="cls-2" d="M118.3,479.16c.12-.28.27-.55.33-.83.02-.09-.17-.23-.27-.35-.17.18-.46.36-.46.53,0,.22.25.43.4.65Z"/>
      <polygon class="cls-2" points="76.27 429.26 76.48 428.91 76.1 428.88 76.27 429.26"/>
      <polygon class="cls-2" points="91.68 420.03 91.91 419.71 91.53 419.67 91.68 420.03"/>
      <path class="cls-2" d="M122.64,167.26c-.1-.11-.23-.33-.28-.32-.46.15-.48.38-.04.6.05.02.21-.18.33-.28Z"/>
      <polygon class="cls-2" points="73.54 143.78 73.23 143.58 73.19 143.92 73.54 143.78"/>
      <polygon class="cls-2" points="204.1 93.43 203.89 93.75 204.23 93.79 204.1 93.43"/>
      <path class="cls-2" d="M213.59,73.22c-.09-.11-.23-.34-.28-.32-.45.15-.47.39-.04.6.05.02.21-.18.32-.28Z"/>
      <path class="cls-2" d="M253.38,26.22c-.07-.1-.15-.2-.22-.3-.02.19-.03.37-.05.56.09-.09.18-.17.27-.26Z"/>
      <path class="cls-2" d="M142.78,399.97c.17.42.35.85.57,1.38-.54.19-.99.35-1.43.51q-.74-1.39.86-1.89Z"/>
      <path class="cls-2" d="M155.51,121.81c.28.14.56.29.85.43-.78.63-.66-.11-.78-.5l-.07.07Z"/>
      <path class="cls-2" d="M155.58,121.74c-.27-.14-.55-.27-.82-.41.77-.66.59.18.75.48l.07-.07Z"/>
      <path class="cls-2" d="M35.66,148.54c.39.34.76.66,1.01.88-.13.42-.14.62-.2.64-2.3.58-4.45.36-6.55-1.52h5.74Z"/>
      <path class="cls-2" d="M262.15,85.24c-.77-2.96-.69-5.61.06-7.92.73-2.23.44-4.35.63-6.52.28-1.09.79-2.03,1.67-2.83,1.45,3.5-.87,6.69-.5,10.03.91.7,1.82,1.4,2.86,2.2.37,3.21-.07,6.44.12,9.64.2,3.27-1.87,6.22-1.09,9.54.32.59.65,1.17.98,1.79.04,1.49.12,2.95-.45,4.47-.52,1.36-.48,2.94-.7,4.46-1.1-.06-.88-.86-.89-1.35-.05-2.36-.02-4.72-.02-7.21-.72.21-1.16.34-1.87.54-.01-1.21-.21-2.4,0-3.52.41-2.3,1.04-4.56,1.56-6.84.45-1.95.4-6.91-.05-9.38-.66.82-1.37,1.7-2.33,2.9Z"/>
      <path class="cls-2" d="M241.36,63.48c.02,2,.09,3.91-.7,5.92-.64,1.63-.29,3.65-.38,5.61-.24.32-.49.77-.84,1.11-.18.17-.53.17-.8.25-.58-.95-.31-1.98-.33-2.96-.02-1,.27-1.94.54-2.92.49-1.74.53-3.61.8-5.74.47-.33,1.12-.77,1.76-1.22l-.05-.05Z"/>
      <path class="cls-2" d="M246.46,38.93c0,1.52.02,3.04-.04,4.56-.02.49-.16,1-.36,1.44-.31.67-.72,1.29-1.22,2.15-1-3.09.24-5.49,1.23-7.92.04-.1.31-.11.47-.16l-.08-.07Z"/>
      <path class="cls-2" d="M243.48,101.29c-.27-.15-.71-.25-.79-.47-.41-1.13-.37-2.26.11-3.39.38-.9.68-1.83,1.01-2.74.7,1.96.87,2.05.2,3.3-.6,1.12-.6,2.22-.62,3.38l.09-.08Z"/>
      <path class="cls-2" d="M232.16,56.32c.15,2.05-.13,4-1.37,5.75-.94-.18-.69-.98-.55-1.44.42-1.4.98-2.75,1.51-4.1.04-.09.31-.1.47-.14l-.07-.06Z"/>
      <path class="cls-2" d="M228.61,69.5c-1.38-1.91.66-3.02.65-4.69,1.21.62.87,1.5.69,2.1-.28.9-.87,1.71-1.34,2.59Z"/>
      <path class="cls-2" d="M269.97,89.03c-.12.93.31,1.96-.48,2.8-.61-1.09-1.02-2.11.56-2.73l-.09-.08Z"/>
      <path class="cls-2" d="M270.05,89.11c.06-.95-.33-1.98.49-2.82.67,1.11.99,2.12-.57,2.74l.09.08Z"/>
      <path class="cls-2" d="M269.01,76.81c.04-.98-.36-2.03.54-2.87.7,1.14,1.07,2.19-.57,2.83l.04.03Z"/>
      <path class="cls-2" d="M236.24,59.38c-.08.95.3,1.97-.48,2.82-.64-1.1-.99-2.12.56-2.75l-.08-.07Z"/>
      <path class="cls-2" d="M236.32,59.46c.08-.62.16-1.24.27-2.15.84,1.16.74,1.78-.35,2.08l.08.07Z"/>
      <path class="cls-2" d="M278.73,68.92c.12.3.26.59.33.9.02.12-.14.28-.22.41-.18-.15-.51-.33-.5-.46.04-.29.25-.57.39-.85Z"/>
      <path class="cls-2" d="M268.97,76.78c-.04.58-.09,1.16-.15,2.02q-.83-1.19.19-1.98l-.04-.03Z"/>
      <path class="cls-2" d="M245.15,90.35v1.53c-.12,0-.24,0-.36,0v-1.53c.12,0,.24,0,.36,0Z"/>
      <path class="cls-2" d="M245.95,87.82c-.07-.1-.22-.22-.2-.31.01-.1.17-.18.26-.27.08.11.23.22.22.32,0,.1-.18.18-.28.27Z"/>
      <polygon class="cls-2" points="234.52 63.99 234.89 63.84 234.85 64.22 234.52 63.99"/>
      <path class="cls-2" d="M121.73,516.63c.99-2.29,1.78-4.12,2.61-6.07.51.81,1.01,1.6,1.57,2.49-.6,1.36-1.21,2.72-2.01,4.52v4.9c-.59,1.09-1.06,1.98-1.51,2.81-.42.04-.74.08-1.06.11-1.56-1.71.55-3.09.42-4.7-.12-1.51-.02-3.04-.02-4.06Z"/>
      <path class="cls-2" d="M105.42,523.49c.15-.05.42-.08.45-.17.58-1.97,1.89-3.75,1.61-5.96.32-.28.8-.49.94-.84.43-1.07,1.11-1.82,2.18-2.24v2.77c-1.27,2.91-2.46,5.61-3.64,8.32-.31-.02-.63-.04-1.2-.08-.1-.56-.22-1.18-.33-1.8Z"/>
      <path class="cls-2" d="M119.83,519.96c-1.35.39-2.57.74-3.8,1.09-.06-.37-.1-.68-.15-1,.8-.58,1.65-1.09,2.38-1.74.67-.6.49-2.1,2.1-1.82.14.39.5.88.41,1.27-.18.77-.61,1.48-.93,2.2Z"/>
      <path class="cls-2" d="M105.95,534.08c.69.69.6,1.44.2,2.23q-.62-.68-.2-2.23Z"/>
      <path class="cls-2" d="M104.75,538.35c.8.71.84,1.41.3,2.17-1.26-.61-.13-1.5-.3-2.17Z"/>
      <path class="cls-2" d="M138.2,520.5c.14-.27.28-.53.42-.8.58.76-.2.57-.5.72l.08.08Z"/>
      <path class="cls-2" d="M218.88,82.9c.19,2.07-.17,4-1.41,5.78-1.01-.45-.62-1.37-.51-2,.24-1.42.47-2.94,1.98-3.72l-.06-.05Z"/>
      <path class="cls-2" d="M212.77,83.95v-2.42c.51-.24.91-.42,1.36-.64-.28,1.91-.3,1.9-1.35,3.06h0Z"/>
      <path class="cls-2" d="M88.04,524.5v4.41c-.54.63-1.05.9-1.7.32.44-2.47.79-3.4,1.78-4.67l-.08-.07Z"/>
      <path class="cls-2" d="M90.43,509.08c-.74-1.64.75-2.47,1.17-3.63.69,1.88.71,1.89-1.17,3.63Z"/>
      <path class="cls-2" d="M94.18,521.45c-.09.61-.18,1.23-.31,2.15-.86-1.21-.77-1.82.37-2.09l-.06-.05Z"/>
      <path class="cls-2" d="M94.24,521.51c.08-.62.15-1.24.27-2.15.9,1.18.73,1.77-.33,2.1l.06.05Z"/>
      <path class="cls-2" d="M92.64,525.32c-.07-.1-.22-.21-.21-.3.01-.1.17-.18.26-.26.08.1.23.21.22.31,0,.09-.18.17-.28.26Z"/>
      <path class="cls-2" d="M125.19,486.55c-.64-2.02-.65-3.97.2-5.87.89-2,1.89-3.95,2.97-6.2.66.67,1.19,1.21,1.73,1.75-1.67,3.52-3.24,6.84-4.89,10.31Z"/>
      <path class="cls-2" d="M132.7,473.56h2.83c.84.89.48,1.71.4,2.59-1.86,1.4-3.7,2.78-5.55,4.17-.12-.14-.26-.26-.32-.41-.06-.15-.08-.35-.02-.49.88-1.97,1.77-3.93,2.65-5.87Z"/>
      <path class="cls-2" d="M133.97,470.93c-.56.52-.91.85-1.46,1.36-.69-1.1-.44-2.18-.39-3.4.33-.38.76-.86,1.22-1.38q.72,1.29.63,3.41Z"/>
      <path class="cls-2" d="M119.78,488.78v-4.66c.62-.13,1.04-.21,1.5-.3-.2,1.42-.31,2.71-.59,3.97-.08.37-.62.64-.95.96l.04.03Z"/>
      <path class="cls-2" d="M119.74,488.75c-.08,1.29.38,2.66-.49,3.87-.85-1.08-.56-2.23-.24-3.35.06-.22.5-.33.77-.49l-.04-.03Z"/>
      <path class="cls-2" d="M94.51,450.97c-.92-.9-1.75-1.72-2.13-2.09-.48-2.05-.08-3.06,1.11-3.73.45.12.9.23,1.35.35.65-.53,1.3-1.07,1.93-1.58,1.27-.22,1.86.61,2.45,1.49v3.91c-.43.46-.77.83-1.31,1.41-.8.05-1.79.12-3.41.23Z"/>
    </g>
  </g>
</svg>