<?xml version="1.0" encoding="UTF-8"?>
<svg id="Capa_2" data-name="Capa 2" xmlns="http://www.w3.org/2000/svg" viewBox="0 0 124.4 125.55">
  <defs>
    <style>
      .cls-1 {
        fill: #1d170c;
      }
    </style>
  </defs>
  <g id="Capa_1-2" data-name="Capa 1">
    <g>
      <path class="cls-1" d="M52.72,14.77c.37-3.68-.26-7.65,1.75-12.01.16-.14.9-.82,1.57-1.43,2.38-.63,4.53-1.74,7.4-1.18.67.31,1.73.81,2.88,1.34.65,1.13,1.32,2.3,1.89,3.29v7.67c-1.11,1.32-2.07,2.47-3.02,3.6.34,1.66,1.49,2.37,2.79,3.17.53-.17,1.16-.37,1.96-.62.7.74,1.51,1.59,2.4,2.51v5.63c.54.26,4.1,3.38,4.19,5.44.85.67,1.75,1.38,2.79,2.2.05.31.12.8.2,1.29l-.1.09c-.74-.33-1.49-.67-2.61-1.17.87,2.77.17,5.45,1.31,7.91-1.52,2.28.81,8.37.43,8.76v6.02c.51.72,1.09,1.53,1.66,2.34.46,3.14,2.06,6.11,1.05,9.64-.33.28-.84.71-1.26,1.06-1.33.08-2.02-.56-2.49-1.68.19-.56.39-1.18.6-1.81-.87-.08-1.09.08-3.19,2.27-1.17-.83-.14-2.46-1.4-3.7-.41,6.95-.09,13.54-.09,20.13,0,6.51,2.13,12.71,2.79,19.09-.58,1.22-2.49.1-2.84,1.67-.28.14-.57.28-.85.42.11.1.21.2.32.3.15-.26.3-.53.45-.79.95.14,2.03-.42,3.01.66-1.18,1.05-2.36,2.1-3.54,3.14.41.26.82.53,1.34.87-1.73.94-2.84.23-3.87-1.3.19-.5.42-1.11.7-1.87-.31-1.63-2.03-1.15-3.13-1.7-.17-.28-.46-.55-.49-.85-.1-1.18-.13-2.37-.16-3.56-.03-.85-.03-1.7-.04-2.55-.03-1.86-1.23-3.47-1-5.44.22-1.84.06-3.73.05-5.6,0-.51.04-1.08-.18-1.5-1.7-3.33-1.87-7.11-3.25-10.55-.99.11-1.32.87-1.5,1.66-.27,1.14-.43,2.31-.64,3.42.18,1.47.43,2.95.51,4.44.14,2.52-.39,5.1.86,7.49.15.28.1.67.1,1.01,0,3.89,0,7.79,0,11.68-1.37,1.42-2.65,2.75-4.02,4.17.6.33,1.02.56,1.76.97.14.5.36,1.29.57,2.08.54.37,1.08.73,1.65,1.12-.66,2.59-1.33,5.16-1.97,7.74-.03.11.15.28.3.52,1.34-1.25,1.55-3.02,2.28-4.51.34-.03.66-.06.99-.1.47,2.17,0,3.84-2.17,7.9h-2.71c-1.01-1-.56-2.11-.88-3.24-.4-.29-.92-.67-1.44-1.05-.11-1.03,2-.73,1.27-2.12-2.27.51-4.58.35-6.88.38l.06.07c.17-.27.32-.75.52-.77,1.55-.17,2.85-.91,4.11-1.74,1-1.41,1.7-2.92,1.43-4.72.37-.11,1.04-.01.5-.74-.14.27-.27.55-.41.82-.56.54-1.12,1.08-1.69,1.62-1.47-1.71.98-3.08.48-4.72-.25-1.6-1.88-1.78-2.78-2.67-.6-2.85.31-5.76-.66-8.6-.92-2.69-1.56-5.47-2.42-8.57.57-3.76,1.93-7.77,1.95-12.04,0-1.81,1.07-3.5.97-5.44-.1-1.84.04-3.69.81-5.49.37-.87.28-2.05.07-3.02-.25-1.14-.46-2.19,0-3.32.18-.44.17-1.05.01-1.51-1.31-3.95-.84-8.05-.94-12.19-.47-.44-.94-.87-1.45-1.35-1.74,4.19-2.15,8.26-.86,12.52.48,1.58.48,3.37.41,5.05-.07,1.63.8,3.14.13,4.89-.51,1.35-.22,3-.29,4.54-.56.49-1.05.93-1.73,1.52-.56-.35-1.33-.56-1.6-1.04-1.56-2.8-3-5.67-4.38-8.34.9-3.7,1.12-7.32.2-10.7-1.03-3.75-.44-7.39-.38-11.08,1.14-1.88.71-3.97.76-5.99.08-3.22.07-6.43.1-9.73,3.19-1.92,5.84-4.26,7.97-6.82,1.19-.41,2.13-.73,2.98-1.02.2-1.17-.43-1.72-1.49-2.46M65.12,12.17c.23-.18,1.04.05.48-.68-.13.26-.26.51-.39.77-.21.19-1.02-.05-.48.68.13-.25.26-.51.4-.76ZM71.55,51.19c-1.24-.05-1.34.88-1.15,1.65.35,1.42.92,2.79,1.4,4.19h1.15c.9-2.28.09-4.13-1.4-5.84ZM59.76,104.7c-.07-.09-.14-.19-.22-.29-.02.19-.03.38-.05.56.09-.09.18-.18.26-.28Z"/>
      <path class="cls-1" d="M119.74,80c1.38,5.22,1.3,10.68,3.61,16.29v8.04c-.97,2.61-2.12,5.75-3.32,8.88-.18.46-.59.82-1.16,1.59-.67-.75-1.1-1.23-1.41-1.59,1.05-2.26,1.97-4.23,2.95-6.33-2.45-.69-4.66-1.31-7.05-1.97-.07-.72-.15-1.37-.2-2.01-.14-1.83-.08-3.62-.71-5.48-.63-1.84.17-4.16-.43-6.02-.92-2.83-.7-5.66-.98-8.91-.32-.62-.83-1.58-1.42-2.71-.49,1-.86,1.76-1.28,2.62-.14,2.07-.45,4.21.67,6.34.43.81.16,2,.2,3.02.07,1.67-.14,3.33.73,4.96.4.76.16,2-.11,2.94-.32,1.12-.97,2.15-1.56,3.4-.05.99-.07,2.18-.2,3.36-.1.93-.35,1.84-.58,3.01.89-.32,1.51-.53,2.15-.76,1.25,1.12-.87,2.01-.24,3.22.34.22.76.48,1.21.78.32.99-1,2.12.3,3.21-.39.78-.8,1.6-1.25,2.51-.69-1.7-1.29-3.2-2.03-5.02-2.39,2.91-3.41,6.17-5.15,9.14-.51-.45-1-.89-1.66-1.48.29-.6.46-1.26.85-1.72,1.22-1.44,2.3-2.9,2.29-4.9.32-.13,1.05.06.52-.7-.14.26-.29.52-.43.78-1.54.32-2.02,1.66-2.42,2.71-1.11.33-1.93.56-2.74-.34.16-.54.33-1.17.55-1.93-.66-.47-1.42-1.01-2.14-1.53,0-.37-.12-.76.02-.92,1.13-1.27,1.97-2.7,2.49-4.34-.78-1.28-2.3-1.26-3.35-2.02-1.91-1.72-1.14-4.46-2.22-6.3,1.87-1.7,3.74-3.39,5.64-5.11-1.26-3.34-.9-6.78-1.98-10-.68-2.04-1.23-4.17-1.16-6.42.03-.95-.54-1.92-.92-3.15.66-1.83,1.43-3.92.66-6.15-.99-1.1-2.26-.18-3.34-.46-1.16-.29-2.15.83-3.5.23.34-.79.65-1.52.97-2.28-.8-2.34-1.61-4.7-2.42-7.05-1.17,0-.4-3.9-.94-4.95-.67-1.29-.66-2.62-.66-3.97,0-2.21-.12-4.44.12-6.63.22-1.97.88-3.88,1.33-5.83.23-.98.52-1.96.62-2.95.3-3.09,1.5-5.5,4.56-6.71.44-.17.77-.62,1.11-.9-.26-1.72-.5-3.35-.73-4.88,1.26-1.41,2.78-2.33,3.17-4.56-.22-.86-.68-2.14-.84-3.45-.17-1.34-.04-2.72-.04-4.53.65-1.65,1.66-3.56,3.73-4.95h3.49c1.8,1.03,4.01,1.56,5.77,3.3.98,4.38-.36,9,.38,13.32,1.44,1.31,3.19.2,4.62,1.18.75,1.13.09,2.57.51,4,.31.2.68.54,1.13.72,1.24.51,2.5.95,4,1.51.8,1.8,1.68,3.74,1.92,5.97.22,2,.68,3.98,1.2,5.93.24.91.87,1.72,1.49,2.9.59-2,.15,23.17-.02,22.42-1.01.94-1.8,1.8-2.71,2.51-.89.7-1.9,1.24-2.92,1.89.3,1.29.62,2.38.79,3.49.17,1.12-.32,2.37.68,3.3.89.32.72,2.02-.19,2.46ZM105.05,9.12c.15.32-.06,1.17.75.51-.27-.15-.54-.3-.81-.46-.23-.94-.64-1.65-1.79-1.53-.15,1.58.93,1.42,1.84,1.48ZM119.13,59.74c-.67-1.27-1.49-2.84-2.58-4.92-.83,3.89,1.1,6.42,2.58,9.13v-4.21ZM96.49,56.83c.97-2.69-.37-5.03-1.17-7.88q-.69,5.45.2,8.11c.3-.07.6-.14.96-.23ZM104.81,108.88c-1.29,1.51-1.91,2.24-2.64,3.09,2.17-.07,2.18-.07,2.64-3.09ZM96.32,62.99c.47-1.98.44-1.99-.51-3.91.11,1.78-.2,2.87.51,3.91ZM109.66,75.96c-.2.78-1.16,1.59.2,2.46.08-.61.21-1.09.19-1.57-.01-.31-.25-.6-.38-.9ZM121.95,47.55c.08-.12.25-.26.23-.37-.04-.29-.16-.57-.24-.86-.09.07-.26.14-.27.22-.03.29-.01.58.02.87,0,.05.17.09.26.14ZM107.55,24.17l.19-.27-.31-.04.12.31ZM120.92,44.14l-.19.37.32.03-.13-.4ZM105.73,106.78l-.27-.2-.04.31.32-.12Z"/>
      <path class="cls-1" d="M13.05,119.56c.16-.63.15-1.39.51-1.86,1.02-1.32,2.2-2.53,3.4-3.87v-3.94c-.87-.26-1.64-.49-2.61-.79-.66-3.16-2.45-5.96-3.77-8.91-.51.06-.83.1-1.31.15.11.44.21.87.33,1.38-.68.23-1.42.48-2.28.77-.1.4-.24.86-.31,1.33-.14.93.27,2.1-1.16,2.4l.06.06c-.48-1.94-.95-3.89-1.43-5.83-1.48.37-2.61,1.54-4.49,1.72.65-1.99,2.75-2.6,3.12-4.01.43-1.65,2.57-1.66,2.64-3.57-.91-.37-1.79-.73-2.67-1.08-.05-.33-.09-.66-.17-1.19,1.47-.6,2.99-1.21,4.69-1.9.83-1.34-.14-3.22.88-4.72.85-1.25,1.58-2.57,2.48-4.04,0-.08.09-.45-.01-.76-1.14-3.45-.98-7-.99-10.55,0-2.89-.08-5.79-.06-8.68.01-1.67.08-3.27.73-4.96,1.04-2.72.08-5.64.34-8.69-.59.29-.81.32-.89.44-2.64,3.91-4.25,8.08-2.64,12.82.52,1.53.49,2.96.28,4.44-.94.73-1.84,1.43-2.76,2.14.3,1.15.55,2.1.83,3.16-.49.43-.96.86-1.59,1.41-1.18-1.66-2.26-3.16-3.17-4.44-.38-1.74-.7-3.21-.96-4.43,1.43-10.67,2.88-21.13,5.06-31.54.86-.99,1.76-2.01,2.65-3.04.06-.85.12-1.69.18-2.51,1.23-2.76,4.34-3.67,5.93-5.74-.08-2.09-1.88-2.07-2.75-3-.09-.32-.21-.64-.26-.96-.36-2.13.96-3.9,1.3-5.9.19-1.14.81-2.2,1.59-4.24.43-.39,1.56-1.41,2.77-2.5h8.47c.67,1.07,1.46,2.34,2.29,3.68v8.8c-.61,1.19-1.29,2.53-2.01,3.93,1.68,2.31,3.5,4.25,5.85,5.54,1.19,2-.75,3.54-.7,5.69.81.99,1.76,2.15,2.95,3.61.06,1.21.14,2.72.24,4.43.55,1.22,1.18,2.6,1.51,3.31.59,3.52.8,6.41,1.63,9.12.45,1.48.71,2.91.9,4.41.18,1.49.66,2.94.96,4.42.76,3.78,2.1,7.42,2.46,11.29.04.48.33.93.49,1.37-.76,1.39-1.14,2.94-2.82,3.88-.43-.03-1.07-.08-1.54-.11-1.6-1.89.79-3.32-.06-5.42-.15-.1-.69-.44-1.21-.81-.41-.29-.8-.62-1.33-1.02-.61-1.54-.02-3.28-.38-5.26-2.02-2.65-1.64-6.5-3.41-9.59-.32.04-.64.07-.95.11-.69,5.34-.3,7.15.25,11.49.54,4.19,2.23,8.07,2.42,12.05.68.47,1.09.75,1.51,1.03.11.31.31.61.32.92.03,1.34.19,2.68-.43,4-.34.72-.35,1.64-.38,2.48-.07,2.19-.14,4.32-.85,6.5-.61,1.88-.31,4.05-.43,6.57-.72,1.2-1.66,2.78-2.86,4.78-.23.87-.3,2.19.8,3.52-1.72,1.82-3.44,3.65-5.11,5.43-.49-.18-.79-.29-1.24-.46-2.37.93-2.68,3.58-4.13,5.38-.7.36-1.44.74-2.18,1.12-.13-.34-.4-.67-.34-.92.33-1.24,1.46-2.18,1.42-3.76-.53.14-1.06.13-1.4.38-1.48,1.09-2.37,2.89-4.23,3.53l.03.03ZM19.62,114.39c1.44-1.34,2.78-2.58,4.06-3.77.67.26,1.27.49,1.94.74.54-.5,1.02-.93,1.43-1.31-.45-2.11-2.65-1.23-3.59-2.33-.24-.8-.48-1.57-.73-2.43-.55.18-.98.32-1.57.51.28.72.5,1.32.84,2.19-.91,1.44-1.95,3.09-2.96,4.7.2.57.36,1.03.6,1.7ZM21.63,82.88c-.49,2.61-.64,5.2-.14,8.61,1.25-1.33,2.05-2.18,2.41-2.55.84-2.69-.03-4.32-1.09-5.88-.12-.17-.6-.1-1.17-.17ZM7.43,98.36c-.15.24-.42.48-.42.73,0,.25.25.51.39.76.15-.23.41-.47.41-.7,0-.27-.24-.53-.38-.79ZM4.11,63.81l.29.2.04-.34-.33.14ZM9.21,94.47l.31.19.04-.32-.35.13Z"/>
    </g>
  </g>
</svg>